G04 MADE WITH FRITZING*
G04 WWW.FRITZING.ORG*
G04 DOUBLE SIDED*
G04 HOLES PLATED*
G04 CONTOUR ON CENTER OF CONTOUR VECTOR*
%ASAXBY*%
%FSLAX23Y23*%
%MOIN*%
%OFA0B0*%
%SFA1.0B1.0*%
%ADD10C,0.075000*%
%ADD11C,0.072917*%
%ADD12C,0.078000*%
%ADD13C,0.080000*%
%ADD14R,0.078000X0.078000*%
%ADD15R,0.080000X0.080000*%
%ADD16C,0.024000*%
%LNCOPPER0*%
G90*
G70*
G54D10*
X123Y1950D03*
G54D11*
X2344Y178D03*
X744Y178D03*
X2444Y178D03*
X2544Y178D03*
X2644Y178D03*
X2744Y178D03*
X3044Y1578D03*
X2844Y178D03*
X2944Y178D03*
X784Y2078D03*
X1344Y178D03*
X1444Y178D03*
X1544Y178D03*
X1644Y178D03*
X3044Y778D03*
X1744Y178D03*
X1844Y178D03*
X1944Y178D03*
X2044Y178D03*
X1544Y2078D03*
X3044Y1978D03*
X3044Y1178D03*
X3044Y378D03*
X384Y2078D03*
X1144Y178D03*
X1144Y2078D03*
X3044Y1778D03*
X3044Y1378D03*
X3044Y978D03*
X2744Y2078D03*
X3044Y578D03*
X2644Y2078D03*
X2544Y2078D03*
X2444Y2078D03*
X2344Y2078D03*
X2244Y2078D03*
X2144Y2078D03*
X2044Y2078D03*
X184Y2078D03*
X584Y2078D03*
X984Y2078D03*
X544Y178D03*
X944Y178D03*
X1744Y2078D03*
X1344Y2078D03*
X3044Y2078D03*
X3044Y1878D03*
X3044Y1678D03*
X3044Y1478D03*
X3044Y1278D03*
X3044Y1078D03*
X3044Y878D03*
X3044Y678D03*
X3044Y478D03*
X84Y2078D03*
X284Y2078D03*
X484Y2078D03*
X684Y2078D03*
X884Y2078D03*
X444Y178D03*
X644Y178D03*
X844Y178D03*
X1044Y178D03*
X1844Y2078D03*
X1644Y2078D03*
X1444Y2078D03*
X1244Y2078D03*
X3144Y2078D03*
X3144Y1978D03*
X3144Y1878D03*
X3144Y1778D03*
X3144Y1678D03*
X3144Y1578D03*
X3144Y1478D03*
X3144Y1378D03*
X3144Y1278D03*
X3144Y1178D03*
X3144Y1078D03*
X3144Y978D03*
X3144Y878D03*
X3144Y778D03*
X3144Y678D03*
X3144Y578D03*
X3144Y478D03*
X3144Y378D03*
X2244Y178D03*
G54D12*
X1044Y978D03*
X1044Y878D03*
G54D13*
X1844Y1378D03*
X1844Y1278D03*
G54D14*
X1044Y978D03*
G54D15*
X1844Y1378D03*
G54D16*
X1844Y1347D02*
X1844Y1309D01*
G36*
X3084Y2056D02*
X3084Y2052D01*
X3082Y2052D01*
X3082Y2050D01*
X3080Y2050D01*
X3080Y2046D01*
X3078Y2046D01*
X3078Y2044D01*
X3076Y2044D01*
X3076Y2042D01*
X3072Y2042D01*
X3072Y2040D01*
X3070Y2040D01*
X3070Y2038D01*
X3066Y2038D01*
X3066Y2018D01*
X3068Y2018D01*
X3068Y2016D01*
X3072Y2016D01*
X3072Y2014D01*
X3074Y2014D01*
X3074Y2012D01*
X3076Y2012D01*
X3076Y2010D01*
X3078Y2010D01*
X3078Y2008D01*
X3080Y2008D01*
X3080Y2006D01*
X3082Y2006D01*
X3082Y2004D01*
X3084Y2004D01*
X3084Y2000D01*
X3104Y2000D01*
X3104Y2002D01*
X3106Y2002D01*
X3106Y2004D01*
X3108Y2004D01*
X3108Y2008D01*
X3110Y2008D01*
X3110Y2010D01*
X3112Y2010D01*
X3112Y2012D01*
X3114Y2012D01*
X3114Y2014D01*
X3118Y2014D01*
X3118Y2016D01*
X3120Y2016D01*
X3120Y2018D01*
X3122Y2018D01*
X3122Y2038D01*
X3118Y2038D01*
X3118Y2040D01*
X3116Y2040D01*
X3116Y2042D01*
X3114Y2042D01*
X3114Y2044D01*
X3112Y2044D01*
X3112Y2046D01*
X3110Y2046D01*
X3110Y2048D01*
X3108Y2048D01*
X3108Y2050D01*
X3106Y2050D01*
X3106Y2054D01*
X3104Y2054D01*
X3104Y2056D01*
X3084Y2056D01*
G37*
D02*
G36*
X40Y2182D02*
X40Y2124D01*
X3154Y2124D01*
X3154Y2122D01*
X3160Y2122D01*
X3160Y2120D01*
X3164Y2120D01*
X3164Y2118D01*
X3168Y2118D01*
X3168Y2116D01*
X3172Y2116D01*
X3172Y2114D01*
X3174Y2114D01*
X3174Y2112D01*
X3176Y2112D01*
X3176Y2110D01*
X3178Y2110D01*
X3178Y2108D01*
X3180Y2108D01*
X3180Y2106D01*
X3182Y2106D01*
X3182Y2104D01*
X3184Y2104D01*
X3184Y2100D01*
X3186Y2100D01*
X3186Y2096D01*
X3188Y2096D01*
X3188Y2090D01*
X3190Y2090D01*
X3190Y2066D01*
X3188Y2066D01*
X3188Y2060D01*
X3186Y2060D01*
X3186Y2056D01*
X3184Y2056D01*
X3184Y2052D01*
X3182Y2052D01*
X3182Y2050D01*
X3180Y2050D01*
X3180Y2046D01*
X3178Y2046D01*
X3178Y2044D01*
X3176Y2044D01*
X3176Y2042D01*
X3172Y2042D01*
X3172Y2040D01*
X3170Y2040D01*
X3170Y2038D01*
X3166Y2038D01*
X3166Y2018D01*
X3168Y2018D01*
X3168Y2016D01*
X3172Y2016D01*
X3172Y2014D01*
X3174Y2014D01*
X3174Y2012D01*
X3176Y2012D01*
X3176Y2010D01*
X3178Y2010D01*
X3178Y2008D01*
X3180Y2008D01*
X3180Y2006D01*
X3182Y2006D01*
X3182Y2004D01*
X3184Y2004D01*
X3184Y2000D01*
X3186Y2000D01*
X3186Y1996D01*
X3188Y1996D01*
X3188Y1990D01*
X3190Y1990D01*
X3190Y1966D01*
X3188Y1966D01*
X3188Y1960D01*
X3186Y1960D01*
X3186Y1956D01*
X3184Y1956D01*
X3184Y1952D01*
X3182Y1952D01*
X3182Y1950D01*
X3180Y1950D01*
X3180Y1946D01*
X3178Y1946D01*
X3178Y1944D01*
X3176Y1944D01*
X3176Y1942D01*
X3172Y1942D01*
X3172Y1940D01*
X3170Y1940D01*
X3170Y1938D01*
X3166Y1938D01*
X3166Y1918D01*
X3168Y1918D01*
X3168Y1916D01*
X3172Y1916D01*
X3172Y1914D01*
X3174Y1914D01*
X3174Y1912D01*
X3176Y1912D01*
X3176Y1910D01*
X3178Y1910D01*
X3178Y1908D01*
X3180Y1908D01*
X3180Y1906D01*
X3182Y1906D01*
X3182Y1904D01*
X3184Y1904D01*
X3184Y1900D01*
X3186Y1900D01*
X3186Y1896D01*
X3188Y1896D01*
X3188Y1890D01*
X3190Y1890D01*
X3190Y1866D01*
X3188Y1866D01*
X3188Y1860D01*
X3186Y1860D01*
X3186Y1856D01*
X3184Y1856D01*
X3184Y1852D01*
X3182Y1852D01*
X3182Y1850D01*
X3180Y1850D01*
X3180Y1846D01*
X3178Y1846D01*
X3178Y1844D01*
X3176Y1844D01*
X3176Y1842D01*
X3172Y1842D01*
X3172Y1840D01*
X3170Y1840D01*
X3170Y1838D01*
X3166Y1838D01*
X3166Y1818D01*
X3168Y1818D01*
X3168Y1816D01*
X3172Y1816D01*
X3172Y1814D01*
X3174Y1814D01*
X3174Y1812D01*
X3176Y1812D01*
X3176Y1810D01*
X3178Y1810D01*
X3178Y1808D01*
X3180Y1808D01*
X3180Y1806D01*
X3182Y1806D01*
X3182Y1804D01*
X3184Y1804D01*
X3184Y1800D01*
X3186Y1800D01*
X3186Y1796D01*
X3188Y1796D01*
X3188Y1790D01*
X3190Y1790D01*
X3190Y1766D01*
X3188Y1766D01*
X3188Y1760D01*
X3186Y1760D01*
X3186Y1756D01*
X3184Y1756D01*
X3184Y1752D01*
X3182Y1752D01*
X3182Y1750D01*
X3180Y1750D01*
X3180Y1746D01*
X3178Y1746D01*
X3178Y1744D01*
X3176Y1744D01*
X3176Y1742D01*
X3172Y1742D01*
X3172Y1740D01*
X3170Y1740D01*
X3170Y1738D01*
X3166Y1738D01*
X3166Y1718D01*
X3168Y1718D01*
X3168Y1716D01*
X3172Y1716D01*
X3172Y1714D01*
X3174Y1714D01*
X3174Y1712D01*
X3176Y1712D01*
X3176Y1710D01*
X3178Y1710D01*
X3178Y1708D01*
X3180Y1708D01*
X3180Y1706D01*
X3182Y1706D01*
X3182Y1704D01*
X3184Y1704D01*
X3184Y1700D01*
X3186Y1700D01*
X3186Y1696D01*
X3188Y1696D01*
X3188Y1690D01*
X3190Y1690D01*
X3190Y1666D01*
X3188Y1666D01*
X3188Y1660D01*
X3186Y1660D01*
X3186Y1656D01*
X3184Y1656D01*
X3184Y1652D01*
X3182Y1652D01*
X3182Y1650D01*
X3180Y1650D01*
X3180Y1646D01*
X3178Y1646D01*
X3178Y1644D01*
X3176Y1644D01*
X3176Y1642D01*
X3172Y1642D01*
X3172Y1640D01*
X3170Y1640D01*
X3170Y1638D01*
X3166Y1638D01*
X3166Y1618D01*
X3168Y1618D01*
X3168Y1616D01*
X3172Y1616D01*
X3172Y1614D01*
X3174Y1614D01*
X3174Y1612D01*
X3176Y1612D01*
X3176Y1610D01*
X3178Y1610D01*
X3178Y1608D01*
X3180Y1608D01*
X3180Y1606D01*
X3182Y1606D01*
X3182Y1604D01*
X3184Y1604D01*
X3184Y1600D01*
X3186Y1600D01*
X3186Y1596D01*
X3188Y1596D01*
X3188Y1590D01*
X3190Y1590D01*
X3190Y1566D01*
X3188Y1566D01*
X3188Y1560D01*
X3186Y1560D01*
X3186Y1556D01*
X3184Y1556D01*
X3184Y1552D01*
X3182Y1552D01*
X3182Y1550D01*
X3180Y1550D01*
X3180Y1546D01*
X3178Y1546D01*
X3178Y1544D01*
X3176Y1544D01*
X3176Y1542D01*
X3172Y1542D01*
X3172Y1540D01*
X3170Y1540D01*
X3170Y1538D01*
X3166Y1538D01*
X3166Y1518D01*
X3168Y1518D01*
X3168Y1516D01*
X3172Y1516D01*
X3172Y1514D01*
X3174Y1514D01*
X3174Y1512D01*
X3176Y1512D01*
X3176Y1510D01*
X3178Y1510D01*
X3178Y1508D01*
X3180Y1508D01*
X3180Y1506D01*
X3182Y1506D01*
X3182Y1504D01*
X3184Y1504D01*
X3184Y1500D01*
X3186Y1500D01*
X3186Y1496D01*
X3188Y1496D01*
X3188Y1490D01*
X3190Y1490D01*
X3190Y1466D01*
X3188Y1466D01*
X3188Y1460D01*
X3186Y1460D01*
X3186Y1456D01*
X3184Y1456D01*
X3184Y1452D01*
X3182Y1452D01*
X3182Y1450D01*
X3180Y1450D01*
X3180Y1446D01*
X3178Y1446D01*
X3178Y1444D01*
X3176Y1444D01*
X3176Y1442D01*
X3172Y1442D01*
X3172Y1440D01*
X3170Y1440D01*
X3170Y1438D01*
X3166Y1438D01*
X3166Y1418D01*
X3168Y1418D01*
X3168Y1416D01*
X3172Y1416D01*
X3172Y1414D01*
X3174Y1414D01*
X3174Y1412D01*
X3176Y1412D01*
X3176Y1410D01*
X3178Y1410D01*
X3178Y1408D01*
X3180Y1408D01*
X3180Y1406D01*
X3182Y1406D01*
X3182Y1404D01*
X3184Y1404D01*
X3184Y1400D01*
X3186Y1400D01*
X3186Y1396D01*
X3188Y1396D01*
X3188Y1390D01*
X3190Y1390D01*
X3190Y1366D01*
X3188Y1366D01*
X3188Y1360D01*
X3186Y1360D01*
X3186Y1356D01*
X3184Y1356D01*
X3184Y1352D01*
X3182Y1352D01*
X3182Y1350D01*
X3180Y1350D01*
X3180Y1346D01*
X3178Y1346D01*
X3178Y1344D01*
X3176Y1344D01*
X3176Y1342D01*
X3172Y1342D01*
X3172Y1340D01*
X3170Y1340D01*
X3170Y1338D01*
X3166Y1338D01*
X3166Y1318D01*
X3168Y1318D01*
X3168Y1316D01*
X3172Y1316D01*
X3172Y1314D01*
X3174Y1314D01*
X3174Y1312D01*
X3176Y1312D01*
X3176Y1310D01*
X3178Y1310D01*
X3178Y1308D01*
X3180Y1308D01*
X3180Y1306D01*
X3182Y1306D01*
X3182Y1304D01*
X3184Y1304D01*
X3184Y1300D01*
X3186Y1300D01*
X3186Y1296D01*
X3188Y1296D01*
X3188Y1290D01*
X3190Y1290D01*
X3190Y1266D01*
X3188Y1266D01*
X3188Y1260D01*
X3186Y1260D01*
X3186Y1256D01*
X3184Y1256D01*
X3184Y1252D01*
X3182Y1252D01*
X3182Y1250D01*
X3180Y1250D01*
X3180Y1246D01*
X3178Y1246D01*
X3178Y1244D01*
X3176Y1244D01*
X3176Y1242D01*
X3172Y1242D01*
X3172Y1240D01*
X3170Y1240D01*
X3170Y1238D01*
X3166Y1238D01*
X3166Y1218D01*
X3168Y1218D01*
X3168Y1216D01*
X3172Y1216D01*
X3172Y1214D01*
X3174Y1214D01*
X3174Y1212D01*
X3176Y1212D01*
X3176Y1210D01*
X3178Y1210D01*
X3178Y1208D01*
X3180Y1208D01*
X3180Y1206D01*
X3182Y1206D01*
X3182Y1204D01*
X3184Y1204D01*
X3184Y1200D01*
X3186Y1200D01*
X3186Y1196D01*
X3188Y1196D01*
X3188Y1190D01*
X3190Y1190D01*
X3190Y1166D01*
X3188Y1166D01*
X3188Y1160D01*
X3186Y1160D01*
X3186Y1156D01*
X3184Y1156D01*
X3184Y1152D01*
X3182Y1152D01*
X3182Y1150D01*
X3180Y1150D01*
X3180Y1146D01*
X3178Y1146D01*
X3178Y1144D01*
X3176Y1144D01*
X3176Y1142D01*
X3172Y1142D01*
X3172Y1140D01*
X3170Y1140D01*
X3170Y1138D01*
X3166Y1138D01*
X3166Y1118D01*
X3168Y1118D01*
X3168Y1116D01*
X3172Y1116D01*
X3172Y1114D01*
X3174Y1114D01*
X3174Y1112D01*
X3176Y1112D01*
X3176Y1110D01*
X3178Y1110D01*
X3178Y1108D01*
X3180Y1108D01*
X3180Y1106D01*
X3182Y1106D01*
X3182Y1104D01*
X3184Y1104D01*
X3184Y1100D01*
X3186Y1100D01*
X3186Y1096D01*
X3188Y1096D01*
X3188Y1090D01*
X3190Y1090D01*
X3190Y1066D01*
X3188Y1066D01*
X3188Y1060D01*
X3186Y1060D01*
X3186Y1056D01*
X3184Y1056D01*
X3184Y1052D01*
X3182Y1052D01*
X3182Y1050D01*
X3180Y1050D01*
X3180Y1046D01*
X3178Y1046D01*
X3178Y1044D01*
X3176Y1044D01*
X3176Y1042D01*
X3172Y1042D01*
X3172Y1040D01*
X3170Y1040D01*
X3170Y1038D01*
X3166Y1038D01*
X3166Y1018D01*
X3168Y1018D01*
X3168Y1016D01*
X3172Y1016D01*
X3172Y1014D01*
X3174Y1014D01*
X3174Y1012D01*
X3176Y1012D01*
X3176Y1010D01*
X3178Y1010D01*
X3178Y1008D01*
X3180Y1008D01*
X3180Y1006D01*
X3182Y1006D01*
X3182Y1004D01*
X3184Y1004D01*
X3184Y1000D01*
X3186Y1000D01*
X3186Y996D01*
X3188Y996D01*
X3188Y990D01*
X3190Y990D01*
X3190Y966D01*
X3188Y966D01*
X3188Y960D01*
X3186Y960D01*
X3186Y956D01*
X3184Y956D01*
X3184Y952D01*
X3182Y952D01*
X3182Y950D01*
X3180Y950D01*
X3180Y946D01*
X3178Y946D01*
X3178Y944D01*
X3176Y944D01*
X3176Y942D01*
X3172Y942D01*
X3172Y940D01*
X3170Y940D01*
X3170Y938D01*
X3166Y938D01*
X3166Y918D01*
X3168Y918D01*
X3168Y916D01*
X3172Y916D01*
X3172Y914D01*
X3174Y914D01*
X3174Y912D01*
X3176Y912D01*
X3176Y910D01*
X3178Y910D01*
X3178Y908D01*
X3180Y908D01*
X3180Y906D01*
X3182Y906D01*
X3182Y904D01*
X3184Y904D01*
X3184Y900D01*
X3186Y900D01*
X3186Y896D01*
X3188Y896D01*
X3188Y890D01*
X3190Y890D01*
X3190Y866D01*
X3188Y866D01*
X3188Y860D01*
X3186Y860D01*
X3186Y856D01*
X3184Y856D01*
X3184Y852D01*
X3182Y852D01*
X3182Y850D01*
X3180Y850D01*
X3180Y846D01*
X3178Y846D01*
X3178Y844D01*
X3176Y844D01*
X3176Y842D01*
X3172Y842D01*
X3172Y840D01*
X3170Y840D01*
X3170Y838D01*
X3166Y838D01*
X3166Y818D01*
X3168Y818D01*
X3168Y816D01*
X3172Y816D01*
X3172Y814D01*
X3174Y814D01*
X3174Y812D01*
X3176Y812D01*
X3176Y810D01*
X3178Y810D01*
X3178Y808D01*
X3180Y808D01*
X3180Y806D01*
X3182Y806D01*
X3182Y804D01*
X3184Y804D01*
X3184Y800D01*
X3186Y800D01*
X3186Y796D01*
X3188Y796D01*
X3188Y790D01*
X3190Y790D01*
X3190Y766D01*
X3188Y766D01*
X3188Y760D01*
X3186Y760D01*
X3186Y756D01*
X3184Y756D01*
X3184Y752D01*
X3182Y752D01*
X3182Y750D01*
X3180Y750D01*
X3180Y746D01*
X3178Y746D01*
X3178Y744D01*
X3176Y744D01*
X3176Y742D01*
X3172Y742D01*
X3172Y740D01*
X3170Y740D01*
X3170Y738D01*
X3166Y738D01*
X3166Y718D01*
X3168Y718D01*
X3168Y716D01*
X3172Y716D01*
X3172Y714D01*
X3174Y714D01*
X3174Y712D01*
X3176Y712D01*
X3176Y710D01*
X3178Y710D01*
X3178Y708D01*
X3180Y708D01*
X3180Y706D01*
X3182Y706D01*
X3182Y704D01*
X3184Y704D01*
X3184Y700D01*
X3186Y700D01*
X3186Y696D01*
X3188Y696D01*
X3188Y690D01*
X3190Y690D01*
X3190Y666D01*
X3188Y666D01*
X3188Y660D01*
X3186Y660D01*
X3186Y656D01*
X3184Y656D01*
X3184Y652D01*
X3182Y652D01*
X3182Y650D01*
X3180Y650D01*
X3180Y646D01*
X3178Y646D01*
X3178Y644D01*
X3176Y644D01*
X3176Y642D01*
X3172Y642D01*
X3172Y640D01*
X3170Y640D01*
X3170Y638D01*
X3166Y638D01*
X3166Y618D01*
X3168Y618D01*
X3168Y616D01*
X3172Y616D01*
X3172Y614D01*
X3174Y614D01*
X3174Y612D01*
X3176Y612D01*
X3176Y610D01*
X3178Y610D01*
X3178Y608D01*
X3180Y608D01*
X3180Y606D01*
X3182Y606D01*
X3182Y604D01*
X3184Y604D01*
X3184Y600D01*
X3186Y600D01*
X3186Y596D01*
X3188Y596D01*
X3188Y590D01*
X3190Y590D01*
X3190Y566D01*
X3188Y566D01*
X3188Y560D01*
X3186Y560D01*
X3186Y556D01*
X3184Y556D01*
X3184Y552D01*
X3182Y552D01*
X3182Y550D01*
X3180Y550D01*
X3180Y546D01*
X3178Y546D01*
X3178Y544D01*
X3176Y544D01*
X3176Y542D01*
X3172Y542D01*
X3172Y540D01*
X3170Y540D01*
X3170Y538D01*
X3166Y538D01*
X3166Y518D01*
X3168Y518D01*
X3168Y516D01*
X3172Y516D01*
X3172Y514D01*
X3174Y514D01*
X3174Y512D01*
X3176Y512D01*
X3176Y510D01*
X3178Y510D01*
X3178Y508D01*
X3180Y508D01*
X3180Y506D01*
X3182Y506D01*
X3182Y504D01*
X3184Y504D01*
X3184Y500D01*
X3186Y500D01*
X3186Y496D01*
X3188Y496D01*
X3188Y490D01*
X3190Y490D01*
X3190Y466D01*
X3188Y466D01*
X3188Y460D01*
X3186Y460D01*
X3186Y456D01*
X3184Y456D01*
X3184Y452D01*
X3182Y452D01*
X3182Y450D01*
X3180Y450D01*
X3180Y446D01*
X3178Y446D01*
X3178Y444D01*
X3176Y444D01*
X3176Y442D01*
X3172Y442D01*
X3172Y440D01*
X3170Y440D01*
X3170Y438D01*
X3166Y438D01*
X3166Y418D01*
X3168Y418D01*
X3168Y416D01*
X3172Y416D01*
X3172Y414D01*
X3174Y414D01*
X3174Y412D01*
X3176Y412D01*
X3176Y410D01*
X3178Y410D01*
X3178Y408D01*
X3180Y408D01*
X3180Y406D01*
X3182Y406D01*
X3182Y404D01*
X3184Y404D01*
X3184Y400D01*
X3186Y400D01*
X3186Y396D01*
X3188Y396D01*
X3188Y390D01*
X3190Y390D01*
X3190Y366D01*
X3188Y366D01*
X3188Y360D01*
X3186Y360D01*
X3186Y356D01*
X3184Y356D01*
X3184Y352D01*
X3182Y352D01*
X3182Y350D01*
X3180Y350D01*
X3180Y346D01*
X3178Y346D01*
X3178Y344D01*
X3176Y344D01*
X3176Y342D01*
X3172Y342D01*
X3172Y340D01*
X3170Y340D01*
X3170Y338D01*
X3166Y338D01*
X3166Y336D01*
X3162Y336D01*
X3162Y334D01*
X3156Y334D01*
X3156Y332D01*
X3292Y332D01*
X3292Y2182D01*
X40Y2182D01*
G37*
D02*
G36*
X40Y2124D02*
X40Y2116D01*
X60Y2116D01*
X60Y2118D01*
X64Y2118D01*
X64Y2120D01*
X68Y2120D01*
X68Y2122D01*
X76Y2122D01*
X76Y2124D01*
X40Y2124D01*
G37*
D02*
G36*
X94Y2124D02*
X94Y2122D01*
X100Y2122D01*
X100Y2120D01*
X104Y2120D01*
X104Y2118D01*
X108Y2118D01*
X108Y2116D01*
X112Y2116D01*
X112Y2114D01*
X114Y2114D01*
X114Y2112D01*
X116Y2112D01*
X116Y2110D01*
X118Y2110D01*
X118Y2108D01*
X120Y2108D01*
X120Y2106D01*
X122Y2106D01*
X122Y2104D01*
X124Y2104D01*
X124Y2100D01*
X144Y2100D01*
X144Y2102D01*
X146Y2102D01*
X146Y2104D01*
X148Y2104D01*
X148Y2108D01*
X150Y2108D01*
X150Y2110D01*
X152Y2110D01*
X152Y2112D01*
X154Y2112D01*
X154Y2114D01*
X158Y2114D01*
X158Y2116D01*
X160Y2116D01*
X160Y2118D01*
X164Y2118D01*
X164Y2120D01*
X168Y2120D01*
X168Y2122D01*
X176Y2122D01*
X176Y2124D01*
X94Y2124D01*
G37*
D02*
G36*
X194Y2124D02*
X194Y2122D01*
X200Y2122D01*
X200Y2120D01*
X204Y2120D01*
X204Y2118D01*
X208Y2118D01*
X208Y2116D01*
X212Y2116D01*
X212Y2114D01*
X214Y2114D01*
X214Y2112D01*
X216Y2112D01*
X216Y2110D01*
X218Y2110D01*
X218Y2108D01*
X220Y2108D01*
X220Y2106D01*
X222Y2106D01*
X222Y2104D01*
X224Y2104D01*
X224Y2100D01*
X244Y2100D01*
X244Y2102D01*
X246Y2102D01*
X246Y2104D01*
X248Y2104D01*
X248Y2108D01*
X250Y2108D01*
X250Y2110D01*
X252Y2110D01*
X252Y2112D01*
X254Y2112D01*
X254Y2114D01*
X258Y2114D01*
X258Y2116D01*
X260Y2116D01*
X260Y2118D01*
X264Y2118D01*
X264Y2120D01*
X268Y2120D01*
X268Y2122D01*
X276Y2122D01*
X276Y2124D01*
X194Y2124D01*
G37*
D02*
G36*
X294Y2124D02*
X294Y2122D01*
X300Y2122D01*
X300Y2120D01*
X304Y2120D01*
X304Y2118D01*
X308Y2118D01*
X308Y2116D01*
X312Y2116D01*
X312Y2114D01*
X314Y2114D01*
X314Y2112D01*
X316Y2112D01*
X316Y2110D01*
X318Y2110D01*
X318Y2108D01*
X320Y2108D01*
X320Y2106D01*
X322Y2106D01*
X322Y2104D01*
X324Y2104D01*
X324Y2100D01*
X344Y2100D01*
X344Y2102D01*
X346Y2102D01*
X346Y2104D01*
X348Y2104D01*
X348Y2108D01*
X350Y2108D01*
X350Y2110D01*
X352Y2110D01*
X352Y2112D01*
X354Y2112D01*
X354Y2114D01*
X358Y2114D01*
X358Y2116D01*
X360Y2116D01*
X360Y2118D01*
X364Y2118D01*
X364Y2120D01*
X368Y2120D01*
X368Y2122D01*
X376Y2122D01*
X376Y2124D01*
X294Y2124D01*
G37*
D02*
G36*
X394Y2124D02*
X394Y2122D01*
X400Y2122D01*
X400Y2120D01*
X404Y2120D01*
X404Y2118D01*
X408Y2118D01*
X408Y2116D01*
X412Y2116D01*
X412Y2114D01*
X414Y2114D01*
X414Y2112D01*
X416Y2112D01*
X416Y2110D01*
X418Y2110D01*
X418Y2108D01*
X420Y2108D01*
X420Y2106D01*
X422Y2106D01*
X422Y2104D01*
X424Y2104D01*
X424Y2100D01*
X444Y2100D01*
X444Y2102D01*
X446Y2102D01*
X446Y2104D01*
X448Y2104D01*
X448Y2108D01*
X450Y2108D01*
X450Y2110D01*
X452Y2110D01*
X452Y2112D01*
X454Y2112D01*
X454Y2114D01*
X458Y2114D01*
X458Y2116D01*
X460Y2116D01*
X460Y2118D01*
X464Y2118D01*
X464Y2120D01*
X468Y2120D01*
X468Y2122D01*
X476Y2122D01*
X476Y2124D01*
X394Y2124D01*
G37*
D02*
G36*
X494Y2124D02*
X494Y2122D01*
X500Y2122D01*
X500Y2120D01*
X504Y2120D01*
X504Y2118D01*
X508Y2118D01*
X508Y2116D01*
X512Y2116D01*
X512Y2114D01*
X514Y2114D01*
X514Y2112D01*
X516Y2112D01*
X516Y2110D01*
X518Y2110D01*
X518Y2108D01*
X520Y2108D01*
X520Y2106D01*
X522Y2106D01*
X522Y2104D01*
X524Y2104D01*
X524Y2100D01*
X544Y2100D01*
X544Y2102D01*
X546Y2102D01*
X546Y2104D01*
X548Y2104D01*
X548Y2108D01*
X550Y2108D01*
X550Y2110D01*
X552Y2110D01*
X552Y2112D01*
X554Y2112D01*
X554Y2114D01*
X558Y2114D01*
X558Y2116D01*
X560Y2116D01*
X560Y2118D01*
X564Y2118D01*
X564Y2120D01*
X568Y2120D01*
X568Y2122D01*
X576Y2122D01*
X576Y2124D01*
X494Y2124D01*
G37*
D02*
G36*
X594Y2124D02*
X594Y2122D01*
X600Y2122D01*
X600Y2120D01*
X604Y2120D01*
X604Y2118D01*
X608Y2118D01*
X608Y2116D01*
X612Y2116D01*
X612Y2114D01*
X614Y2114D01*
X614Y2112D01*
X616Y2112D01*
X616Y2110D01*
X618Y2110D01*
X618Y2108D01*
X620Y2108D01*
X620Y2106D01*
X622Y2106D01*
X622Y2104D01*
X624Y2104D01*
X624Y2100D01*
X644Y2100D01*
X644Y2102D01*
X646Y2102D01*
X646Y2104D01*
X648Y2104D01*
X648Y2108D01*
X650Y2108D01*
X650Y2110D01*
X652Y2110D01*
X652Y2112D01*
X654Y2112D01*
X654Y2114D01*
X658Y2114D01*
X658Y2116D01*
X660Y2116D01*
X660Y2118D01*
X664Y2118D01*
X664Y2120D01*
X668Y2120D01*
X668Y2122D01*
X676Y2122D01*
X676Y2124D01*
X594Y2124D01*
G37*
D02*
G36*
X694Y2124D02*
X694Y2122D01*
X700Y2122D01*
X700Y2120D01*
X704Y2120D01*
X704Y2118D01*
X708Y2118D01*
X708Y2116D01*
X712Y2116D01*
X712Y2114D01*
X714Y2114D01*
X714Y2112D01*
X716Y2112D01*
X716Y2110D01*
X718Y2110D01*
X718Y2108D01*
X720Y2108D01*
X720Y2106D01*
X722Y2106D01*
X722Y2104D01*
X724Y2104D01*
X724Y2100D01*
X744Y2100D01*
X744Y2102D01*
X746Y2102D01*
X746Y2104D01*
X748Y2104D01*
X748Y2108D01*
X750Y2108D01*
X750Y2110D01*
X752Y2110D01*
X752Y2112D01*
X754Y2112D01*
X754Y2114D01*
X758Y2114D01*
X758Y2116D01*
X760Y2116D01*
X760Y2118D01*
X764Y2118D01*
X764Y2120D01*
X768Y2120D01*
X768Y2122D01*
X776Y2122D01*
X776Y2124D01*
X694Y2124D01*
G37*
D02*
G36*
X794Y2124D02*
X794Y2122D01*
X800Y2122D01*
X800Y2120D01*
X804Y2120D01*
X804Y2118D01*
X808Y2118D01*
X808Y2116D01*
X812Y2116D01*
X812Y2114D01*
X814Y2114D01*
X814Y2112D01*
X816Y2112D01*
X816Y2110D01*
X818Y2110D01*
X818Y2108D01*
X820Y2108D01*
X820Y2106D01*
X822Y2106D01*
X822Y2104D01*
X824Y2104D01*
X824Y2100D01*
X844Y2100D01*
X844Y2102D01*
X846Y2102D01*
X846Y2104D01*
X848Y2104D01*
X848Y2108D01*
X850Y2108D01*
X850Y2110D01*
X852Y2110D01*
X852Y2112D01*
X854Y2112D01*
X854Y2114D01*
X858Y2114D01*
X858Y2116D01*
X860Y2116D01*
X860Y2118D01*
X864Y2118D01*
X864Y2120D01*
X868Y2120D01*
X868Y2122D01*
X876Y2122D01*
X876Y2124D01*
X794Y2124D01*
G37*
D02*
G36*
X894Y2124D02*
X894Y2122D01*
X900Y2122D01*
X900Y2120D01*
X904Y2120D01*
X904Y2118D01*
X908Y2118D01*
X908Y2116D01*
X912Y2116D01*
X912Y2114D01*
X914Y2114D01*
X914Y2112D01*
X916Y2112D01*
X916Y2110D01*
X918Y2110D01*
X918Y2108D01*
X920Y2108D01*
X920Y2106D01*
X922Y2106D01*
X922Y2104D01*
X924Y2104D01*
X924Y2100D01*
X944Y2100D01*
X944Y2102D01*
X946Y2102D01*
X946Y2104D01*
X948Y2104D01*
X948Y2108D01*
X950Y2108D01*
X950Y2110D01*
X952Y2110D01*
X952Y2112D01*
X954Y2112D01*
X954Y2114D01*
X958Y2114D01*
X958Y2116D01*
X960Y2116D01*
X960Y2118D01*
X964Y2118D01*
X964Y2120D01*
X968Y2120D01*
X968Y2122D01*
X976Y2122D01*
X976Y2124D01*
X894Y2124D01*
G37*
D02*
G36*
X994Y2124D02*
X994Y2122D01*
X1000Y2122D01*
X1000Y2120D01*
X1004Y2120D01*
X1004Y2118D01*
X1008Y2118D01*
X1008Y2116D01*
X1012Y2116D01*
X1012Y2114D01*
X1014Y2114D01*
X1014Y2112D01*
X1016Y2112D01*
X1016Y2110D01*
X1018Y2110D01*
X1018Y2108D01*
X1020Y2108D01*
X1020Y2106D01*
X1022Y2106D01*
X1022Y2104D01*
X1024Y2104D01*
X1024Y2100D01*
X1026Y2100D01*
X1026Y2096D01*
X1028Y2096D01*
X1028Y2090D01*
X1030Y2090D01*
X1030Y2066D01*
X1028Y2066D01*
X1028Y2060D01*
X1026Y2060D01*
X1026Y2056D01*
X1024Y2056D01*
X1024Y2052D01*
X1022Y2052D01*
X1022Y2050D01*
X1020Y2050D01*
X1020Y2046D01*
X1018Y2046D01*
X1018Y2044D01*
X1016Y2044D01*
X1016Y2042D01*
X1012Y2042D01*
X1012Y2040D01*
X1010Y2040D01*
X1010Y2038D01*
X1006Y2038D01*
X1006Y2036D01*
X1002Y2036D01*
X1002Y2034D01*
X996Y2034D01*
X996Y2032D01*
X1132Y2032D01*
X1132Y2034D01*
X1126Y2034D01*
X1126Y2036D01*
X1122Y2036D01*
X1122Y2038D01*
X1118Y2038D01*
X1118Y2040D01*
X1116Y2040D01*
X1116Y2042D01*
X1114Y2042D01*
X1114Y2044D01*
X1112Y2044D01*
X1112Y2046D01*
X1110Y2046D01*
X1110Y2048D01*
X1108Y2048D01*
X1108Y2050D01*
X1106Y2050D01*
X1106Y2054D01*
X1104Y2054D01*
X1104Y2058D01*
X1102Y2058D01*
X1102Y2062D01*
X1100Y2062D01*
X1100Y2068D01*
X1098Y2068D01*
X1098Y2086D01*
X1100Y2086D01*
X1100Y2094D01*
X1102Y2094D01*
X1102Y2098D01*
X1104Y2098D01*
X1104Y2102D01*
X1106Y2102D01*
X1106Y2104D01*
X1108Y2104D01*
X1108Y2108D01*
X1110Y2108D01*
X1110Y2110D01*
X1112Y2110D01*
X1112Y2112D01*
X1114Y2112D01*
X1114Y2114D01*
X1118Y2114D01*
X1118Y2116D01*
X1120Y2116D01*
X1120Y2118D01*
X1124Y2118D01*
X1124Y2120D01*
X1128Y2120D01*
X1128Y2122D01*
X1136Y2122D01*
X1136Y2124D01*
X994Y2124D01*
G37*
D02*
G36*
X1154Y2124D02*
X1154Y2122D01*
X1160Y2122D01*
X1160Y2120D01*
X1164Y2120D01*
X1164Y2118D01*
X1168Y2118D01*
X1168Y2116D01*
X1172Y2116D01*
X1172Y2114D01*
X1174Y2114D01*
X1174Y2112D01*
X1176Y2112D01*
X1176Y2110D01*
X1178Y2110D01*
X1178Y2108D01*
X1180Y2108D01*
X1180Y2106D01*
X1182Y2106D01*
X1182Y2104D01*
X1184Y2104D01*
X1184Y2100D01*
X1204Y2100D01*
X1204Y2102D01*
X1206Y2102D01*
X1206Y2104D01*
X1208Y2104D01*
X1208Y2108D01*
X1210Y2108D01*
X1210Y2110D01*
X1212Y2110D01*
X1212Y2112D01*
X1214Y2112D01*
X1214Y2114D01*
X1218Y2114D01*
X1218Y2116D01*
X1220Y2116D01*
X1220Y2118D01*
X1224Y2118D01*
X1224Y2120D01*
X1228Y2120D01*
X1228Y2122D01*
X1236Y2122D01*
X1236Y2124D01*
X1154Y2124D01*
G37*
D02*
G36*
X1254Y2124D02*
X1254Y2122D01*
X1260Y2122D01*
X1260Y2120D01*
X1264Y2120D01*
X1264Y2118D01*
X1268Y2118D01*
X1268Y2116D01*
X1272Y2116D01*
X1272Y2114D01*
X1274Y2114D01*
X1274Y2112D01*
X1276Y2112D01*
X1276Y2110D01*
X1278Y2110D01*
X1278Y2108D01*
X1280Y2108D01*
X1280Y2106D01*
X1282Y2106D01*
X1282Y2104D01*
X1284Y2104D01*
X1284Y2100D01*
X1304Y2100D01*
X1304Y2102D01*
X1306Y2102D01*
X1306Y2104D01*
X1308Y2104D01*
X1308Y2108D01*
X1310Y2108D01*
X1310Y2110D01*
X1312Y2110D01*
X1312Y2112D01*
X1314Y2112D01*
X1314Y2114D01*
X1318Y2114D01*
X1318Y2116D01*
X1320Y2116D01*
X1320Y2118D01*
X1324Y2118D01*
X1324Y2120D01*
X1328Y2120D01*
X1328Y2122D01*
X1336Y2122D01*
X1336Y2124D01*
X1254Y2124D01*
G37*
D02*
G36*
X1354Y2124D02*
X1354Y2122D01*
X1360Y2122D01*
X1360Y2120D01*
X1364Y2120D01*
X1364Y2118D01*
X1368Y2118D01*
X1368Y2116D01*
X1372Y2116D01*
X1372Y2114D01*
X1374Y2114D01*
X1374Y2112D01*
X1376Y2112D01*
X1376Y2110D01*
X1378Y2110D01*
X1378Y2108D01*
X1380Y2108D01*
X1380Y2106D01*
X1382Y2106D01*
X1382Y2104D01*
X1384Y2104D01*
X1384Y2100D01*
X1404Y2100D01*
X1404Y2102D01*
X1406Y2102D01*
X1406Y2104D01*
X1408Y2104D01*
X1408Y2108D01*
X1410Y2108D01*
X1410Y2110D01*
X1412Y2110D01*
X1412Y2112D01*
X1414Y2112D01*
X1414Y2114D01*
X1418Y2114D01*
X1418Y2116D01*
X1420Y2116D01*
X1420Y2118D01*
X1424Y2118D01*
X1424Y2120D01*
X1428Y2120D01*
X1428Y2122D01*
X1436Y2122D01*
X1436Y2124D01*
X1354Y2124D01*
G37*
D02*
G36*
X1454Y2124D02*
X1454Y2122D01*
X1460Y2122D01*
X1460Y2120D01*
X1464Y2120D01*
X1464Y2118D01*
X1468Y2118D01*
X1468Y2116D01*
X1472Y2116D01*
X1472Y2114D01*
X1474Y2114D01*
X1474Y2112D01*
X1476Y2112D01*
X1476Y2110D01*
X1478Y2110D01*
X1478Y2108D01*
X1480Y2108D01*
X1480Y2106D01*
X1482Y2106D01*
X1482Y2104D01*
X1484Y2104D01*
X1484Y2100D01*
X1504Y2100D01*
X1504Y2102D01*
X1506Y2102D01*
X1506Y2104D01*
X1508Y2104D01*
X1508Y2108D01*
X1510Y2108D01*
X1510Y2110D01*
X1512Y2110D01*
X1512Y2112D01*
X1514Y2112D01*
X1514Y2114D01*
X1518Y2114D01*
X1518Y2116D01*
X1520Y2116D01*
X1520Y2118D01*
X1524Y2118D01*
X1524Y2120D01*
X1528Y2120D01*
X1528Y2122D01*
X1536Y2122D01*
X1536Y2124D01*
X1454Y2124D01*
G37*
D02*
G36*
X1554Y2124D02*
X1554Y2122D01*
X1560Y2122D01*
X1560Y2120D01*
X1564Y2120D01*
X1564Y2118D01*
X1568Y2118D01*
X1568Y2116D01*
X1572Y2116D01*
X1572Y2114D01*
X1574Y2114D01*
X1574Y2112D01*
X1576Y2112D01*
X1576Y2110D01*
X1578Y2110D01*
X1578Y2108D01*
X1580Y2108D01*
X1580Y2106D01*
X1582Y2106D01*
X1582Y2104D01*
X1584Y2104D01*
X1584Y2100D01*
X1604Y2100D01*
X1604Y2102D01*
X1606Y2102D01*
X1606Y2104D01*
X1608Y2104D01*
X1608Y2108D01*
X1610Y2108D01*
X1610Y2110D01*
X1612Y2110D01*
X1612Y2112D01*
X1614Y2112D01*
X1614Y2114D01*
X1618Y2114D01*
X1618Y2116D01*
X1620Y2116D01*
X1620Y2118D01*
X1624Y2118D01*
X1624Y2120D01*
X1628Y2120D01*
X1628Y2122D01*
X1636Y2122D01*
X1636Y2124D01*
X1554Y2124D01*
G37*
D02*
G36*
X1654Y2124D02*
X1654Y2122D01*
X1660Y2122D01*
X1660Y2120D01*
X1664Y2120D01*
X1664Y2118D01*
X1668Y2118D01*
X1668Y2116D01*
X1672Y2116D01*
X1672Y2114D01*
X1674Y2114D01*
X1674Y2112D01*
X1676Y2112D01*
X1676Y2110D01*
X1678Y2110D01*
X1678Y2108D01*
X1680Y2108D01*
X1680Y2106D01*
X1682Y2106D01*
X1682Y2104D01*
X1684Y2104D01*
X1684Y2100D01*
X1704Y2100D01*
X1704Y2102D01*
X1706Y2102D01*
X1706Y2104D01*
X1708Y2104D01*
X1708Y2108D01*
X1710Y2108D01*
X1710Y2110D01*
X1712Y2110D01*
X1712Y2112D01*
X1714Y2112D01*
X1714Y2114D01*
X1718Y2114D01*
X1718Y2116D01*
X1720Y2116D01*
X1720Y2118D01*
X1724Y2118D01*
X1724Y2120D01*
X1728Y2120D01*
X1728Y2122D01*
X1736Y2122D01*
X1736Y2124D01*
X1654Y2124D01*
G37*
D02*
G36*
X1754Y2124D02*
X1754Y2122D01*
X1760Y2122D01*
X1760Y2120D01*
X1764Y2120D01*
X1764Y2118D01*
X1768Y2118D01*
X1768Y2116D01*
X1772Y2116D01*
X1772Y2114D01*
X1774Y2114D01*
X1774Y2112D01*
X1776Y2112D01*
X1776Y2110D01*
X1778Y2110D01*
X1778Y2108D01*
X1780Y2108D01*
X1780Y2106D01*
X1782Y2106D01*
X1782Y2104D01*
X1784Y2104D01*
X1784Y2100D01*
X1804Y2100D01*
X1804Y2102D01*
X1806Y2102D01*
X1806Y2104D01*
X1808Y2104D01*
X1808Y2108D01*
X1810Y2108D01*
X1810Y2110D01*
X1812Y2110D01*
X1812Y2112D01*
X1814Y2112D01*
X1814Y2114D01*
X1818Y2114D01*
X1818Y2116D01*
X1820Y2116D01*
X1820Y2118D01*
X1824Y2118D01*
X1824Y2120D01*
X1828Y2120D01*
X1828Y2122D01*
X1836Y2122D01*
X1836Y2124D01*
X1754Y2124D01*
G37*
D02*
G36*
X1854Y2124D02*
X1854Y2122D01*
X1860Y2122D01*
X1860Y2120D01*
X1864Y2120D01*
X1864Y2118D01*
X1868Y2118D01*
X1868Y2116D01*
X1872Y2116D01*
X1872Y2114D01*
X1874Y2114D01*
X1874Y2112D01*
X1876Y2112D01*
X1876Y2110D01*
X1878Y2110D01*
X1878Y2108D01*
X1880Y2108D01*
X1880Y2106D01*
X1882Y2106D01*
X1882Y2104D01*
X1884Y2104D01*
X1884Y2100D01*
X1886Y2100D01*
X1886Y2096D01*
X1888Y2096D01*
X1888Y2090D01*
X1890Y2090D01*
X1890Y2066D01*
X1888Y2066D01*
X1888Y2060D01*
X1886Y2060D01*
X1886Y2056D01*
X1884Y2056D01*
X1884Y2052D01*
X1882Y2052D01*
X1882Y2050D01*
X1880Y2050D01*
X1880Y2046D01*
X1878Y2046D01*
X1878Y2044D01*
X1876Y2044D01*
X1876Y2042D01*
X1872Y2042D01*
X1872Y2040D01*
X1870Y2040D01*
X1870Y2038D01*
X1866Y2038D01*
X1866Y2036D01*
X1862Y2036D01*
X1862Y2034D01*
X1856Y2034D01*
X1856Y2032D01*
X2032Y2032D01*
X2032Y2034D01*
X2026Y2034D01*
X2026Y2036D01*
X2022Y2036D01*
X2022Y2038D01*
X2018Y2038D01*
X2018Y2040D01*
X2016Y2040D01*
X2016Y2042D01*
X2014Y2042D01*
X2014Y2044D01*
X2012Y2044D01*
X2012Y2046D01*
X2010Y2046D01*
X2010Y2048D01*
X2008Y2048D01*
X2008Y2050D01*
X2006Y2050D01*
X2006Y2054D01*
X2004Y2054D01*
X2004Y2058D01*
X2002Y2058D01*
X2002Y2062D01*
X2000Y2062D01*
X2000Y2068D01*
X1998Y2068D01*
X1998Y2086D01*
X2000Y2086D01*
X2000Y2094D01*
X2002Y2094D01*
X2002Y2098D01*
X2004Y2098D01*
X2004Y2102D01*
X2006Y2102D01*
X2006Y2104D01*
X2008Y2104D01*
X2008Y2108D01*
X2010Y2108D01*
X2010Y2110D01*
X2012Y2110D01*
X2012Y2112D01*
X2014Y2112D01*
X2014Y2114D01*
X2018Y2114D01*
X2018Y2116D01*
X2020Y2116D01*
X2020Y2118D01*
X2024Y2118D01*
X2024Y2120D01*
X2028Y2120D01*
X2028Y2122D01*
X2036Y2122D01*
X2036Y2124D01*
X1854Y2124D01*
G37*
D02*
G36*
X2054Y2124D02*
X2054Y2122D01*
X2060Y2122D01*
X2060Y2120D01*
X2064Y2120D01*
X2064Y2118D01*
X2068Y2118D01*
X2068Y2116D01*
X2072Y2116D01*
X2072Y2114D01*
X2074Y2114D01*
X2074Y2112D01*
X2076Y2112D01*
X2076Y2110D01*
X2078Y2110D01*
X2078Y2108D01*
X2080Y2108D01*
X2080Y2106D01*
X2082Y2106D01*
X2082Y2104D01*
X2084Y2104D01*
X2084Y2100D01*
X2104Y2100D01*
X2104Y2102D01*
X2106Y2102D01*
X2106Y2104D01*
X2108Y2104D01*
X2108Y2108D01*
X2110Y2108D01*
X2110Y2110D01*
X2112Y2110D01*
X2112Y2112D01*
X2114Y2112D01*
X2114Y2114D01*
X2118Y2114D01*
X2118Y2116D01*
X2120Y2116D01*
X2120Y2118D01*
X2124Y2118D01*
X2124Y2120D01*
X2128Y2120D01*
X2128Y2122D01*
X2136Y2122D01*
X2136Y2124D01*
X2054Y2124D01*
G37*
D02*
G36*
X2154Y2124D02*
X2154Y2122D01*
X2160Y2122D01*
X2160Y2120D01*
X2164Y2120D01*
X2164Y2118D01*
X2168Y2118D01*
X2168Y2116D01*
X2172Y2116D01*
X2172Y2114D01*
X2174Y2114D01*
X2174Y2112D01*
X2176Y2112D01*
X2176Y2110D01*
X2178Y2110D01*
X2178Y2108D01*
X2180Y2108D01*
X2180Y2106D01*
X2182Y2106D01*
X2182Y2104D01*
X2184Y2104D01*
X2184Y2100D01*
X2204Y2100D01*
X2204Y2102D01*
X2206Y2102D01*
X2206Y2104D01*
X2208Y2104D01*
X2208Y2108D01*
X2210Y2108D01*
X2210Y2110D01*
X2212Y2110D01*
X2212Y2112D01*
X2214Y2112D01*
X2214Y2114D01*
X2218Y2114D01*
X2218Y2116D01*
X2220Y2116D01*
X2220Y2118D01*
X2224Y2118D01*
X2224Y2120D01*
X2228Y2120D01*
X2228Y2122D01*
X2236Y2122D01*
X2236Y2124D01*
X2154Y2124D01*
G37*
D02*
G36*
X2254Y2124D02*
X2254Y2122D01*
X2260Y2122D01*
X2260Y2120D01*
X2264Y2120D01*
X2264Y2118D01*
X2268Y2118D01*
X2268Y2116D01*
X2272Y2116D01*
X2272Y2114D01*
X2274Y2114D01*
X2274Y2112D01*
X2276Y2112D01*
X2276Y2110D01*
X2278Y2110D01*
X2278Y2108D01*
X2280Y2108D01*
X2280Y2106D01*
X2282Y2106D01*
X2282Y2104D01*
X2284Y2104D01*
X2284Y2100D01*
X2304Y2100D01*
X2304Y2102D01*
X2306Y2102D01*
X2306Y2104D01*
X2308Y2104D01*
X2308Y2108D01*
X2310Y2108D01*
X2310Y2110D01*
X2312Y2110D01*
X2312Y2112D01*
X2314Y2112D01*
X2314Y2114D01*
X2318Y2114D01*
X2318Y2116D01*
X2320Y2116D01*
X2320Y2118D01*
X2324Y2118D01*
X2324Y2120D01*
X2328Y2120D01*
X2328Y2122D01*
X2336Y2122D01*
X2336Y2124D01*
X2254Y2124D01*
G37*
D02*
G36*
X2354Y2124D02*
X2354Y2122D01*
X2360Y2122D01*
X2360Y2120D01*
X2364Y2120D01*
X2364Y2118D01*
X2368Y2118D01*
X2368Y2116D01*
X2372Y2116D01*
X2372Y2114D01*
X2374Y2114D01*
X2374Y2112D01*
X2376Y2112D01*
X2376Y2110D01*
X2378Y2110D01*
X2378Y2108D01*
X2380Y2108D01*
X2380Y2106D01*
X2382Y2106D01*
X2382Y2104D01*
X2384Y2104D01*
X2384Y2100D01*
X2404Y2100D01*
X2404Y2102D01*
X2406Y2102D01*
X2406Y2104D01*
X2408Y2104D01*
X2408Y2108D01*
X2410Y2108D01*
X2410Y2110D01*
X2412Y2110D01*
X2412Y2112D01*
X2414Y2112D01*
X2414Y2114D01*
X2418Y2114D01*
X2418Y2116D01*
X2420Y2116D01*
X2420Y2118D01*
X2424Y2118D01*
X2424Y2120D01*
X2428Y2120D01*
X2428Y2122D01*
X2436Y2122D01*
X2436Y2124D01*
X2354Y2124D01*
G37*
D02*
G36*
X2454Y2124D02*
X2454Y2122D01*
X2460Y2122D01*
X2460Y2120D01*
X2464Y2120D01*
X2464Y2118D01*
X2468Y2118D01*
X2468Y2116D01*
X2472Y2116D01*
X2472Y2114D01*
X2474Y2114D01*
X2474Y2112D01*
X2476Y2112D01*
X2476Y2110D01*
X2478Y2110D01*
X2478Y2108D01*
X2480Y2108D01*
X2480Y2106D01*
X2482Y2106D01*
X2482Y2104D01*
X2484Y2104D01*
X2484Y2100D01*
X2504Y2100D01*
X2504Y2102D01*
X2506Y2102D01*
X2506Y2104D01*
X2508Y2104D01*
X2508Y2108D01*
X2510Y2108D01*
X2510Y2110D01*
X2512Y2110D01*
X2512Y2112D01*
X2514Y2112D01*
X2514Y2114D01*
X2518Y2114D01*
X2518Y2116D01*
X2520Y2116D01*
X2520Y2118D01*
X2524Y2118D01*
X2524Y2120D01*
X2528Y2120D01*
X2528Y2122D01*
X2536Y2122D01*
X2536Y2124D01*
X2454Y2124D01*
G37*
D02*
G36*
X2554Y2124D02*
X2554Y2122D01*
X2560Y2122D01*
X2560Y2120D01*
X2564Y2120D01*
X2564Y2118D01*
X2568Y2118D01*
X2568Y2116D01*
X2572Y2116D01*
X2572Y2114D01*
X2574Y2114D01*
X2574Y2112D01*
X2576Y2112D01*
X2576Y2110D01*
X2578Y2110D01*
X2578Y2108D01*
X2580Y2108D01*
X2580Y2106D01*
X2582Y2106D01*
X2582Y2104D01*
X2584Y2104D01*
X2584Y2100D01*
X2604Y2100D01*
X2604Y2102D01*
X2606Y2102D01*
X2606Y2104D01*
X2608Y2104D01*
X2608Y2108D01*
X2610Y2108D01*
X2610Y2110D01*
X2612Y2110D01*
X2612Y2112D01*
X2614Y2112D01*
X2614Y2114D01*
X2618Y2114D01*
X2618Y2116D01*
X2620Y2116D01*
X2620Y2118D01*
X2624Y2118D01*
X2624Y2120D01*
X2628Y2120D01*
X2628Y2122D01*
X2636Y2122D01*
X2636Y2124D01*
X2554Y2124D01*
G37*
D02*
G36*
X2654Y2124D02*
X2654Y2122D01*
X2660Y2122D01*
X2660Y2120D01*
X2664Y2120D01*
X2664Y2118D01*
X2668Y2118D01*
X2668Y2116D01*
X2672Y2116D01*
X2672Y2114D01*
X2674Y2114D01*
X2674Y2112D01*
X2676Y2112D01*
X2676Y2110D01*
X2678Y2110D01*
X2678Y2108D01*
X2680Y2108D01*
X2680Y2106D01*
X2682Y2106D01*
X2682Y2104D01*
X2684Y2104D01*
X2684Y2100D01*
X2704Y2100D01*
X2704Y2102D01*
X2706Y2102D01*
X2706Y2104D01*
X2708Y2104D01*
X2708Y2108D01*
X2710Y2108D01*
X2710Y2110D01*
X2712Y2110D01*
X2712Y2112D01*
X2714Y2112D01*
X2714Y2114D01*
X2718Y2114D01*
X2718Y2116D01*
X2720Y2116D01*
X2720Y2118D01*
X2724Y2118D01*
X2724Y2120D01*
X2728Y2120D01*
X2728Y2122D01*
X2736Y2122D01*
X2736Y2124D01*
X2654Y2124D01*
G37*
D02*
G36*
X2754Y2124D02*
X2754Y2122D01*
X2760Y2122D01*
X2760Y2120D01*
X2764Y2120D01*
X2764Y2118D01*
X2768Y2118D01*
X2768Y2116D01*
X2772Y2116D01*
X2772Y2114D01*
X2774Y2114D01*
X2774Y2112D01*
X2776Y2112D01*
X2776Y2110D01*
X2778Y2110D01*
X2778Y2108D01*
X2780Y2108D01*
X2780Y2106D01*
X2782Y2106D01*
X2782Y2104D01*
X2784Y2104D01*
X2784Y2100D01*
X2786Y2100D01*
X2786Y2096D01*
X2788Y2096D01*
X2788Y2090D01*
X2790Y2090D01*
X2790Y2066D01*
X2788Y2066D01*
X2788Y2060D01*
X2786Y2060D01*
X2786Y2056D01*
X2784Y2056D01*
X2784Y2052D01*
X2782Y2052D01*
X2782Y2050D01*
X2780Y2050D01*
X2780Y2046D01*
X2778Y2046D01*
X2778Y2044D01*
X2776Y2044D01*
X2776Y2042D01*
X2772Y2042D01*
X2772Y2040D01*
X2770Y2040D01*
X2770Y2038D01*
X2766Y2038D01*
X2766Y2036D01*
X2762Y2036D01*
X2762Y2034D01*
X2756Y2034D01*
X2756Y2032D01*
X3022Y2032D01*
X3022Y2038D01*
X3018Y2038D01*
X3018Y2040D01*
X3016Y2040D01*
X3016Y2042D01*
X3014Y2042D01*
X3014Y2044D01*
X3012Y2044D01*
X3012Y2046D01*
X3010Y2046D01*
X3010Y2048D01*
X3008Y2048D01*
X3008Y2050D01*
X3006Y2050D01*
X3006Y2054D01*
X3004Y2054D01*
X3004Y2058D01*
X3002Y2058D01*
X3002Y2062D01*
X3000Y2062D01*
X3000Y2068D01*
X2998Y2068D01*
X2998Y2086D01*
X3000Y2086D01*
X3000Y2094D01*
X3002Y2094D01*
X3002Y2098D01*
X3004Y2098D01*
X3004Y2102D01*
X3006Y2102D01*
X3006Y2104D01*
X3008Y2104D01*
X3008Y2108D01*
X3010Y2108D01*
X3010Y2110D01*
X3012Y2110D01*
X3012Y2112D01*
X3014Y2112D01*
X3014Y2114D01*
X3018Y2114D01*
X3018Y2116D01*
X3020Y2116D01*
X3020Y2118D01*
X3024Y2118D01*
X3024Y2120D01*
X3028Y2120D01*
X3028Y2122D01*
X3036Y2122D01*
X3036Y2124D01*
X2754Y2124D01*
G37*
D02*
G36*
X3054Y2124D02*
X3054Y2122D01*
X3060Y2122D01*
X3060Y2120D01*
X3064Y2120D01*
X3064Y2118D01*
X3068Y2118D01*
X3068Y2116D01*
X3072Y2116D01*
X3072Y2114D01*
X3074Y2114D01*
X3074Y2112D01*
X3076Y2112D01*
X3076Y2110D01*
X3078Y2110D01*
X3078Y2108D01*
X3080Y2108D01*
X3080Y2106D01*
X3082Y2106D01*
X3082Y2104D01*
X3084Y2104D01*
X3084Y2100D01*
X3104Y2100D01*
X3104Y2102D01*
X3106Y2102D01*
X3106Y2104D01*
X3108Y2104D01*
X3108Y2108D01*
X3110Y2108D01*
X3110Y2110D01*
X3112Y2110D01*
X3112Y2112D01*
X3114Y2112D01*
X3114Y2114D01*
X3118Y2114D01*
X3118Y2116D01*
X3120Y2116D01*
X3120Y2118D01*
X3124Y2118D01*
X3124Y2120D01*
X3128Y2120D01*
X3128Y2122D01*
X3136Y2122D01*
X3136Y2124D01*
X3054Y2124D01*
G37*
D02*
G36*
X124Y2056D02*
X124Y2052D01*
X122Y2052D01*
X122Y2050D01*
X120Y2050D01*
X120Y2046D01*
X118Y2046D01*
X118Y2044D01*
X116Y2044D01*
X116Y2042D01*
X112Y2042D01*
X112Y2040D01*
X110Y2040D01*
X110Y2038D01*
X106Y2038D01*
X106Y2036D01*
X102Y2036D01*
X102Y2034D01*
X96Y2034D01*
X96Y2032D01*
X172Y2032D01*
X172Y2034D01*
X166Y2034D01*
X166Y2036D01*
X162Y2036D01*
X162Y2038D01*
X158Y2038D01*
X158Y2040D01*
X156Y2040D01*
X156Y2042D01*
X154Y2042D01*
X154Y2044D01*
X152Y2044D01*
X152Y2046D01*
X150Y2046D01*
X150Y2048D01*
X148Y2048D01*
X148Y2050D01*
X146Y2050D01*
X146Y2054D01*
X144Y2054D01*
X144Y2056D01*
X124Y2056D01*
G37*
D02*
G36*
X224Y2056D02*
X224Y2052D01*
X222Y2052D01*
X222Y2050D01*
X220Y2050D01*
X220Y2046D01*
X218Y2046D01*
X218Y2044D01*
X216Y2044D01*
X216Y2042D01*
X212Y2042D01*
X212Y2040D01*
X210Y2040D01*
X210Y2038D01*
X206Y2038D01*
X206Y2036D01*
X202Y2036D01*
X202Y2034D01*
X196Y2034D01*
X196Y2032D01*
X272Y2032D01*
X272Y2034D01*
X266Y2034D01*
X266Y2036D01*
X262Y2036D01*
X262Y2038D01*
X258Y2038D01*
X258Y2040D01*
X256Y2040D01*
X256Y2042D01*
X254Y2042D01*
X254Y2044D01*
X252Y2044D01*
X252Y2046D01*
X250Y2046D01*
X250Y2048D01*
X248Y2048D01*
X248Y2050D01*
X246Y2050D01*
X246Y2054D01*
X244Y2054D01*
X244Y2056D01*
X224Y2056D01*
G37*
D02*
G36*
X324Y2056D02*
X324Y2052D01*
X322Y2052D01*
X322Y2050D01*
X320Y2050D01*
X320Y2046D01*
X318Y2046D01*
X318Y2044D01*
X316Y2044D01*
X316Y2042D01*
X312Y2042D01*
X312Y2040D01*
X310Y2040D01*
X310Y2038D01*
X306Y2038D01*
X306Y2036D01*
X302Y2036D01*
X302Y2034D01*
X296Y2034D01*
X296Y2032D01*
X372Y2032D01*
X372Y2034D01*
X366Y2034D01*
X366Y2036D01*
X362Y2036D01*
X362Y2038D01*
X358Y2038D01*
X358Y2040D01*
X356Y2040D01*
X356Y2042D01*
X354Y2042D01*
X354Y2044D01*
X352Y2044D01*
X352Y2046D01*
X350Y2046D01*
X350Y2048D01*
X348Y2048D01*
X348Y2050D01*
X346Y2050D01*
X346Y2054D01*
X344Y2054D01*
X344Y2056D01*
X324Y2056D01*
G37*
D02*
G36*
X424Y2056D02*
X424Y2052D01*
X422Y2052D01*
X422Y2050D01*
X420Y2050D01*
X420Y2046D01*
X418Y2046D01*
X418Y2044D01*
X416Y2044D01*
X416Y2042D01*
X412Y2042D01*
X412Y2040D01*
X410Y2040D01*
X410Y2038D01*
X406Y2038D01*
X406Y2036D01*
X402Y2036D01*
X402Y2034D01*
X396Y2034D01*
X396Y2032D01*
X472Y2032D01*
X472Y2034D01*
X466Y2034D01*
X466Y2036D01*
X462Y2036D01*
X462Y2038D01*
X458Y2038D01*
X458Y2040D01*
X456Y2040D01*
X456Y2042D01*
X454Y2042D01*
X454Y2044D01*
X452Y2044D01*
X452Y2046D01*
X450Y2046D01*
X450Y2048D01*
X448Y2048D01*
X448Y2050D01*
X446Y2050D01*
X446Y2054D01*
X444Y2054D01*
X444Y2056D01*
X424Y2056D01*
G37*
D02*
G36*
X524Y2056D02*
X524Y2052D01*
X522Y2052D01*
X522Y2050D01*
X520Y2050D01*
X520Y2046D01*
X518Y2046D01*
X518Y2044D01*
X516Y2044D01*
X516Y2042D01*
X512Y2042D01*
X512Y2040D01*
X510Y2040D01*
X510Y2038D01*
X506Y2038D01*
X506Y2036D01*
X502Y2036D01*
X502Y2034D01*
X496Y2034D01*
X496Y2032D01*
X572Y2032D01*
X572Y2034D01*
X566Y2034D01*
X566Y2036D01*
X562Y2036D01*
X562Y2038D01*
X558Y2038D01*
X558Y2040D01*
X556Y2040D01*
X556Y2042D01*
X554Y2042D01*
X554Y2044D01*
X552Y2044D01*
X552Y2046D01*
X550Y2046D01*
X550Y2048D01*
X548Y2048D01*
X548Y2050D01*
X546Y2050D01*
X546Y2054D01*
X544Y2054D01*
X544Y2056D01*
X524Y2056D01*
G37*
D02*
G36*
X624Y2056D02*
X624Y2052D01*
X622Y2052D01*
X622Y2050D01*
X620Y2050D01*
X620Y2046D01*
X618Y2046D01*
X618Y2044D01*
X616Y2044D01*
X616Y2042D01*
X612Y2042D01*
X612Y2040D01*
X610Y2040D01*
X610Y2038D01*
X606Y2038D01*
X606Y2036D01*
X602Y2036D01*
X602Y2034D01*
X596Y2034D01*
X596Y2032D01*
X672Y2032D01*
X672Y2034D01*
X666Y2034D01*
X666Y2036D01*
X662Y2036D01*
X662Y2038D01*
X658Y2038D01*
X658Y2040D01*
X656Y2040D01*
X656Y2042D01*
X654Y2042D01*
X654Y2044D01*
X652Y2044D01*
X652Y2046D01*
X650Y2046D01*
X650Y2048D01*
X648Y2048D01*
X648Y2050D01*
X646Y2050D01*
X646Y2054D01*
X644Y2054D01*
X644Y2056D01*
X624Y2056D01*
G37*
D02*
G36*
X724Y2056D02*
X724Y2052D01*
X722Y2052D01*
X722Y2050D01*
X720Y2050D01*
X720Y2046D01*
X718Y2046D01*
X718Y2044D01*
X716Y2044D01*
X716Y2042D01*
X712Y2042D01*
X712Y2040D01*
X710Y2040D01*
X710Y2038D01*
X706Y2038D01*
X706Y2036D01*
X702Y2036D01*
X702Y2034D01*
X696Y2034D01*
X696Y2032D01*
X772Y2032D01*
X772Y2034D01*
X766Y2034D01*
X766Y2036D01*
X762Y2036D01*
X762Y2038D01*
X758Y2038D01*
X758Y2040D01*
X756Y2040D01*
X756Y2042D01*
X754Y2042D01*
X754Y2044D01*
X752Y2044D01*
X752Y2046D01*
X750Y2046D01*
X750Y2048D01*
X748Y2048D01*
X748Y2050D01*
X746Y2050D01*
X746Y2054D01*
X744Y2054D01*
X744Y2056D01*
X724Y2056D01*
G37*
D02*
G36*
X824Y2056D02*
X824Y2052D01*
X822Y2052D01*
X822Y2050D01*
X820Y2050D01*
X820Y2046D01*
X818Y2046D01*
X818Y2044D01*
X816Y2044D01*
X816Y2042D01*
X812Y2042D01*
X812Y2040D01*
X810Y2040D01*
X810Y2038D01*
X806Y2038D01*
X806Y2036D01*
X802Y2036D01*
X802Y2034D01*
X796Y2034D01*
X796Y2032D01*
X872Y2032D01*
X872Y2034D01*
X866Y2034D01*
X866Y2036D01*
X862Y2036D01*
X862Y2038D01*
X858Y2038D01*
X858Y2040D01*
X856Y2040D01*
X856Y2042D01*
X854Y2042D01*
X854Y2044D01*
X852Y2044D01*
X852Y2046D01*
X850Y2046D01*
X850Y2048D01*
X848Y2048D01*
X848Y2050D01*
X846Y2050D01*
X846Y2054D01*
X844Y2054D01*
X844Y2056D01*
X824Y2056D01*
G37*
D02*
G36*
X924Y2056D02*
X924Y2052D01*
X922Y2052D01*
X922Y2050D01*
X920Y2050D01*
X920Y2046D01*
X918Y2046D01*
X918Y2044D01*
X916Y2044D01*
X916Y2042D01*
X912Y2042D01*
X912Y2040D01*
X910Y2040D01*
X910Y2038D01*
X906Y2038D01*
X906Y2036D01*
X902Y2036D01*
X902Y2034D01*
X896Y2034D01*
X896Y2032D01*
X972Y2032D01*
X972Y2034D01*
X966Y2034D01*
X966Y2036D01*
X962Y2036D01*
X962Y2038D01*
X958Y2038D01*
X958Y2040D01*
X956Y2040D01*
X956Y2042D01*
X954Y2042D01*
X954Y2044D01*
X952Y2044D01*
X952Y2046D01*
X950Y2046D01*
X950Y2048D01*
X948Y2048D01*
X948Y2050D01*
X946Y2050D01*
X946Y2054D01*
X944Y2054D01*
X944Y2056D01*
X924Y2056D01*
G37*
D02*
G36*
X1184Y2056D02*
X1184Y2052D01*
X1182Y2052D01*
X1182Y2050D01*
X1180Y2050D01*
X1180Y2046D01*
X1178Y2046D01*
X1178Y2044D01*
X1176Y2044D01*
X1176Y2042D01*
X1172Y2042D01*
X1172Y2040D01*
X1170Y2040D01*
X1170Y2038D01*
X1166Y2038D01*
X1166Y2036D01*
X1162Y2036D01*
X1162Y2034D01*
X1156Y2034D01*
X1156Y2032D01*
X1232Y2032D01*
X1232Y2034D01*
X1226Y2034D01*
X1226Y2036D01*
X1222Y2036D01*
X1222Y2038D01*
X1218Y2038D01*
X1218Y2040D01*
X1216Y2040D01*
X1216Y2042D01*
X1214Y2042D01*
X1214Y2044D01*
X1212Y2044D01*
X1212Y2046D01*
X1210Y2046D01*
X1210Y2048D01*
X1208Y2048D01*
X1208Y2050D01*
X1206Y2050D01*
X1206Y2054D01*
X1204Y2054D01*
X1204Y2056D01*
X1184Y2056D01*
G37*
D02*
G36*
X1284Y2056D02*
X1284Y2052D01*
X1282Y2052D01*
X1282Y2050D01*
X1280Y2050D01*
X1280Y2046D01*
X1278Y2046D01*
X1278Y2044D01*
X1276Y2044D01*
X1276Y2042D01*
X1272Y2042D01*
X1272Y2040D01*
X1270Y2040D01*
X1270Y2038D01*
X1266Y2038D01*
X1266Y2036D01*
X1262Y2036D01*
X1262Y2034D01*
X1256Y2034D01*
X1256Y2032D01*
X1332Y2032D01*
X1332Y2034D01*
X1326Y2034D01*
X1326Y2036D01*
X1322Y2036D01*
X1322Y2038D01*
X1318Y2038D01*
X1318Y2040D01*
X1316Y2040D01*
X1316Y2042D01*
X1314Y2042D01*
X1314Y2044D01*
X1312Y2044D01*
X1312Y2046D01*
X1310Y2046D01*
X1310Y2048D01*
X1308Y2048D01*
X1308Y2050D01*
X1306Y2050D01*
X1306Y2054D01*
X1304Y2054D01*
X1304Y2056D01*
X1284Y2056D01*
G37*
D02*
G36*
X1384Y2056D02*
X1384Y2052D01*
X1382Y2052D01*
X1382Y2050D01*
X1380Y2050D01*
X1380Y2046D01*
X1378Y2046D01*
X1378Y2044D01*
X1376Y2044D01*
X1376Y2042D01*
X1372Y2042D01*
X1372Y2040D01*
X1370Y2040D01*
X1370Y2038D01*
X1366Y2038D01*
X1366Y2036D01*
X1362Y2036D01*
X1362Y2034D01*
X1356Y2034D01*
X1356Y2032D01*
X1432Y2032D01*
X1432Y2034D01*
X1426Y2034D01*
X1426Y2036D01*
X1422Y2036D01*
X1422Y2038D01*
X1418Y2038D01*
X1418Y2040D01*
X1416Y2040D01*
X1416Y2042D01*
X1414Y2042D01*
X1414Y2044D01*
X1412Y2044D01*
X1412Y2046D01*
X1410Y2046D01*
X1410Y2048D01*
X1408Y2048D01*
X1408Y2050D01*
X1406Y2050D01*
X1406Y2054D01*
X1404Y2054D01*
X1404Y2056D01*
X1384Y2056D01*
G37*
D02*
G36*
X1484Y2056D02*
X1484Y2052D01*
X1482Y2052D01*
X1482Y2050D01*
X1480Y2050D01*
X1480Y2046D01*
X1478Y2046D01*
X1478Y2044D01*
X1476Y2044D01*
X1476Y2042D01*
X1472Y2042D01*
X1472Y2040D01*
X1470Y2040D01*
X1470Y2038D01*
X1466Y2038D01*
X1466Y2036D01*
X1462Y2036D01*
X1462Y2034D01*
X1456Y2034D01*
X1456Y2032D01*
X1532Y2032D01*
X1532Y2034D01*
X1526Y2034D01*
X1526Y2036D01*
X1522Y2036D01*
X1522Y2038D01*
X1518Y2038D01*
X1518Y2040D01*
X1516Y2040D01*
X1516Y2042D01*
X1514Y2042D01*
X1514Y2044D01*
X1512Y2044D01*
X1512Y2046D01*
X1510Y2046D01*
X1510Y2048D01*
X1508Y2048D01*
X1508Y2050D01*
X1506Y2050D01*
X1506Y2054D01*
X1504Y2054D01*
X1504Y2056D01*
X1484Y2056D01*
G37*
D02*
G36*
X1584Y2056D02*
X1584Y2052D01*
X1582Y2052D01*
X1582Y2050D01*
X1580Y2050D01*
X1580Y2046D01*
X1578Y2046D01*
X1578Y2044D01*
X1576Y2044D01*
X1576Y2042D01*
X1572Y2042D01*
X1572Y2040D01*
X1570Y2040D01*
X1570Y2038D01*
X1566Y2038D01*
X1566Y2036D01*
X1562Y2036D01*
X1562Y2034D01*
X1556Y2034D01*
X1556Y2032D01*
X1632Y2032D01*
X1632Y2034D01*
X1626Y2034D01*
X1626Y2036D01*
X1622Y2036D01*
X1622Y2038D01*
X1618Y2038D01*
X1618Y2040D01*
X1616Y2040D01*
X1616Y2042D01*
X1614Y2042D01*
X1614Y2044D01*
X1612Y2044D01*
X1612Y2046D01*
X1610Y2046D01*
X1610Y2048D01*
X1608Y2048D01*
X1608Y2050D01*
X1606Y2050D01*
X1606Y2054D01*
X1604Y2054D01*
X1604Y2056D01*
X1584Y2056D01*
G37*
D02*
G36*
X1684Y2056D02*
X1684Y2052D01*
X1682Y2052D01*
X1682Y2050D01*
X1680Y2050D01*
X1680Y2046D01*
X1678Y2046D01*
X1678Y2044D01*
X1676Y2044D01*
X1676Y2042D01*
X1672Y2042D01*
X1672Y2040D01*
X1670Y2040D01*
X1670Y2038D01*
X1666Y2038D01*
X1666Y2036D01*
X1662Y2036D01*
X1662Y2034D01*
X1656Y2034D01*
X1656Y2032D01*
X1732Y2032D01*
X1732Y2034D01*
X1726Y2034D01*
X1726Y2036D01*
X1722Y2036D01*
X1722Y2038D01*
X1718Y2038D01*
X1718Y2040D01*
X1716Y2040D01*
X1716Y2042D01*
X1714Y2042D01*
X1714Y2044D01*
X1712Y2044D01*
X1712Y2046D01*
X1710Y2046D01*
X1710Y2048D01*
X1708Y2048D01*
X1708Y2050D01*
X1706Y2050D01*
X1706Y2054D01*
X1704Y2054D01*
X1704Y2056D01*
X1684Y2056D01*
G37*
D02*
G36*
X1784Y2056D02*
X1784Y2052D01*
X1782Y2052D01*
X1782Y2050D01*
X1780Y2050D01*
X1780Y2046D01*
X1778Y2046D01*
X1778Y2044D01*
X1776Y2044D01*
X1776Y2042D01*
X1772Y2042D01*
X1772Y2040D01*
X1770Y2040D01*
X1770Y2038D01*
X1766Y2038D01*
X1766Y2036D01*
X1762Y2036D01*
X1762Y2034D01*
X1756Y2034D01*
X1756Y2032D01*
X1832Y2032D01*
X1832Y2034D01*
X1826Y2034D01*
X1826Y2036D01*
X1822Y2036D01*
X1822Y2038D01*
X1818Y2038D01*
X1818Y2040D01*
X1816Y2040D01*
X1816Y2042D01*
X1814Y2042D01*
X1814Y2044D01*
X1812Y2044D01*
X1812Y2046D01*
X1810Y2046D01*
X1810Y2048D01*
X1808Y2048D01*
X1808Y2050D01*
X1806Y2050D01*
X1806Y2054D01*
X1804Y2054D01*
X1804Y2056D01*
X1784Y2056D01*
G37*
D02*
G36*
X2084Y2056D02*
X2084Y2052D01*
X2082Y2052D01*
X2082Y2050D01*
X2080Y2050D01*
X2080Y2046D01*
X2078Y2046D01*
X2078Y2044D01*
X2076Y2044D01*
X2076Y2042D01*
X2072Y2042D01*
X2072Y2040D01*
X2070Y2040D01*
X2070Y2038D01*
X2066Y2038D01*
X2066Y2036D01*
X2062Y2036D01*
X2062Y2034D01*
X2056Y2034D01*
X2056Y2032D01*
X2132Y2032D01*
X2132Y2034D01*
X2126Y2034D01*
X2126Y2036D01*
X2122Y2036D01*
X2122Y2038D01*
X2118Y2038D01*
X2118Y2040D01*
X2116Y2040D01*
X2116Y2042D01*
X2114Y2042D01*
X2114Y2044D01*
X2112Y2044D01*
X2112Y2046D01*
X2110Y2046D01*
X2110Y2048D01*
X2108Y2048D01*
X2108Y2050D01*
X2106Y2050D01*
X2106Y2054D01*
X2104Y2054D01*
X2104Y2056D01*
X2084Y2056D01*
G37*
D02*
G36*
X2184Y2056D02*
X2184Y2052D01*
X2182Y2052D01*
X2182Y2050D01*
X2180Y2050D01*
X2180Y2046D01*
X2178Y2046D01*
X2178Y2044D01*
X2176Y2044D01*
X2176Y2042D01*
X2172Y2042D01*
X2172Y2040D01*
X2170Y2040D01*
X2170Y2038D01*
X2166Y2038D01*
X2166Y2036D01*
X2162Y2036D01*
X2162Y2034D01*
X2156Y2034D01*
X2156Y2032D01*
X2232Y2032D01*
X2232Y2034D01*
X2226Y2034D01*
X2226Y2036D01*
X2222Y2036D01*
X2222Y2038D01*
X2218Y2038D01*
X2218Y2040D01*
X2216Y2040D01*
X2216Y2042D01*
X2214Y2042D01*
X2214Y2044D01*
X2212Y2044D01*
X2212Y2046D01*
X2210Y2046D01*
X2210Y2048D01*
X2208Y2048D01*
X2208Y2050D01*
X2206Y2050D01*
X2206Y2054D01*
X2204Y2054D01*
X2204Y2056D01*
X2184Y2056D01*
G37*
D02*
G36*
X2284Y2056D02*
X2284Y2052D01*
X2282Y2052D01*
X2282Y2050D01*
X2280Y2050D01*
X2280Y2046D01*
X2278Y2046D01*
X2278Y2044D01*
X2276Y2044D01*
X2276Y2042D01*
X2272Y2042D01*
X2272Y2040D01*
X2270Y2040D01*
X2270Y2038D01*
X2266Y2038D01*
X2266Y2036D01*
X2262Y2036D01*
X2262Y2034D01*
X2256Y2034D01*
X2256Y2032D01*
X2332Y2032D01*
X2332Y2034D01*
X2326Y2034D01*
X2326Y2036D01*
X2322Y2036D01*
X2322Y2038D01*
X2318Y2038D01*
X2318Y2040D01*
X2316Y2040D01*
X2316Y2042D01*
X2314Y2042D01*
X2314Y2044D01*
X2312Y2044D01*
X2312Y2046D01*
X2310Y2046D01*
X2310Y2048D01*
X2308Y2048D01*
X2308Y2050D01*
X2306Y2050D01*
X2306Y2054D01*
X2304Y2054D01*
X2304Y2056D01*
X2284Y2056D01*
G37*
D02*
G36*
X2384Y2056D02*
X2384Y2052D01*
X2382Y2052D01*
X2382Y2050D01*
X2380Y2050D01*
X2380Y2046D01*
X2378Y2046D01*
X2378Y2044D01*
X2376Y2044D01*
X2376Y2042D01*
X2372Y2042D01*
X2372Y2040D01*
X2370Y2040D01*
X2370Y2038D01*
X2366Y2038D01*
X2366Y2036D01*
X2362Y2036D01*
X2362Y2034D01*
X2356Y2034D01*
X2356Y2032D01*
X2432Y2032D01*
X2432Y2034D01*
X2426Y2034D01*
X2426Y2036D01*
X2422Y2036D01*
X2422Y2038D01*
X2418Y2038D01*
X2418Y2040D01*
X2416Y2040D01*
X2416Y2042D01*
X2414Y2042D01*
X2414Y2044D01*
X2412Y2044D01*
X2412Y2046D01*
X2410Y2046D01*
X2410Y2048D01*
X2408Y2048D01*
X2408Y2050D01*
X2406Y2050D01*
X2406Y2054D01*
X2404Y2054D01*
X2404Y2056D01*
X2384Y2056D01*
G37*
D02*
G36*
X2484Y2056D02*
X2484Y2052D01*
X2482Y2052D01*
X2482Y2050D01*
X2480Y2050D01*
X2480Y2046D01*
X2478Y2046D01*
X2478Y2044D01*
X2476Y2044D01*
X2476Y2042D01*
X2472Y2042D01*
X2472Y2040D01*
X2470Y2040D01*
X2470Y2038D01*
X2466Y2038D01*
X2466Y2036D01*
X2462Y2036D01*
X2462Y2034D01*
X2456Y2034D01*
X2456Y2032D01*
X2532Y2032D01*
X2532Y2034D01*
X2526Y2034D01*
X2526Y2036D01*
X2522Y2036D01*
X2522Y2038D01*
X2518Y2038D01*
X2518Y2040D01*
X2516Y2040D01*
X2516Y2042D01*
X2514Y2042D01*
X2514Y2044D01*
X2512Y2044D01*
X2512Y2046D01*
X2510Y2046D01*
X2510Y2048D01*
X2508Y2048D01*
X2508Y2050D01*
X2506Y2050D01*
X2506Y2054D01*
X2504Y2054D01*
X2504Y2056D01*
X2484Y2056D01*
G37*
D02*
G36*
X2584Y2056D02*
X2584Y2052D01*
X2582Y2052D01*
X2582Y2050D01*
X2580Y2050D01*
X2580Y2046D01*
X2578Y2046D01*
X2578Y2044D01*
X2576Y2044D01*
X2576Y2042D01*
X2572Y2042D01*
X2572Y2040D01*
X2570Y2040D01*
X2570Y2038D01*
X2566Y2038D01*
X2566Y2036D01*
X2562Y2036D01*
X2562Y2034D01*
X2556Y2034D01*
X2556Y2032D01*
X2632Y2032D01*
X2632Y2034D01*
X2626Y2034D01*
X2626Y2036D01*
X2622Y2036D01*
X2622Y2038D01*
X2618Y2038D01*
X2618Y2040D01*
X2616Y2040D01*
X2616Y2042D01*
X2614Y2042D01*
X2614Y2044D01*
X2612Y2044D01*
X2612Y2046D01*
X2610Y2046D01*
X2610Y2048D01*
X2608Y2048D01*
X2608Y2050D01*
X2606Y2050D01*
X2606Y2054D01*
X2604Y2054D01*
X2604Y2056D01*
X2584Y2056D01*
G37*
D02*
G36*
X2684Y2056D02*
X2684Y2052D01*
X2682Y2052D01*
X2682Y2050D01*
X2680Y2050D01*
X2680Y2046D01*
X2678Y2046D01*
X2678Y2044D01*
X2676Y2044D01*
X2676Y2042D01*
X2672Y2042D01*
X2672Y2040D01*
X2670Y2040D01*
X2670Y2038D01*
X2666Y2038D01*
X2666Y2036D01*
X2662Y2036D01*
X2662Y2034D01*
X2656Y2034D01*
X2656Y2032D01*
X2732Y2032D01*
X2732Y2034D01*
X2726Y2034D01*
X2726Y2036D01*
X2722Y2036D01*
X2722Y2038D01*
X2718Y2038D01*
X2718Y2040D01*
X2716Y2040D01*
X2716Y2042D01*
X2714Y2042D01*
X2714Y2044D01*
X2712Y2044D01*
X2712Y2046D01*
X2710Y2046D01*
X2710Y2048D01*
X2708Y2048D01*
X2708Y2050D01*
X2706Y2050D01*
X2706Y2054D01*
X2704Y2054D01*
X2704Y2056D01*
X2684Y2056D01*
G37*
D02*
G36*
X40Y2038D02*
X40Y2032D01*
X72Y2032D01*
X72Y2034D01*
X66Y2034D01*
X66Y2036D01*
X62Y2036D01*
X62Y2038D01*
X40Y2038D01*
G37*
D02*
G36*
X40Y2032D02*
X40Y2030D01*
X3022Y2030D01*
X3022Y2032D01*
X40Y2032D01*
G37*
D02*
G36*
X40Y2032D02*
X40Y2030D01*
X3022Y2030D01*
X3022Y2032D01*
X40Y2032D01*
G37*
D02*
G36*
X40Y2032D02*
X40Y2030D01*
X3022Y2030D01*
X3022Y2032D01*
X40Y2032D01*
G37*
D02*
G36*
X40Y2032D02*
X40Y2030D01*
X3022Y2030D01*
X3022Y2032D01*
X40Y2032D01*
G37*
D02*
G36*
X40Y2032D02*
X40Y2030D01*
X3022Y2030D01*
X3022Y2032D01*
X40Y2032D01*
G37*
D02*
G36*
X40Y2032D02*
X40Y2030D01*
X3022Y2030D01*
X3022Y2032D01*
X40Y2032D01*
G37*
D02*
G36*
X40Y2032D02*
X40Y2030D01*
X3022Y2030D01*
X3022Y2032D01*
X40Y2032D01*
G37*
D02*
G36*
X40Y2032D02*
X40Y2030D01*
X3022Y2030D01*
X3022Y2032D01*
X40Y2032D01*
G37*
D02*
G36*
X40Y2032D02*
X40Y2030D01*
X3022Y2030D01*
X3022Y2032D01*
X40Y2032D01*
G37*
D02*
G36*
X40Y2032D02*
X40Y2030D01*
X3022Y2030D01*
X3022Y2032D01*
X40Y2032D01*
G37*
D02*
G36*
X40Y2032D02*
X40Y2030D01*
X3022Y2030D01*
X3022Y2032D01*
X40Y2032D01*
G37*
D02*
G36*
X40Y2032D02*
X40Y2030D01*
X3022Y2030D01*
X3022Y2032D01*
X40Y2032D01*
G37*
D02*
G36*
X40Y2032D02*
X40Y2030D01*
X3022Y2030D01*
X3022Y2032D01*
X40Y2032D01*
G37*
D02*
G36*
X40Y2032D02*
X40Y2030D01*
X3022Y2030D01*
X3022Y2032D01*
X40Y2032D01*
G37*
D02*
G36*
X40Y2032D02*
X40Y2030D01*
X3022Y2030D01*
X3022Y2032D01*
X40Y2032D01*
G37*
D02*
G36*
X40Y2032D02*
X40Y2030D01*
X3022Y2030D01*
X3022Y2032D01*
X40Y2032D01*
G37*
D02*
G36*
X40Y2032D02*
X40Y2030D01*
X3022Y2030D01*
X3022Y2032D01*
X40Y2032D01*
G37*
D02*
G36*
X40Y2032D02*
X40Y2030D01*
X3022Y2030D01*
X3022Y2032D01*
X40Y2032D01*
G37*
D02*
G36*
X40Y2032D02*
X40Y2030D01*
X3022Y2030D01*
X3022Y2032D01*
X40Y2032D01*
G37*
D02*
G36*
X40Y2032D02*
X40Y2030D01*
X3022Y2030D01*
X3022Y2032D01*
X40Y2032D01*
G37*
D02*
G36*
X40Y2032D02*
X40Y2030D01*
X3022Y2030D01*
X3022Y2032D01*
X40Y2032D01*
G37*
D02*
G36*
X40Y2032D02*
X40Y2030D01*
X3022Y2030D01*
X3022Y2032D01*
X40Y2032D01*
G37*
D02*
G36*
X40Y2032D02*
X40Y2030D01*
X3022Y2030D01*
X3022Y2032D01*
X40Y2032D01*
G37*
D02*
G36*
X40Y2032D02*
X40Y2030D01*
X3022Y2030D01*
X3022Y2032D01*
X40Y2032D01*
G37*
D02*
G36*
X40Y2032D02*
X40Y2030D01*
X3022Y2030D01*
X3022Y2032D01*
X40Y2032D01*
G37*
D02*
G36*
X40Y2032D02*
X40Y2030D01*
X3022Y2030D01*
X3022Y2032D01*
X40Y2032D01*
G37*
D02*
G36*
X40Y2032D02*
X40Y2030D01*
X3022Y2030D01*
X3022Y2032D01*
X40Y2032D01*
G37*
D02*
G36*
X40Y2030D02*
X40Y1428D01*
X1894Y1428D01*
X1894Y1328D01*
X1882Y1328D01*
X1882Y1308D01*
X1884Y1308D01*
X1884Y1306D01*
X1886Y1306D01*
X1886Y1304D01*
X1888Y1304D01*
X1888Y1300D01*
X1890Y1300D01*
X1890Y1296D01*
X1892Y1296D01*
X1892Y1288D01*
X1894Y1288D01*
X1894Y1266D01*
X1892Y1266D01*
X1892Y1260D01*
X1890Y1260D01*
X1890Y1256D01*
X1888Y1256D01*
X1888Y1252D01*
X1886Y1252D01*
X1886Y1248D01*
X1884Y1248D01*
X1884Y1246D01*
X1882Y1246D01*
X1882Y1244D01*
X1880Y1244D01*
X1880Y1242D01*
X1878Y1242D01*
X1878Y1240D01*
X1876Y1240D01*
X1876Y1238D01*
X1874Y1238D01*
X1874Y1236D01*
X1870Y1236D01*
X1870Y1234D01*
X1866Y1234D01*
X1866Y1232D01*
X1862Y1232D01*
X1862Y1230D01*
X1856Y1230D01*
X1856Y1228D01*
X3022Y1228D01*
X3022Y1238D01*
X3018Y1238D01*
X3018Y1240D01*
X3016Y1240D01*
X3016Y1242D01*
X3014Y1242D01*
X3014Y1244D01*
X3012Y1244D01*
X3012Y1246D01*
X3010Y1246D01*
X3010Y1248D01*
X3008Y1248D01*
X3008Y1250D01*
X3006Y1250D01*
X3006Y1254D01*
X3004Y1254D01*
X3004Y1258D01*
X3002Y1258D01*
X3002Y1262D01*
X3000Y1262D01*
X3000Y1268D01*
X2998Y1268D01*
X2998Y1286D01*
X3000Y1286D01*
X3000Y1294D01*
X3002Y1294D01*
X3002Y1298D01*
X3004Y1298D01*
X3004Y1302D01*
X3006Y1302D01*
X3006Y1304D01*
X3008Y1304D01*
X3008Y1308D01*
X3010Y1308D01*
X3010Y1310D01*
X3012Y1310D01*
X3012Y1312D01*
X3014Y1312D01*
X3014Y1314D01*
X3018Y1314D01*
X3018Y1316D01*
X3020Y1316D01*
X3020Y1318D01*
X3022Y1318D01*
X3022Y1338D01*
X3018Y1338D01*
X3018Y1340D01*
X3016Y1340D01*
X3016Y1342D01*
X3014Y1342D01*
X3014Y1344D01*
X3012Y1344D01*
X3012Y1346D01*
X3010Y1346D01*
X3010Y1348D01*
X3008Y1348D01*
X3008Y1350D01*
X3006Y1350D01*
X3006Y1354D01*
X3004Y1354D01*
X3004Y1358D01*
X3002Y1358D01*
X3002Y1362D01*
X3000Y1362D01*
X3000Y1368D01*
X2998Y1368D01*
X2998Y1386D01*
X3000Y1386D01*
X3000Y1394D01*
X3002Y1394D01*
X3002Y1398D01*
X3004Y1398D01*
X3004Y1402D01*
X3006Y1402D01*
X3006Y1404D01*
X3008Y1404D01*
X3008Y1408D01*
X3010Y1408D01*
X3010Y1410D01*
X3012Y1410D01*
X3012Y1412D01*
X3014Y1412D01*
X3014Y1414D01*
X3018Y1414D01*
X3018Y1416D01*
X3020Y1416D01*
X3020Y1418D01*
X3022Y1418D01*
X3022Y1438D01*
X3018Y1438D01*
X3018Y1440D01*
X3016Y1440D01*
X3016Y1442D01*
X3014Y1442D01*
X3014Y1444D01*
X3012Y1444D01*
X3012Y1446D01*
X3010Y1446D01*
X3010Y1448D01*
X3008Y1448D01*
X3008Y1450D01*
X3006Y1450D01*
X3006Y1454D01*
X3004Y1454D01*
X3004Y1458D01*
X3002Y1458D01*
X3002Y1462D01*
X3000Y1462D01*
X3000Y1468D01*
X2998Y1468D01*
X2998Y1486D01*
X3000Y1486D01*
X3000Y1494D01*
X3002Y1494D01*
X3002Y1498D01*
X3004Y1498D01*
X3004Y1502D01*
X3006Y1502D01*
X3006Y1504D01*
X3008Y1504D01*
X3008Y1508D01*
X3010Y1508D01*
X3010Y1510D01*
X3012Y1510D01*
X3012Y1512D01*
X3014Y1512D01*
X3014Y1514D01*
X3018Y1514D01*
X3018Y1516D01*
X3020Y1516D01*
X3020Y1518D01*
X3022Y1518D01*
X3022Y1538D01*
X3018Y1538D01*
X3018Y1540D01*
X3016Y1540D01*
X3016Y1542D01*
X3014Y1542D01*
X3014Y1544D01*
X3012Y1544D01*
X3012Y1546D01*
X3010Y1546D01*
X3010Y1548D01*
X3008Y1548D01*
X3008Y1550D01*
X3006Y1550D01*
X3006Y1554D01*
X3004Y1554D01*
X3004Y1558D01*
X3002Y1558D01*
X3002Y1562D01*
X3000Y1562D01*
X3000Y1568D01*
X2998Y1568D01*
X2998Y1586D01*
X3000Y1586D01*
X3000Y1594D01*
X3002Y1594D01*
X3002Y1598D01*
X3004Y1598D01*
X3004Y1602D01*
X3006Y1602D01*
X3006Y1604D01*
X3008Y1604D01*
X3008Y1608D01*
X3010Y1608D01*
X3010Y1610D01*
X3012Y1610D01*
X3012Y1612D01*
X3014Y1612D01*
X3014Y1614D01*
X3018Y1614D01*
X3018Y1616D01*
X3020Y1616D01*
X3020Y1618D01*
X3022Y1618D01*
X3022Y1638D01*
X3018Y1638D01*
X3018Y1640D01*
X3016Y1640D01*
X3016Y1642D01*
X3014Y1642D01*
X3014Y1644D01*
X3012Y1644D01*
X3012Y1646D01*
X3010Y1646D01*
X3010Y1648D01*
X3008Y1648D01*
X3008Y1650D01*
X3006Y1650D01*
X3006Y1654D01*
X3004Y1654D01*
X3004Y1658D01*
X3002Y1658D01*
X3002Y1662D01*
X3000Y1662D01*
X3000Y1668D01*
X2998Y1668D01*
X2998Y1686D01*
X3000Y1686D01*
X3000Y1694D01*
X3002Y1694D01*
X3002Y1698D01*
X3004Y1698D01*
X3004Y1702D01*
X3006Y1702D01*
X3006Y1704D01*
X3008Y1704D01*
X3008Y1708D01*
X3010Y1708D01*
X3010Y1710D01*
X3012Y1710D01*
X3012Y1712D01*
X3014Y1712D01*
X3014Y1714D01*
X3018Y1714D01*
X3018Y1716D01*
X3020Y1716D01*
X3020Y1718D01*
X3022Y1718D01*
X3022Y1738D01*
X3018Y1738D01*
X3018Y1740D01*
X3016Y1740D01*
X3016Y1742D01*
X3014Y1742D01*
X3014Y1744D01*
X3012Y1744D01*
X3012Y1746D01*
X3010Y1746D01*
X3010Y1748D01*
X3008Y1748D01*
X3008Y1750D01*
X3006Y1750D01*
X3006Y1754D01*
X3004Y1754D01*
X3004Y1758D01*
X3002Y1758D01*
X3002Y1762D01*
X3000Y1762D01*
X3000Y1768D01*
X2998Y1768D01*
X2998Y1786D01*
X3000Y1786D01*
X3000Y1794D01*
X3002Y1794D01*
X3002Y1798D01*
X3004Y1798D01*
X3004Y1802D01*
X3006Y1802D01*
X3006Y1804D01*
X3008Y1804D01*
X3008Y1808D01*
X3010Y1808D01*
X3010Y1810D01*
X3012Y1810D01*
X3012Y1812D01*
X3014Y1812D01*
X3014Y1814D01*
X3018Y1814D01*
X3018Y1816D01*
X3020Y1816D01*
X3020Y1818D01*
X3022Y1818D01*
X3022Y1838D01*
X3018Y1838D01*
X3018Y1840D01*
X3016Y1840D01*
X3016Y1842D01*
X3014Y1842D01*
X3014Y1844D01*
X3012Y1844D01*
X3012Y1846D01*
X3010Y1846D01*
X3010Y1848D01*
X3008Y1848D01*
X3008Y1850D01*
X3006Y1850D01*
X3006Y1854D01*
X3004Y1854D01*
X3004Y1858D01*
X3002Y1858D01*
X3002Y1862D01*
X3000Y1862D01*
X3000Y1868D01*
X2998Y1868D01*
X2998Y1886D01*
X3000Y1886D01*
X3000Y1894D01*
X3002Y1894D01*
X3002Y1898D01*
X3004Y1898D01*
X3004Y1902D01*
X3006Y1902D01*
X3006Y1904D01*
X3008Y1904D01*
X3008Y1908D01*
X3010Y1908D01*
X3010Y1910D01*
X3012Y1910D01*
X3012Y1912D01*
X3014Y1912D01*
X3014Y1914D01*
X3018Y1914D01*
X3018Y1916D01*
X3020Y1916D01*
X3020Y1918D01*
X3022Y1918D01*
X3022Y1938D01*
X3018Y1938D01*
X3018Y1940D01*
X3016Y1940D01*
X3016Y1942D01*
X3014Y1942D01*
X3014Y1944D01*
X3012Y1944D01*
X3012Y1946D01*
X3010Y1946D01*
X3010Y1948D01*
X3008Y1948D01*
X3008Y1950D01*
X3006Y1950D01*
X3006Y1954D01*
X3004Y1954D01*
X3004Y1958D01*
X3002Y1958D01*
X3002Y1962D01*
X3000Y1962D01*
X3000Y1968D01*
X2998Y1968D01*
X2998Y1986D01*
X3000Y1986D01*
X3000Y1994D01*
X3002Y1994D01*
X3002Y1998D01*
X3004Y1998D01*
X3004Y2002D01*
X3006Y2002D01*
X3006Y2004D01*
X3008Y2004D01*
X3008Y2008D01*
X3010Y2008D01*
X3010Y2010D01*
X3012Y2010D01*
X3012Y2012D01*
X3014Y2012D01*
X3014Y2014D01*
X3018Y2014D01*
X3018Y2016D01*
X3020Y2016D01*
X3020Y2018D01*
X3022Y2018D01*
X3022Y2030D01*
X40Y2030D01*
G37*
D02*
G36*
X40Y1428D02*
X40Y1228D01*
X1834Y1228D01*
X1834Y1230D01*
X1826Y1230D01*
X1826Y1232D01*
X1822Y1232D01*
X1822Y1234D01*
X1818Y1234D01*
X1818Y1236D01*
X1816Y1236D01*
X1816Y1238D01*
X1814Y1238D01*
X1814Y1240D01*
X1810Y1240D01*
X1810Y1242D01*
X1808Y1242D01*
X1808Y1244D01*
X1806Y1244D01*
X1806Y1248D01*
X1804Y1248D01*
X1804Y1250D01*
X1802Y1250D01*
X1802Y1254D01*
X1800Y1254D01*
X1800Y1256D01*
X1798Y1256D01*
X1798Y1262D01*
X1796Y1262D01*
X1796Y1270D01*
X1794Y1270D01*
X1794Y1284D01*
X1796Y1284D01*
X1796Y1294D01*
X1798Y1294D01*
X1798Y1298D01*
X1800Y1298D01*
X1800Y1302D01*
X1802Y1302D01*
X1802Y1306D01*
X1804Y1306D01*
X1804Y1308D01*
X1806Y1308D01*
X1806Y1328D01*
X1794Y1328D01*
X1794Y1428D01*
X40Y1428D01*
G37*
D02*
G36*
X40Y1228D02*
X40Y1226D01*
X3022Y1226D01*
X3022Y1228D01*
X40Y1228D01*
G37*
D02*
G36*
X40Y1228D02*
X40Y1226D01*
X3022Y1226D01*
X3022Y1228D01*
X40Y1228D01*
G37*
D02*
G36*
X40Y1226D02*
X40Y1026D01*
X1094Y1026D01*
X1094Y928D01*
X1082Y928D01*
X1082Y908D01*
X1084Y908D01*
X1084Y904D01*
X1086Y904D01*
X1086Y902D01*
X1088Y902D01*
X1088Y898D01*
X1090Y898D01*
X1090Y892D01*
X1092Y892D01*
X1092Y884D01*
X1094Y884D01*
X1094Y872D01*
X1092Y872D01*
X1092Y864D01*
X1090Y864D01*
X1090Y858D01*
X1088Y858D01*
X1088Y854D01*
X1086Y854D01*
X1086Y850D01*
X1084Y850D01*
X1084Y848D01*
X1082Y848D01*
X1082Y846D01*
X1080Y846D01*
X1080Y842D01*
X1076Y842D01*
X1076Y840D01*
X1074Y840D01*
X1074Y838D01*
X1072Y838D01*
X1072Y836D01*
X1068Y836D01*
X1068Y834D01*
X1064Y834D01*
X1064Y832D01*
X1058Y832D01*
X1058Y830D01*
X1050Y830D01*
X1050Y828D01*
X3022Y828D01*
X3022Y838D01*
X3018Y838D01*
X3018Y840D01*
X3016Y840D01*
X3016Y842D01*
X3014Y842D01*
X3014Y844D01*
X3012Y844D01*
X3012Y846D01*
X3010Y846D01*
X3010Y848D01*
X3008Y848D01*
X3008Y850D01*
X3006Y850D01*
X3006Y854D01*
X3004Y854D01*
X3004Y858D01*
X3002Y858D01*
X3002Y862D01*
X3000Y862D01*
X3000Y868D01*
X2998Y868D01*
X2998Y886D01*
X3000Y886D01*
X3000Y894D01*
X3002Y894D01*
X3002Y898D01*
X3004Y898D01*
X3004Y902D01*
X3006Y902D01*
X3006Y904D01*
X3008Y904D01*
X3008Y908D01*
X3010Y908D01*
X3010Y910D01*
X3012Y910D01*
X3012Y912D01*
X3014Y912D01*
X3014Y914D01*
X3018Y914D01*
X3018Y916D01*
X3020Y916D01*
X3020Y918D01*
X3022Y918D01*
X3022Y938D01*
X3018Y938D01*
X3018Y940D01*
X3016Y940D01*
X3016Y942D01*
X3014Y942D01*
X3014Y944D01*
X3012Y944D01*
X3012Y946D01*
X3010Y946D01*
X3010Y948D01*
X3008Y948D01*
X3008Y950D01*
X3006Y950D01*
X3006Y954D01*
X3004Y954D01*
X3004Y958D01*
X3002Y958D01*
X3002Y962D01*
X3000Y962D01*
X3000Y968D01*
X2998Y968D01*
X2998Y986D01*
X3000Y986D01*
X3000Y994D01*
X3002Y994D01*
X3002Y998D01*
X3004Y998D01*
X3004Y1002D01*
X3006Y1002D01*
X3006Y1004D01*
X3008Y1004D01*
X3008Y1008D01*
X3010Y1008D01*
X3010Y1010D01*
X3012Y1010D01*
X3012Y1012D01*
X3014Y1012D01*
X3014Y1014D01*
X3018Y1014D01*
X3018Y1016D01*
X3020Y1016D01*
X3020Y1018D01*
X3022Y1018D01*
X3022Y1038D01*
X3018Y1038D01*
X3018Y1040D01*
X3016Y1040D01*
X3016Y1042D01*
X3014Y1042D01*
X3014Y1044D01*
X3012Y1044D01*
X3012Y1046D01*
X3010Y1046D01*
X3010Y1048D01*
X3008Y1048D01*
X3008Y1050D01*
X3006Y1050D01*
X3006Y1054D01*
X3004Y1054D01*
X3004Y1058D01*
X3002Y1058D01*
X3002Y1062D01*
X3000Y1062D01*
X3000Y1068D01*
X2998Y1068D01*
X2998Y1086D01*
X3000Y1086D01*
X3000Y1094D01*
X3002Y1094D01*
X3002Y1098D01*
X3004Y1098D01*
X3004Y1102D01*
X3006Y1102D01*
X3006Y1104D01*
X3008Y1104D01*
X3008Y1108D01*
X3010Y1108D01*
X3010Y1110D01*
X3012Y1110D01*
X3012Y1112D01*
X3014Y1112D01*
X3014Y1114D01*
X3018Y1114D01*
X3018Y1116D01*
X3020Y1116D01*
X3020Y1118D01*
X3022Y1118D01*
X3022Y1138D01*
X3018Y1138D01*
X3018Y1140D01*
X3016Y1140D01*
X3016Y1142D01*
X3014Y1142D01*
X3014Y1144D01*
X3012Y1144D01*
X3012Y1146D01*
X3010Y1146D01*
X3010Y1148D01*
X3008Y1148D01*
X3008Y1150D01*
X3006Y1150D01*
X3006Y1154D01*
X3004Y1154D01*
X3004Y1158D01*
X3002Y1158D01*
X3002Y1162D01*
X3000Y1162D01*
X3000Y1168D01*
X2998Y1168D01*
X2998Y1186D01*
X3000Y1186D01*
X3000Y1194D01*
X3002Y1194D01*
X3002Y1198D01*
X3004Y1198D01*
X3004Y1202D01*
X3006Y1202D01*
X3006Y1204D01*
X3008Y1204D01*
X3008Y1208D01*
X3010Y1208D01*
X3010Y1210D01*
X3012Y1210D01*
X3012Y1212D01*
X3014Y1212D01*
X3014Y1214D01*
X3018Y1214D01*
X3018Y1216D01*
X3020Y1216D01*
X3020Y1218D01*
X3022Y1218D01*
X3022Y1226D01*
X40Y1226D01*
G37*
D02*
G36*
X40Y1026D02*
X40Y828D01*
X1038Y828D01*
X1038Y830D01*
X1030Y830D01*
X1030Y832D01*
X1024Y832D01*
X1024Y834D01*
X1020Y834D01*
X1020Y836D01*
X1018Y836D01*
X1018Y838D01*
X1014Y838D01*
X1014Y840D01*
X1012Y840D01*
X1012Y842D01*
X1010Y842D01*
X1010Y844D01*
X1008Y844D01*
X1008Y846D01*
X1006Y846D01*
X1006Y848D01*
X1004Y848D01*
X1004Y852D01*
X1002Y852D01*
X1002Y856D01*
X1000Y856D01*
X1000Y860D01*
X998Y860D01*
X998Y866D01*
X996Y866D01*
X996Y890D01*
X998Y890D01*
X998Y896D01*
X1000Y896D01*
X1000Y900D01*
X1002Y900D01*
X1002Y904D01*
X1004Y904D01*
X1004Y906D01*
X1006Y906D01*
X1006Y908D01*
X1008Y908D01*
X1008Y928D01*
X996Y928D01*
X996Y1026D01*
X40Y1026D01*
G37*
D02*
G36*
X40Y828D02*
X40Y826D01*
X3022Y826D01*
X3022Y828D01*
X40Y828D01*
G37*
D02*
G36*
X40Y828D02*
X40Y826D01*
X3022Y826D01*
X3022Y828D01*
X40Y828D01*
G37*
D02*
G36*
X40Y826D02*
X40Y332D01*
X3032Y332D01*
X3032Y334D01*
X3026Y334D01*
X3026Y336D01*
X3022Y336D01*
X3022Y338D01*
X3018Y338D01*
X3018Y340D01*
X3016Y340D01*
X3016Y342D01*
X3014Y342D01*
X3014Y344D01*
X3012Y344D01*
X3012Y346D01*
X3010Y346D01*
X3010Y348D01*
X3008Y348D01*
X3008Y350D01*
X3006Y350D01*
X3006Y354D01*
X3004Y354D01*
X3004Y358D01*
X3002Y358D01*
X3002Y362D01*
X3000Y362D01*
X3000Y368D01*
X2998Y368D01*
X2998Y386D01*
X3000Y386D01*
X3000Y394D01*
X3002Y394D01*
X3002Y398D01*
X3004Y398D01*
X3004Y402D01*
X3006Y402D01*
X3006Y404D01*
X3008Y404D01*
X3008Y408D01*
X3010Y408D01*
X3010Y410D01*
X3012Y410D01*
X3012Y412D01*
X3014Y412D01*
X3014Y414D01*
X3018Y414D01*
X3018Y416D01*
X3020Y416D01*
X3020Y418D01*
X3022Y418D01*
X3022Y438D01*
X3018Y438D01*
X3018Y440D01*
X3016Y440D01*
X3016Y442D01*
X3014Y442D01*
X3014Y444D01*
X3012Y444D01*
X3012Y446D01*
X3010Y446D01*
X3010Y448D01*
X3008Y448D01*
X3008Y450D01*
X3006Y450D01*
X3006Y454D01*
X3004Y454D01*
X3004Y458D01*
X3002Y458D01*
X3002Y462D01*
X3000Y462D01*
X3000Y468D01*
X2998Y468D01*
X2998Y486D01*
X3000Y486D01*
X3000Y494D01*
X3002Y494D01*
X3002Y498D01*
X3004Y498D01*
X3004Y502D01*
X3006Y502D01*
X3006Y504D01*
X3008Y504D01*
X3008Y508D01*
X3010Y508D01*
X3010Y510D01*
X3012Y510D01*
X3012Y512D01*
X3014Y512D01*
X3014Y514D01*
X3018Y514D01*
X3018Y516D01*
X3020Y516D01*
X3020Y518D01*
X3022Y518D01*
X3022Y538D01*
X3018Y538D01*
X3018Y540D01*
X3016Y540D01*
X3016Y542D01*
X3014Y542D01*
X3014Y544D01*
X3012Y544D01*
X3012Y546D01*
X3010Y546D01*
X3010Y548D01*
X3008Y548D01*
X3008Y550D01*
X3006Y550D01*
X3006Y554D01*
X3004Y554D01*
X3004Y558D01*
X3002Y558D01*
X3002Y562D01*
X3000Y562D01*
X3000Y568D01*
X2998Y568D01*
X2998Y586D01*
X3000Y586D01*
X3000Y594D01*
X3002Y594D01*
X3002Y598D01*
X3004Y598D01*
X3004Y602D01*
X3006Y602D01*
X3006Y604D01*
X3008Y604D01*
X3008Y608D01*
X3010Y608D01*
X3010Y610D01*
X3012Y610D01*
X3012Y612D01*
X3014Y612D01*
X3014Y614D01*
X3018Y614D01*
X3018Y616D01*
X3020Y616D01*
X3020Y618D01*
X3022Y618D01*
X3022Y638D01*
X3018Y638D01*
X3018Y640D01*
X3016Y640D01*
X3016Y642D01*
X3014Y642D01*
X3014Y644D01*
X3012Y644D01*
X3012Y646D01*
X3010Y646D01*
X3010Y648D01*
X3008Y648D01*
X3008Y650D01*
X3006Y650D01*
X3006Y654D01*
X3004Y654D01*
X3004Y658D01*
X3002Y658D01*
X3002Y662D01*
X3000Y662D01*
X3000Y668D01*
X2998Y668D01*
X2998Y686D01*
X3000Y686D01*
X3000Y694D01*
X3002Y694D01*
X3002Y698D01*
X3004Y698D01*
X3004Y702D01*
X3006Y702D01*
X3006Y704D01*
X3008Y704D01*
X3008Y708D01*
X3010Y708D01*
X3010Y710D01*
X3012Y710D01*
X3012Y712D01*
X3014Y712D01*
X3014Y714D01*
X3018Y714D01*
X3018Y716D01*
X3020Y716D01*
X3020Y718D01*
X3022Y718D01*
X3022Y738D01*
X3018Y738D01*
X3018Y740D01*
X3016Y740D01*
X3016Y742D01*
X3014Y742D01*
X3014Y744D01*
X3012Y744D01*
X3012Y746D01*
X3010Y746D01*
X3010Y748D01*
X3008Y748D01*
X3008Y750D01*
X3006Y750D01*
X3006Y754D01*
X3004Y754D01*
X3004Y758D01*
X3002Y758D01*
X3002Y762D01*
X3000Y762D01*
X3000Y768D01*
X2998Y768D01*
X2998Y786D01*
X3000Y786D01*
X3000Y794D01*
X3002Y794D01*
X3002Y798D01*
X3004Y798D01*
X3004Y802D01*
X3006Y802D01*
X3006Y804D01*
X3008Y804D01*
X3008Y808D01*
X3010Y808D01*
X3010Y810D01*
X3012Y810D01*
X3012Y812D01*
X3014Y812D01*
X3014Y814D01*
X3018Y814D01*
X3018Y816D01*
X3020Y816D01*
X3020Y818D01*
X3022Y818D01*
X3022Y826D01*
X40Y826D01*
G37*
D02*
G36*
X3084Y356D02*
X3084Y352D01*
X3082Y352D01*
X3082Y350D01*
X3080Y350D01*
X3080Y346D01*
X3078Y346D01*
X3078Y344D01*
X3076Y344D01*
X3076Y342D01*
X3072Y342D01*
X3072Y340D01*
X3070Y340D01*
X3070Y338D01*
X3066Y338D01*
X3066Y336D01*
X3062Y336D01*
X3062Y334D01*
X3056Y334D01*
X3056Y332D01*
X3132Y332D01*
X3132Y334D01*
X3126Y334D01*
X3126Y336D01*
X3122Y336D01*
X3122Y338D01*
X3118Y338D01*
X3118Y340D01*
X3116Y340D01*
X3116Y342D01*
X3114Y342D01*
X3114Y344D01*
X3112Y344D01*
X3112Y346D01*
X3110Y346D01*
X3110Y348D01*
X3108Y348D01*
X3108Y350D01*
X3106Y350D01*
X3106Y354D01*
X3104Y354D01*
X3104Y356D01*
X3084Y356D01*
G37*
D02*
G36*
X40Y332D02*
X40Y330D01*
X3292Y330D01*
X3292Y332D01*
X40Y332D01*
G37*
D02*
G36*
X40Y332D02*
X40Y330D01*
X3292Y330D01*
X3292Y332D01*
X40Y332D01*
G37*
D02*
G36*
X40Y332D02*
X40Y330D01*
X3292Y330D01*
X3292Y332D01*
X40Y332D01*
G37*
D02*
G36*
X40Y330D02*
X40Y224D01*
X2954Y224D01*
X2954Y222D01*
X2960Y222D01*
X2960Y220D01*
X2964Y220D01*
X2964Y218D01*
X2968Y218D01*
X2968Y216D01*
X2972Y216D01*
X2972Y214D01*
X2974Y214D01*
X2974Y212D01*
X2976Y212D01*
X2976Y210D01*
X2978Y210D01*
X2978Y208D01*
X2980Y208D01*
X2980Y206D01*
X2982Y206D01*
X2982Y204D01*
X2984Y204D01*
X2984Y200D01*
X2986Y200D01*
X2986Y196D01*
X2988Y196D01*
X2988Y190D01*
X2990Y190D01*
X2990Y166D01*
X2988Y166D01*
X2988Y160D01*
X2986Y160D01*
X2986Y156D01*
X2984Y156D01*
X2984Y152D01*
X2982Y152D01*
X2982Y150D01*
X2980Y150D01*
X2980Y146D01*
X2978Y146D01*
X2978Y144D01*
X2976Y144D01*
X2976Y142D01*
X2972Y142D01*
X2972Y140D01*
X2970Y140D01*
X2970Y138D01*
X2966Y138D01*
X2966Y136D01*
X2962Y136D01*
X2962Y134D01*
X2956Y134D01*
X2956Y132D01*
X3292Y132D01*
X3292Y330D01*
X40Y330D01*
G37*
D02*
G36*
X40Y224D02*
X40Y132D01*
X432Y132D01*
X432Y134D01*
X426Y134D01*
X426Y136D01*
X422Y136D01*
X422Y138D01*
X418Y138D01*
X418Y140D01*
X416Y140D01*
X416Y142D01*
X414Y142D01*
X414Y144D01*
X412Y144D01*
X412Y146D01*
X410Y146D01*
X410Y148D01*
X408Y148D01*
X408Y150D01*
X406Y150D01*
X406Y154D01*
X404Y154D01*
X404Y158D01*
X402Y158D01*
X402Y162D01*
X400Y162D01*
X400Y168D01*
X398Y168D01*
X398Y186D01*
X400Y186D01*
X400Y194D01*
X402Y194D01*
X402Y198D01*
X404Y198D01*
X404Y202D01*
X406Y202D01*
X406Y204D01*
X408Y204D01*
X408Y208D01*
X410Y208D01*
X410Y210D01*
X412Y210D01*
X412Y212D01*
X414Y212D01*
X414Y214D01*
X418Y214D01*
X418Y216D01*
X420Y216D01*
X420Y218D01*
X424Y218D01*
X424Y220D01*
X428Y220D01*
X428Y222D01*
X436Y222D01*
X436Y224D01*
X40Y224D01*
G37*
D02*
G36*
X454Y224D02*
X454Y222D01*
X460Y222D01*
X460Y220D01*
X464Y220D01*
X464Y218D01*
X468Y218D01*
X468Y216D01*
X472Y216D01*
X472Y214D01*
X474Y214D01*
X474Y212D01*
X476Y212D01*
X476Y210D01*
X478Y210D01*
X478Y208D01*
X480Y208D01*
X480Y206D01*
X482Y206D01*
X482Y204D01*
X484Y204D01*
X484Y200D01*
X504Y200D01*
X504Y202D01*
X506Y202D01*
X506Y204D01*
X508Y204D01*
X508Y208D01*
X510Y208D01*
X510Y210D01*
X512Y210D01*
X512Y212D01*
X514Y212D01*
X514Y214D01*
X518Y214D01*
X518Y216D01*
X520Y216D01*
X520Y218D01*
X524Y218D01*
X524Y220D01*
X528Y220D01*
X528Y222D01*
X536Y222D01*
X536Y224D01*
X454Y224D01*
G37*
D02*
G36*
X554Y224D02*
X554Y222D01*
X560Y222D01*
X560Y220D01*
X564Y220D01*
X564Y218D01*
X568Y218D01*
X568Y216D01*
X572Y216D01*
X572Y214D01*
X574Y214D01*
X574Y212D01*
X576Y212D01*
X576Y210D01*
X578Y210D01*
X578Y208D01*
X580Y208D01*
X580Y206D01*
X582Y206D01*
X582Y204D01*
X584Y204D01*
X584Y200D01*
X604Y200D01*
X604Y202D01*
X606Y202D01*
X606Y204D01*
X608Y204D01*
X608Y208D01*
X610Y208D01*
X610Y210D01*
X612Y210D01*
X612Y212D01*
X614Y212D01*
X614Y214D01*
X618Y214D01*
X618Y216D01*
X620Y216D01*
X620Y218D01*
X624Y218D01*
X624Y220D01*
X628Y220D01*
X628Y222D01*
X636Y222D01*
X636Y224D01*
X554Y224D01*
G37*
D02*
G36*
X654Y224D02*
X654Y222D01*
X660Y222D01*
X660Y220D01*
X664Y220D01*
X664Y218D01*
X668Y218D01*
X668Y216D01*
X672Y216D01*
X672Y214D01*
X674Y214D01*
X674Y212D01*
X676Y212D01*
X676Y210D01*
X678Y210D01*
X678Y208D01*
X680Y208D01*
X680Y206D01*
X682Y206D01*
X682Y204D01*
X684Y204D01*
X684Y200D01*
X704Y200D01*
X704Y202D01*
X706Y202D01*
X706Y204D01*
X708Y204D01*
X708Y208D01*
X710Y208D01*
X710Y210D01*
X712Y210D01*
X712Y212D01*
X714Y212D01*
X714Y214D01*
X718Y214D01*
X718Y216D01*
X720Y216D01*
X720Y218D01*
X724Y218D01*
X724Y220D01*
X728Y220D01*
X728Y222D01*
X736Y222D01*
X736Y224D01*
X654Y224D01*
G37*
D02*
G36*
X754Y224D02*
X754Y222D01*
X760Y222D01*
X760Y220D01*
X764Y220D01*
X764Y218D01*
X768Y218D01*
X768Y216D01*
X772Y216D01*
X772Y214D01*
X774Y214D01*
X774Y212D01*
X776Y212D01*
X776Y210D01*
X778Y210D01*
X778Y208D01*
X780Y208D01*
X780Y206D01*
X782Y206D01*
X782Y204D01*
X784Y204D01*
X784Y200D01*
X804Y200D01*
X804Y202D01*
X806Y202D01*
X806Y204D01*
X808Y204D01*
X808Y208D01*
X810Y208D01*
X810Y210D01*
X812Y210D01*
X812Y212D01*
X814Y212D01*
X814Y214D01*
X818Y214D01*
X818Y216D01*
X820Y216D01*
X820Y218D01*
X824Y218D01*
X824Y220D01*
X828Y220D01*
X828Y222D01*
X836Y222D01*
X836Y224D01*
X754Y224D01*
G37*
D02*
G36*
X854Y224D02*
X854Y222D01*
X860Y222D01*
X860Y220D01*
X864Y220D01*
X864Y218D01*
X868Y218D01*
X868Y216D01*
X872Y216D01*
X872Y214D01*
X874Y214D01*
X874Y212D01*
X876Y212D01*
X876Y210D01*
X878Y210D01*
X878Y208D01*
X880Y208D01*
X880Y206D01*
X882Y206D01*
X882Y204D01*
X884Y204D01*
X884Y200D01*
X904Y200D01*
X904Y202D01*
X906Y202D01*
X906Y204D01*
X908Y204D01*
X908Y208D01*
X910Y208D01*
X910Y210D01*
X912Y210D01*
X912Y212D01*
X914Y212D01*
X914Y214D01*
X918Y214D01*
X918Y216D01*
X920Y216D01*
X920Y218D01*
X924Y218D01*
X924Y220D01*
X928Y220D01*
X928Y222D01*
X936Y222D01*
X936Y224D01*
X854Y224D01*
G37*
D02*
G36*
X954Y224D02*
X954Y222D01*
X960Y222D01*
X960Y220D01*
X964Y220D01*
X964Y218D01*
X968Y218D01*
X968Y216D01*
X972Y216D01*
X972Y214D01*
X974Y214D01*
X974Y212D01*
X976Y212D01*
X976Y210D01*
X978Y210D01*
X978Y208D01*
X980Y208D01*
X980Y206D01*
X982Y206D01*
X982Y204D01*
X984Y204D01*
X984Y200D01*
X1004Y200D01*
X1004Y202D01*
X1006Y202D01*
X1006Y204D01*
X1008Y204D01*
X1008Y208D01*
X1010Y208D01*
X1010Y210D01*
X1012Y210D01*
X1012Y212D01*
X1014Y212D01*
X1014Y214D01*
X1018Y214D01*
X1018Y216D01*
X1020Y216D01*
X1020Y218D01*
X1024Y218D01*
X1024Y220D01*
X1028Y220D01*
X1028Y222D01*
X1036Y222D01*
X1036Y224D01*
X954Y224D01*
G37*
D02*
G36*
X1054Y224D02*
X1054Y222D01*
X1060Y222D01*
X1060Y220D01*
X1064Y220D01*
X1064Y218D01*
X1068Y218D01*
X1068Y216D01*
X1072Y216D01*
X1072Y214D01*
X1074Y214D01*
X1074Y212D01*
X1076Y212D01*
X1076Y210D01*
X1078Y210D01*
X1078Y208D01*
X1080Y208D01*
X1080Y206D01*
X1082Y206D01*
X1082Y204D01*
X1084Y204D01*
X1084Y200D01*
X1104Y200D01*
X1104Y202D01*
X1106Y202D01*
X1106Y204D01*
X1108Y204D01*
X1108Y208D01*
X1110Y208D01*
X1110Y210D01*
X1112Y210D01*
X1112Y212D01*
X1114Y212D01*
X1114Y214D01*
X1118Y214D01*
X1118Y216D01*
X1120Y216D01*
X1120Y218D01*
X1124Y218D01*
X1124Y220D01*
X1128Y220D01*
X1128Y222D01*
X1136Y222D01*
X1136Y224D01*
X1054Y224D01*
G37*
D02*
G36*
X1154Y224D02*
X1154Y222D01*
X1160Y222D01*
X1160Y220D01*
X1164Y220D01*
X1164Y218D01*
X1168Y218D01*
X1168Y216D01*
X1172Y216D01*
X1172Y214D01*
X1174Y214D01*
X1174Y212D01*
X1176Y212D01*
X1176Y210D01*
X1178Y210D01*
X1178Y208D01*
X1180Y208D01*
X1180Y206D01*
X1182Y206D01*
X1182Y204D01*
X1184Y204D01*
X1184Y200D01*
X1186Y200D01*
X1186Y196D01*
X1188Y196D01*
X1188Y190D01*
X1190Y190D01*
X1190Y166D01*
X1188Y166D01*
X1188Y160D01*
X1186Y160D01*
X1186Y156D01*
X1184Y156D01*
X1184Y152D01*
X1182Y152D01*
X1182Y150D01*
X1180Y150D01*
X1180Y146D01*
X1178Y146D01*
X1178Y144D01*
X1176Y144D01*
X1176Y142D01*
X1172Y142D01*
X1172Y140D01*
X1170Y140D01*
X1170Y138D01*
X1166Y138D01*
X1166Y136D01*
X1162Y136D01*
X1162Y134D01*
X1156Y134D01*
X1156Y132D01*
X1332Y132D01*
X1332Y134D01*
X1326Y134D01*
X1326Y136D01*
X1322Y136D01*
X1322Y138D01*
X1318Y138D01*
X1318Y140D01*
X1316Y140D01*
X1316Y142D01*
X1314Y142D01*
X1314Y144D01*
X1312Y144D01*
X1312Y146D01*
X1310Y146D01*
X1310Y148D01*
X1308Y148D01*
X1308Y150D01*
X1306Y150D01*
X1306Y154D01*
X1304Y154D01*
X1304Y158D01*
X1302Y158D01*
X1302Y162D01*
X1300Y162D01*
X1300Y168D01*
X1298Y168D01*
X1298Y186D01*
X1300Y186D01*
X1300Y194D01*
X1302Y194D01*
X1302Y198D01*
X1304Y198D01*
X1304Y202D01*
X1306Y202D01*
X1306Y204D01*
X1308Y204D01*
X1308Y208D01*
X1310Y208D01*
X1310Y210D01*
X1312Y210D01*
X1312Y212D01*
X1314Y212D01*
X1314Y214D01*
X1318Y214D01*
X1318Y216D01*
X1320Y216D01*
X1320Y218D01*
X1324Y218D01*
X1324Y220D01*
X1328Y220D01*
X1328Y222D01*
X1336Y222D01*
X1336Y224D01*
X1154Y224D01*
G37*
D02*
G36*
X1354Y224D02*
X1354Y222D01*
X1360Y222D01*
X1360Y220D01*
X1364Y220D01*
X1364Y218D01*
X1368Y218D01*
X1368Y216D01*
X1372Y216D01*
X1372Y214D01*
X1374Y214D01*
X1374Y212D01*
X1376Y212D01*
X1376Y210D01*
X1378Y210D01*
X1378Y208D01*
X1380Y208D01*
X1380Y206D01*
X1382Y206D01*
X1382Y204D01*
X1384Y204D01*
X1384Y200D01*
X1404Y200D01*
X1404Y202D01*
X1406Y202D01*
X1406Y204D01*
X1408Y204D01*
X1408Y208D01*
X1410Y208D01*
X1410Y210D01*
X1412Y210D01*
X1412Y212D01*
X1414Y212D01*
X1414Y214D01*
X1418Y214D01*
X1418Y216D01*
X1420Y216D01*
X1420Y218D01*
X1424Y218D01*
X1424Y220D01*
X1428Y220D01*
X1428Y222D01*
X1436Y222D01*
X1436Y224D01*
X1354Y224D01*
G37*
D02*
G36*
X1454Y224D02*
X1454Y222D01*
X1460Y222D01*
X1460Y220D01*
X1464Y220D01*
X1464Y218D01*
X1468Y218D01*
X1468Y216D01*
X1472Y216D01*
X1472Y214D01*
X1474Y214D01*
X1474Y212D01*
X1476Y212D01*
X1476Y210D01*
X1478Y210D01*
X1478Y208D01*
X1480Y208D01*
X1480Y206D01*
X1482Y206D01*
X1482Y204D01*
X1484Y204D01*
X1484Y200D01*
X1504Y200D01*
X1504Y202D01*
X1506Y202D01*
X1506Y204D01*
X1508Y204D01*
X1508Y208D01*
X1510Y208D01*
X1510Y210D01*
X1512Y210D01*
X1512Y212D01*
X1514Y212D01*
X1514Y214D01*
X1518Y214D01*
X1518Y216D01*
X1520Y216D01*
X1520Y218D01*
X1524Y218D01*
X1524Y220D01*
X1528Y220D01*
X1528Y222D01*
X1536Y222D01*
X1536Y224D01*
X1454Y224D01*
G37*
D02*
G36*
X1554Y224D02*
X1554Y222D01*
X1560Y222D01*
X1560Y220D01*
X1564Y220D01*
X1564Y218D01*
X1568Y218D01*
X1568Y216D01*
X1572Y216D01*
X1572Y214D01*
X1574Y214D01*
X1574Y212D01*
X1576Y212D01*
X1576Y210D01*
X1578Y210D01*
X1578Y208D01*
X1580Y208D01*
X1580Y206D01*
X1582Y206D01*
X1582Y204D01*
X1584Y204D01*
X1584Y200D01*
X1604Y200D01*
X1604Y202D01*
X1606Y202D01*
X1606Y204D01*
X1608Y204D01*
X1608Y208D01*
X1610Y208D01*
X1610Y210D01*
X1612Y210D01*
X1612Y212D01*
X1614Y212D01*
X1614Y214D01*
X1618Y214D01*
X1618Y216D01*
X1620Y216D01*
X1620Y218D01*
X1624Y218D01*
X1624Y220D01*
X1628Y220D01*
X1628Y222D01*
X1636Y222D01*
X1636Y224D01*
X1554Y224D01*
G37*
D02*
G36*
X1654Y224D02*
X1654Y222D01*
X1660Y222D01*
X1660Y220D01*
X1664Y220D01*
X1664Y218D01*
X1668Y218D01*
X1668Y216D01*
X1672Y216D01*
X1672Y214D01*
X1674Y214D01*
X1674Y212D01*
X1676Y212D01*
X1676Y210D01*
X1678Y210D01*
X1678Y208D01*
X1680Y208D01*
X1680Y206D01*
X1682Y206D01*
X1682Y204D01*
X1684Y204D01*
X1684Y200D01*
X1704Y200D01*
X1704Y202D01*
X1706Y202D01*
X1706Y204D01*
X1708Y204D01*
X1708Y208D01*
X1710Y208D01*
X1710Y210D01*
X1712Y210D01*
X1712Y212D01*
X1714Y212D01*
X1714Y214D01*
X1718Y214D01*
X1718Y216D01*
X1720Y216D01*
X1720Y218D01*
X1724Y218D01*
X1724Y220D01*
X1728Y220D01*
X1728Y222D01*
X1736Y222D01*
X1736Y224D01*
X1654Y224D01*
G37*
D02*
G36*
X1754Y224D02*
X1754Y222D01*
X1760Y222D01*
X1760Y220D01*
X1764Y220D01*
X1764Y218D01*
X1768Y218D01*
X1768Y216D01*
X1772Y216D01*
X1772Y214D01*
X1774Y214D01*
X1774Y212D01*
X1776Y212D01*
X1776Y210D01*
X1778Y210D01*
X1778Y208D01*
X1780Y208D01*
X1780Y206D01*
X1782Y206D01*
X1782Y204D01*
X1784Y204D01*
X1784Y200D01*
X1804Y200D01*
X1804Y202D01*
X1806Y202D01*
X1806Y204D01*
X1808Y204D01*
X1808Y208D01*
X1810Y208D01*
X1810Y210D01*
X1812Y210D01*
X1812Y212D01*
X1814Y212D01*
X1814Y214D01*
X1818Y214D01*
X1818Y216D01*
X1820Y216D01*
X1820Y218D01*
X1824Y218D01*
X1824Y220D01*
X1828Y220D01*
X1828Y222D01*
X1836Y222D01*
X1836Y224D01*
X1754Y224D01*
G37*
D02*
G36*
X1854Y224D02*
X1854Y222D01*
X1860Y222D01*
X1860Y220D01*
X1864Y220D01*
X1864Y218D01*
X1868Y218D01*
X1868Y216D01*
X1872Y216D01*
X1872Y214D01*
X1874Y214D01*
X1874Y212D01*
X1876Y212D01*
X1876Y210D01*
X1878Y210D01*
X1878Y208D01*
X1880Y208D01*
X1880Y206D01*
X1882Y206D01*
X1882Y204D01*
X1884Y204D01*
X1884Y200D01*
X1904Y200D01*
X1904Y202D01*
X1906Y202D01*
X1906Y204D01*
X1908Y204D01*
X1908Y208D01*
X1910Y208D01*
X1910Y210D01*
X1912Y210D01*
X1912Y212D01*
X1914Y212D01*
X1914Y214D01*
X1918Y214D01*
X1918Y216D01*
X1920Y216D01*
X1920Y218D01*
X1924Y218D01*
X1924Y220D01*
X1928Y220D01*
X1928Y222D01*
X1936Y222D01*
X1936Y224D01*
X1854Y224D01*
G37*
D02*
G36*
X1954Y224D02*
X1954Y222D01*
X1960Y222D01*
X1960Y220D01*
X1964Y220D01*
X1964Y218D01*
X1968Y218D01*
X1968Y216D01*
X1972Y216D01*
X1972Y214D01*
X1974Y214D01*
X1974Y212D01*
X1976Y212D01*
X1976Y210D01*
X1978Y210D01*
X1978Y208D01*
X1980Y208D01*
X1980Y206D01*
X1982Y206D01*
X1982Y204D01*
X1984Y204D01*
X1984Y200D01*
X2004Y200D01*
X2004Y202D01*
X2006Y202D01*
X2006Y204D01*
X2008Y204D01*
X2008Y208D01*
X2010Y208D01*
X2010Y210D01*
X2012Y210D01*
X2012Y212D01*
X2014Y212D01*
X2014Y214D01*
X2018Y214D01*
X2018Y216D01*
X2020Y216D01*
X2020Y218D01*
X2024Y218D01*
X2024Y220D01*
X2028Y220D01*
X2028Y222D01*
X2036Y222D01*
X2036Y224D01*
X1954Y224D01*
G37*
D02*
G36*
X2054Y224D02*
X2054Y222D01*
X2060Y222D01*
X2060Y220D01*
X2064Y220D01*
X2064Y218D01*
X2068Y218D01*
X2068Y216D01*
X2072Y216D01*
X2072Y214D01*
X2074Y214D01*
X2074Y212D01*
X2076Y212D01*
X2076Y210D01*
X2078Y210D01*
X2078Y208D01*
X2080Y208D01*
X2080Y206D01*
X2082Y206D01*
X2082Y204D01*
X2084Y204D01*
X2084Y200D01*
X2086Y200D01*
X2086Y196D01*
X2088Y196D01*
X2088Y190D01*
X2090Y190D01*
X2090Y166D01*
X2088Y166D01*
X2088Y160D01*
X2086Y160D01*
X2086Y156D01*
X2084Y156D01*
X2084Y152D01*
X2082Y152D01*
X2082Y150D01*
X2080Y150D01*
X2080Y146D01*
X2078Y146D01*
X2078Y144D01*
X2076Y144D01*
X2076Y142D01*
X2072Y142D01*
X2072Y140D01*
X2070Y140D01*
X2070Y138D01*
X2066Y138D01*
X2066Y136D01*
X2062Y136D01*
X2062Y134D01*
X2056Y134D01*
X2056Y132D01*
X2232Y132D01*
X2232Y134D01*
X2226Y134D01*
X2226Y136D01*
X2222Y136D01*
X2222Y138D01*
X2218Y138D01*
X2218Y140D01*
X2216Y140D01*
X2216Y142D01*
X2214Y142D01*
X2214Y144D01*
X2212Y144D01*
X2212Y146D01*
X2210Y146D01*
X2210Y148D01*
X2208Y148D01*
X2208Y150D01*
X2206Y150D01*
X2206Y154D01*
X2204Y154D01*
X2204Y158D01*
X2202Y158D01*
X2202Y162D01*
X2200Y162D01*
X2200Y168D01*
X2198Y168D01*
X2198Y186D01*
X2200Y186D01*
X2200Y194D01*
X2202Y194D01*
X2202Y198D01*
X2204Y198D01*
X2204Y202D01*
X2206Y202D01*
X2206Y204D01*
X2208Y204D01*
X2208Y208D01*
X2210Y208D01*
X2210Y210D01*
X2212Y210D01*
X2212Y212D01*
X2214Y212D01*
X2214Y214D01*
X2218Y214D01*
X2218Y216D01*
X2220Y216D01*
X2220Y218D01*
X2224Y218D01*
X2224Y220D01*
X2228Y220D01*
X2228Y222D01*
X2236Y222D01*
X2236Y224D01*
X2054Y224D01*
G37*
D02*
G36*
X2254Y224D02*
X2254Y222D01*
X2260Y222D01*
X2260Y220D01*
X2264Y220D01*
X2264Y218D01*
X2268Y218D01*
X2268Y216D01*
X2272Y216D01*
X2272Y214D01*
X2274Y214D01*
X2274Y212D01*
X2276Y212D01*
X2276Y210D01*
X2278Y210D01*
X2278Y208D01*
X2280Y208D01*
X2280Y206D01*
X2282Y206D01*
X2282Y204D01*
X2284Y204D01*
X2284Y200D01*
X2304Y200D01*
X2304Y202D01*
X2306Y202D01*
X2306Y204D01*
X2308Y204D01*
X2308Y208D01*
X2310Y208D01*
X2310Y210D01*
X2312Y210D01*
X2312Y212D01*
X2314Y212D01*
X2314Y214D01*
X2318Y214D01*
X2318Y216D01*
X2320Y216D01*
X2320Y218D01*
X2324Y218D01*
X2324Y220D01*
X2328Y220D01*
X2328Y222D01*
X2336Y222D01*
X2336Y224D01*
X2254Y224D01*
G37*
D02*
G36*
X2354Y224D02*
X2354Y222D01*
X2360Y222D01*
X2360Y220D01*
X2364Y220D01*
X2364Y218D01*
X2368Y218D01*
X2368Y216D01*
X2372Y216D01*
X2372Y214D01*
X2374Y214D01*
X2374Y212D01*
X2376Y212D01*
X2376Y210D01*
X2378Y210D01*
X2378Y208D01*
X2380Y208D01*
X2380Y206D01*
X2382Y206D01*
X2382Y204D01*
X2384Y204D01*
X2384Y200D01*
X2404Y200D01*
X2404Y202D01*
X2406Y202D01*
X2406Y204D01*
X2408Y204D01*
X2408Y208D01*
X2410Y208D01*
X2410Y210D01*
X2412Y210D01*
X2412Y212D01*
X2414Y212D01*
X2414Y214D01*
X2418Y214D01*
X2418Y216D01*
X2420Y216D01*
X2420Y218D01*
X2424Y218D01*
X2424Y220D01*
X2428Y220D01*
X2428Y222D01*
X2436Y222D01*
X2436Y224D01*
X2354Y224D01*
G37*
D02*
G36*
X2454Y224D02*
X2454Y222D01*
X2460Y222D01*
X2460Y220D01*
X2464Y220D01*
X2464Y218D01*
X2468Y218D01*
X2468Y216D01*
X2472Y216D01*
X2472Y214D01*
X2474Y214D01*
X2474Y212D01*
X2476Y212D01*
X2476Y210D01*
X2478Y210D01*
X2478Y208D01*
X2480Y208D01*
X2480Y206D01*
X2482Y206D01*
X2482Y204D01*
X2484Y204D01*
X2484Y200D01*
X2504Y200D01*
X2504Y202D01*
X2506Y202D01*
X2506Y204D01*
X2508Y204D01*
X2508Y208D01*
X2510Y208D01*
X2510Y210D01*
X2512Y210D01*
X2512Y212D01*
X2514Y212D01*
X2514Y214D01*
X2518Y214D01*
X2518Y216D01*
X2520Y216D01*
X2520Y218D01*
X2524Y218D01*
X2524Y220D01*
X2528Y220D01*
X2528Y222D01*
X2536Y222D01*
X2536Y224D01*
X2454Y224D01*
G37*
D02*
G36*
X2554Y224D02*
X2554Y222D01*
X2560Y222D01*
X2560Y220D01*
X2564Y220D01*
X2564Y218D01*
X2568Y218D01*
X2568Y216D01*
X2572Y216D01*
X2572Y214D01*
X2574Y214D01*
X2574Y212D01*
X2576Y212D01*
X2576Y210D01*
X2578Y210D01*
X2578Y208D01*
X2580Y208D01*
X2580Y206D01*
X2582Y206D01*
X2582Y204D01*
X2584Y204D01*
X2584Y200D01*
X2604Y200D01*
X2604Y202D01*
X2606Y202D01*
X2606Y204D01*
X2608Y204D01*
X2608Y208D01*
X2610Y208D01*
X2610Y210D01*
X2612Y210D01*
X2612Y212D01*
X2614Y212D01*
X2614Y214D01*
X2618Y214D01*
X2618Y216D01*
X2620Y216D01*
X2620Y218D01*
X2624Y218D01*
X2624Y220D01*
X2628Y220D01*
X2628Y222D01*
X2636Y222D01*
X2636Y224D01*
X2554Y224D01*
G37*
D02*
G36*
X2654Y224D02*
X2654Y222D01*
X2660Y222D01*
X2660Y220D01*
X2664Y220D01*
X2664Y218D01*
X2668Y218D01*
X2668Y216D01*
X2672Y216D01*
X2672Y214D01*
X2674Y214D01*
X2674Y212D01*
X2676Y212D01*
X2676Y210D01*
X2678Y210D01*
X2678Y208D01*
X2680Y208D01*
X2680Y206D01*
X2682Y206D01*
X2682Y204D01*
X2684Y204D01*
X2684Y200D01*
X2704Y200D01*
X2704Y202D01*
X2706Y202D01*
X2706Y204D01*
X2708Y204D01*
X2708Y208D01*
X2710Y208D01*
X2710Y210D01*
X2712Y210D01*
X2712Y212D01*
X2714Y212D01*
X2714Y214D01*
X2718Y214D01*
X2718Y216D01*
X2720Y216D01*
X2720Y218D01*
X2724Y218D01*
X2724Y220D01*
X2728Y220D01*
X2728Y222D01*
X2736Y222D01*
X2736Y224D01*
X2654Y224D01*
G37*
D02*
G36*
X2754Y224D02*
X2754Y222D01*
X2760Y222D01*
X2760Y220D01*
X2764Y220D01*
X2764Y218D01*
X2768Y218D01*
X2768Y216D01*
X2772Y216D01*
X2772Y214D01*
X2774Y214D01*
X2774Y212D01*
X2776Y212D01*
X2776Y210D01*
X2778Y210D01*
X2778Y208D01*
X2780Y208D01*
X2780Y206D01*
X2782Y206D01*
X2782Y204D01*
X2784Y204D01*
X2784Y200D01*
X2804Y200D01*
X2804Y202D01*
X2806Y202D01*
X2806Y204D01*
X2808Y204D01*
X2808Y208D01*
X2810Y208D01*
X2810Y210D01*
X2812Y210D01*
X2812Y212D01*
X2814Y212D01*
X2814Y214D01*
X2818Y214D01*
X2818Y216D01*
X2820Y216D01*
X2820Y218D01*
X2824Y218D01*
X2824Y220D01*
X2828Y220D01*
X2828Y222D01*
X2836Y222D01*
X2836Y224D01*
X2754Y224D01*
G37*
D02*
G36*
X2854Y224D02*
X2854Y222D01*
X2860Y222D01*
X2860Y220D01*
X2864Y220D01*
X2864Y218D01*
X2868Y218D01*
X2868Y216D01*
X2872Y216D01*
X2872Y214D01*
X2874Y214D01*
X2874Y212D01*
X2876Y212D01*
X2876Y210D01*
X2878Y210D01*
X2878Y208D01*
X2880Y208D01*
X2880Y206D01*
X2882Y206D01*
X2882Y204D01*
X2884Y204D01*
X2884Y200D01*
X2904Y200D01*
X2904Y202D01*
X2906Y202D01*
X2906Y204D01*
X2908Y204D01*
X2908Y208D01*
X2910Y208D01*
X2910Y210D01*
X2912Y210D01*
X2912Y212D01*
X2914Y212D01*
X2914Y214D01*
X2918Y214D01*
X2918Y216D01*
X2920Y216D01*
X2920Y218D01*
X2924Y218D01*
X2924Y220D01*
X2928Y220D01*
X2928Y222D01*
X2936Y222D01*
X2936Y224D01*
X2854Y224D01*
G37*
D02*
G36*
X484Y156D02*
X484Y152D01*
X482Y152D01*
X482Y150D01*
X480Y150D01*
X480Y146D01*
X478Y146D01*
X478Y144D01*
X476Y144D01*
X476Y142D01*
X472Y142D01*
X472Y140D01*
X470Y140D01*
X470Y138D01*
X466Y138D01*
X466Y136D01*
X462Y136D01*
X462Y134D01*
X456Y134D01*
X456Y132D01*
X532Y132D01*
X532Y134D01*
X526Y134D01*
X526Y136D01*
X522Y136D01*
X522Y138D01*
X518Y138D01*
X518Y140D01*
X516Y140D01*
X516Y142D01*
X514Y142D01*
X514Y144D01*
X512Y144D01*
X512Y146D01*
X510Y146D01*
X510Y148D01*
X508Y148D01*
X508Y150D01*
X506Y150D01*
X506Y154D01*
X504Y154D01*
X504Y156D01*
X484Y156D01*
G37*
D02*
G36*
X584Y156D02*
X584Y152D01*
X582Y152D01*
X582Y150D01*
X580Y150D01*
X580Y146D01*
X578Y146D01*
X578Y144D01*
X576Y144D01*
X576Y142D01*
X572Y142D01*
X572Y140D01*
X570Y140D01*
X570Y138D01*
X566Y138D01*
X566Y136D01*
X562Y136D01*
X562Y134D01*
X556Y134D01*
X556Y132D01*
X632Y132D01*
X632Y134D01*
X626Y134D01*
X626Y136D01*
X622Y136D01*
X622Y138D01*
X618Y138D01*
X618Y140D01*
X616Y140D01*
X616Y142D01*
X614Y142D01*
X614Y144D01*
X612Y144D01*
X612Y146D01*
X610Y146D01*
X610Y148D01*
X608Y148D01*
X608Y150D01*
X606Y150D01*
X606Y154D01*
X604Y154D01*
X604Y156D01*
X584Y156D01*
G37*
D02*
G36*
X684Y156D02*
X684Y152D01*
X682Y152D01*
X682Y150D01*
X680Y150D01*
X680Y146D01*
X678Y146D01*
X678Y144D01*
X676Y144D01*
X676Y142D01*
X672Y142D01*
X672Y140D01*
X670Y140D01*
X670Y138D01*
X666Y138D01*
X666Y136D01*
X662Y136D01*
X662Y134D01*
X656Y134D01*
X656Y132D01*
X732Y132D01*
X732Y134D01*
X726Y134D01*
X726Y136D01*
X722Y136D01*
X722Y138D01*
X718Y138D01*
X718Y140D01*
X716Y140D01*
X716Y142D01*
X714Y142D01*
X714Y144D01*
X712Y144D01*
X712Y146D01*
X710Y146D01*
X710Y148D01*
X708Y148D01*
X708Y150D01*
X706Y150D01*
X706Y154D01*
X704Y154D01*
X704Y156D01*
X684Y156D01*
G37*
D02*
G36*
X784Y156D02*
X784Y152D01*
X782Y152D01*
X782Y150D01*
X780Y150D01*
X780Y146D01*
X778Y146D01*
X778Y144D01*
X776Y144D01*
X776Y142D01*
X772Y142D01*
X772Y140D01*
X770Y140D01*
X770Y138D01*
X766Y138D01*
X766Y136D01*
X762Y136D01*
X762Y134D01*
X756Y134D01*
X756Y132D01*
X832Y132D01*
X832Y134D01*
X826Y134D01*
X826Y136D01*
X822Y136D01*
X822Y138D01*
X818Y138D01*
X818Y140D01*
X816Y140D01*
X816Y142D01*
X814Y142D01*
X814Y144D01*
X812Y144D01*
X812Y146D01*
X810Y146D01*
X810Y148D01*
X808Y148D01*
X808Y150D01*
X806Y150D01*
X806Y154D01*
X804Y154D01*
X804Y156D01*
X784Y156D01*
G37*
D02*
G36*
X884Y156D02*
X884Y152D01*
X882Y152D01*
X882Y150D01*
X880Y150D01*
X880Y146D01*
X878Y146D01*
X878Y144D01*
X876Y144D01*
X876Y142D01*
X872Y142D01*
X872Y140D01*
X870Y140D01*
X870Y138D01*
X866Y138D01*
X866Y136D01*
X862Y136D01*
X862Y134D01*
X856Y134D01*
X856Y132D01*
X932Y132D01*
X932Y134D01*
X926Y134D01*
X926Y136D01*
X922Y136D01*
X922Y138D01*
X918Y138D01*
X918Y140D01*
X916Y140D01*
X916Y142D01*
X914Y142D01*
X914Y144D01*
X912Y144D01*
X912Y146D01*
X910Y146D01*
X910Y148D01*
X908Y148D01*
X908Y150D01*
X906Y150D01*
X906Y154D01*
X904Y154D01*
X904Y156D01*
X884Y156D01*
G37*
D02*
G36*
X984Y156D02*
X984Y152D01*
X982Y152D01*
X982Y150D01*
X980Y150D01*
X980Y146D01*
X978Y146D01*
X978Y144D01*
X976Y144D01*
X976Y142D01*
X972Y142D01*
X972Y140D01*
X970Y140D01*
X970Y138D01*
X966Y138D01*
X966Y136D01*
X962Y136D01*
X962Y134D01*
X956Y134D01*
X956Y132D01*
X1032Y132D01*
X1032Y134D01*
X1026Y134D01*
X1026Y136D01*
X1022Y136D01*
X1022Y138D01*
X1018Y138D01*
X1018Y140D01*
X1016Y140D01*
X1016Y142D01*
X1014Y142D01*
X1014Y144D01*
X1012Y144D01*
X1012Y146D01*
X1010Y146D01*
X1010Y148D01*
X1008Y148D01*
X1008Y150D01*
X1006Y150D01*
X1006Y154D01*
X1004Y154D01*
X1004Y156D01*
X984Y156D01*
G37*
D02*
G36*
X1084Y156D02*
X1084Y152D01*
X1082Y152D01*
X1082Y150D01*
X1080Y150D01*
X1080Y146D01*
X1078Y146D01*
X1078Y144D01*
X1076Y144D01*
X1076Y142D01*
X1072Y142D01*
X1072Y140D01*
X1070Y140D01*
X1070Y138D01*
X1066Y138D01*
X1066Y136D01*
X1062Y136D01*
X1062Y134D01*
X1056Y134D01*
X1056Y132D01*
X1132Y132D01*
X1132Y134D01*
X1126Y134D01*
X1126Y136D01*
X1122Y136D01*
X1122Y138D01*
X1118Y138D01*
X1118Y140D01*
X1116Y140D01*
X1116Y142D01*
X1114Y142D01*
X1114Y144D01*
X1112Y144D01*
X1112Y146D01*
X1110Y146D01*
X1110Y148D01*
X1108Y148D01*
X1108Y150D01*
X1106Y150D01*
X1106Y154D01*
X1104Y154D01*
X1104Y156D01*
X1084Y156D01*
G37*
D02*
G36*
X1384Y156D02*
X1384Y152D01*
X1382Y152D01*
X1382Y150D01*
X1380Y150D01*
X1380Y146D01*
X1378Y146D01*
X1378Y144D01*
X1376Y144D01*
X1376Y142D01*
X1372Y142D01*
X1372Y140D01*
X1370Y140D01*
X1370Y138D01*
X1366Y138D01*
X1366Y136D01*
X1362Y136D01*
X1362Y134D01*
X1356Y134D01*
X1356Y132D01*
X1432Y132D01*
X1432Y134D01*
X1426Y134D01*
X1426Y136D01*
X1422Y136D01*
X1422Y138D01*
X1418Y138D01*
X1418Y140D01*
X1416Y140D01*
X1416Y142D01*
X1414Y142D01*
X1414Y144D01*
X1412Y144D01*
X1412Y146D01*
X1410Y146D01*
X1410Y148D01*
X1408Y148D01*
X1408Y150D01*
X1406Y150D01*
X1406Y154D01*
X1404Y154D01*
X1404Y156D01*
X1384Y156D01*
G37*
D02*
G36*
X1484Y156D02*
X1484Y152D01*
X1482Y152D01*
X1482Y150D01*
X1480Y150D01*
X1480Y146D01*
X1478Y146D01*
X1478Y144D01*
X1476Y144D01*
X1476Y142D01*
X1472Y142D01*
X1472Y140D01*
X1470Y140D01*
X1470Y138D01*
X1466Y138D01*
X1466Y136D01*
X1462Y136D01*
X1462Y134D01*
X1456Y134D01*
X1456Y132D01*
X1532Y132D01*
X1532Y134D01*
X1526Y134D01*
X1526Y136D01*
X1522Y136D01*
X1522Y138D01*
X1518Y138D01*
X1518Y140D01*
X1516Y140D01*
X1516Y142D01*
X1514Y142D01*
X1514Y144D01*
X1512Y144D01*
X1512Y146D01*
X1510Y146D01*
X1510Y148D01*
X1508Y148D01*
X1508Y150D01*
X1506Y150D01*
X1506Y154D01*
X1504Y154D01*
X1504Y156D01*
X1484Y156D01*
G37*
D02*
G36*
X1584Y156D02*
X1584Y152D01*
X1582Y152D01*
X1582Y150D01*
X1580Y150D01*
X1580Y146D01*
X1578Y146D01*
X1578Y144D01*
X1576Y144D01*
X1576Y142D01*
X1572Y142D01*
X1572Y140D01*
X1570Y140D01*
X1570Y138D01*
X1566Y138D01*
X1566Y136D01*
X1562Y136D01*
X1562Y134D01*
X1556Y134D01*
X1556Y132D01*
X1632Y132D01*
X1632Y134D01*
X1626Y134D01*
X1626Y136D01*
X1622Y136D01*
X1622Y138D01*
X1618Y138D01*
X1618Y140D01*
X1616Y140D01*
X1616Y142D01*
X1614Y142D01*
X1614Y144D01*
X1612Y144D01*
X1612Y146D01*
X1610Y146D01*
X1610Y148D01*
X1608Y148D01*
X1608Y150D01*
X1606Y150D01*
X1606Y154D01*
X1604Y154D01*
X1604Y156D01*
X1584Y156D01*
G37*
D02*
G36*
X1684Y156D02*
X1684Y152D01*
X1682Y152D01*
X1682Y150D01*
X1680Y150D01*
X1680Y146D01*
X1678Y146D01*
X1678Y144D01*
X1676Y144D01*
X1676Y142D01*
X1672Y142D01*
X1672Y140D01*
X1670Y140D01*
X1670Y138D01*
X1666Y138D01*
X1666Y136D01*
X1662Y136D01*
X1662Y134D01*
X1656Y134D01*
X1656Y132D01*
X1732Y132D01*
X1732Y134D01*
X1726Y134D01*
X1726Y136D01*
X1722Y136D01*
X1722Y138D01*
X1718Y138D01*
X1718Y140D01*
X1716Y140D01*
X1716Y142D01*
X1714Y142D01*
X1714Y144D01*
X1712Y144D01*
X1712Y146D01*
X1710Y146D01*
X1710Y148D01*
X1708Y148D01*
X1708Y150D01*
X1706Y150D01*
X1706Y154D01*
X1704Y154D01*
X1704Y156D01*
X1684Y156D01*
G37*
D02*
G36*
X1784Y156D02*
X1784Y152D01*
X1782Y152D01*
X1782Y150D01*
X1780Y150D01*
X1780Y146D01*
X1778Y146D01*
X1778Y144D01*
X1776Y144D01*
X1776Y142D01*
X1772Y142D01*
X1772Y140D01*
X1770Y140D01*
X1770Y138D01*
X1766Y138D01*
X1766Y136D01*
X1762Y136D01*
X1762Y134D01*
X1756Y134D01*
X1756Y132D01*
X1832Y132D01*
X1832Y134D01*
X1826Y134D01*
X1826Y136D01*
X1822Y136D01*
X1822Y138D01*
X1818Y138D01*
X1818Y140D01*
X1816Y140D01*
X1816Y142D01*
X1814Y142D01*
X1814Y144D01*
X1812Y144D01*
X1812Y146D01*
X1810Y146D01*
X1810Y148D01*
X1808Y148D01*
X1808Y150D01*
X1806Y150D01*
X1806Y154D01*
X1804Y154D01*
X1804Y156D01*
X1784Y156D01*
G37*
D02*
G36*
X1884Y156D02*
X1884Y152D01*
X1882Y152D01*
X1882Y150D01*
X1880Y150D01*
X1880Y146D01*
X1878Y146D01*
X1878Y144D01*
X1876Y144D01*
X1876Y142D01*
X1872Y142D01*
X1872Y140D01*
X1870Y140D01*
X1870Y138D01*
X1866Y138D01*
X1866Y136D01*
X1862Y136D01*
X1862Y134D01*
X1856Y134D01*
X1856Y132D01*
X1932Y132D01*
X1932Y134D01*
X1926Y134D01*
X1926Y136D01*
X1922Y136D01*
X1922Y138D01*
X1918Y138D01*
X1918Y140D01*
X1916Y140D01*
X1916Y142D01*
X1914Y142D01*
X1914Y144D01*
X1912Y144D01*
X1912Y146D01*
X1910Y146D01*
X1910Y148D01*
X1908Y148D01*
X1908Y150D01*
X1906Y150D01*
X1906Y154D01*
X1904Y154D01*
X1904Y156D01*
X1884Y156D01*
G37*
D02*
G36*
X1984Y156D02*
X1984Y152D01*
X1982Y152D01*
X1982Y150D01*
X1980Y150D01*
X1980Y146D01*
X1978Y146D01*
X1978Y144D01*
X1976Y144D01*
X1976Y142D01*
X1972Y142D01*
X1972Y140D01*
X1970Y140D01*
X1970Y138D01*
X1966Y138D01*
X1966Y136D01*
X1962Y136D01*
X1962Y134D01*
X1956Y134D01*
X1956Y132D01*
X2032Y132D01*
X2032Y134D01*
X2026Y134D01*
X2026Y136D01*
X2022Y136D01*
X2022Y138D01*
X2018Y138D01*
X2018Y140D01*
X2016Y140D01*
X2016Y142D01*
X2014Y142D01*
X2014Y144D01*
X2012Y144D01*
X2012Y146D01*
X2010Y146D01*
X2010Y148D01*
X2008Y148D01*
X2008Y150D01*
X2006Y150D01*
X2006Y154D01*
X2004Y154D01*
X2004Y156D01*
X1984Y156D01*
G37*
D02*
G36*
X2284Y156D02*
X2284Y152D01*
X2282Y152D01*
X2282Y150D01*
X2280Y150D01*
X2280Y146D01*
X2278Y146D01*
X2278Y144D01*
X2276Y144D01*
X2276Y142D01*
X2272Y142D01*
X2272Y140D01*
X2270Y140D01*
X2270Y138D01*
X2266Y138D01*
X2266Y136D01*
X2262Y136D01*
X2262Y134D01*
X2256Y134D01*
X2256Y132D01*
X2332Y132D01*
X2332Y134D01*
X2326Y134D01*
X2326Y136D01*
X2322Y136D01*
X2322Y138D01*
X2318Y138D01*
X2318Y140D01*
X2316Y140D01*
X2316Y142D01*
X2314Y142D01*
X2314Y144D01*
X2312Y144D01*
X2312Y146D01*
X2310Y146D01*
X2310Y148D01*
X2308Y148D01*
X2308Y150D01*
X2306Y150D01*
X2306Y154D01*
X2304Y154D01*
X2304Y156D01*
X2284Y156D01*
G37*
D02*
G36*
X2384Y156D02*
X2384Y152D01*
X2382Y152D01*
X2382Y150D01*
X2380Y150D01*
X2380Y146D01*
X2378Y146D01*
X2378Y144D01*
X2376Y144D01*
X2376Y142D01*
X2372Y142D01*
X2372Y140D01*
X2370Y140D01*
X2370Y138D01*
X2366Y138D01*
X2366Y136D01*
X2362Y136D01*
X2362Y134D01*
X2356Y134D01*
X2356Y132D01*
X2432Y132D01*
X2432Y134D01*
X2426Y134D01*
X2426Y136D01*
X2422Y136D01*
X2422Y138D01*
X2418Y138D01*
X2418Y140D01*
X2416Y140D01*
X2416Y142D01*
X2414Y142D01*
X2414Y144D01*
X2412Y144D01*
X2412Y146D01*
X2410Y146D01*
X2410Y148D01*
X2408Y148D01*
X2408Y150D01*
X2406Y150D01*
X2406Y154D01*
X2404Y154D01*
X2404Y156D01*
X2384Y156D01*
G37*
D02*
G36*
X2484Y156D02*
X2484Y152D01*
X2482Y152D01*
X2482Y150D01*
X2480Y150D01*
X2480Y146D01*
X2478Y146D01*
X2478Y144D01*
X2476Y144D01*
X2476Y142D01*
X2472Y142D01*
X2472Y140D01*
X2470Y140D01*
X2470Y138D01*
X2466Y138D01*
X2466Y136D01*
X2462Y136D01*
X2462Y134D01*
X2456Y134D01*
X2456Y132D01*
X2532Y132D01*
X2532Y134D01*
X2526Y134D01*
X2526Y136D01*
X2522Y136D01*
X2522Y138D01*
X2518Y138D01*
X2518Y140D01*
X2516Y140D01*
X2516Y142D01*
X2514Y142D01*
X2514Y144D01*
X2512Y144D01*
X2512Y146D01*
X2510Y146D01*
X2510Y148D01*
X2508Y148D01*
X2508Y150D01*
X2506Y150D01*
X2506Y154D01*
X2504Y154D01*
X2504Y156D01*
X2484Y156D01*
G37*
D02*
G36*
X2584Y156D02*
X2584Y152D01*
X2582Y152D01*
X2582Y150D01*
X2580Y150D01*
X2580Y146D01*
X2578Y146D01*
X2578Y144D01*
X2576Y144D01*
X2576Y142D01*
X2572Y142D01*
X2572Y140D01*
X2570Y140D01*
X2570Y138D01*
X2566Y138D01*
X2566Y136D01*
X2562Y136D01*
X2562Y134D01*
X2556Y134D01*
X2556Y132D01*
X2632Y132D01*
X2632Y134D01*
X2626Y134D01*
X2626Y136D01*
X2622Y136D01*
X2622Y138D01*
X2618Y138D01*
X2618Y140D01*
X2616Y140D01*
X2616Y142D01*
X2614Y142D01*
X2614Y144D01*
X2612Y144D01*
X2612Y146D01*
X2610Y146D01*
X2610Y148D01*
X2608Y148D01*
X2608Y150D01*
X2606Y150D01*
X2606Y154D01*
X2604Y154D01*
X2604Y156D01*
X2584Y156D01*
G37*
D02*
G36*
X2684Y156D02*
X2684Y152D01*
X2682Y152D01*
X2682Y150D01*
X2680Y150D01*
X2680Y146D01*
X2678Y146D01*
X2678Y144D01*
X2676Y144D01*
X2676Y142D01*
X2672Y142D01*
X2672Y140D01*
X2670Y140D01*
X2670Y138D01*
X2666Y138D01*
X2666Y136D01*
X2662Y136D01*
X2662Y134D01*
X2656Y134D01*
X2656Y132D01*
X2732Y132D01*
X2732Y134D01*
X2726Y134D01*
X2726Y136D01*
X2722Y136D01*
X2722Y138D01*
X2718Y138D01*
X2718Y140D01*
X2716Y140D01*
X2716Y142D01*
X2714Y142D01*
X2714Y144D01*
X2712Y144D01*
X2712Y146D01*
X2710Y146D01*
X2710Y148D01*
X2708Y148D01*
X2708Y150D01*
X2706Y150D01*
X2706Y154D01*
X2704Y154D01*
X2704Y156D01*
X2684Y156D01*
G37*
D02*
G36*
X2784Y156D02*
X2784Y152D01*
X2782Y152D01*
X2782Y150D01*
X2780Y150D01*
X2780Y146D01*
X2778Y146D01*
X2778Y144D01*
X2776Y144D01*
X2776Y142D01*
X2772Y142D01*
X2772Y140D01*
X2770Y140D01*
X2770Y138D01*
X2766Y138D01*
X2766Y136D01*
X2762Y136D01*
X2762Y134D01*
X2756Y134D01*
X2756Y132D01*
X2832Y132D01*
X2832Y134D01*
X2826Y134D01*
X2826Y136D01*
X2822Y136D01*
X2822Y138D01*
X2818Y138D01*
X2818Y140D01*
X2816Y140D01*
X2816Y142D01*
X2814Y142D01*
X2814Y144D01*
X2812Y144D01*
X2812Y146D01*
X2810Y146D01*
X2810Y148D01*
X2808Y148D01*
X2808Y150D01*
X2806Y150D01*
X2806Y154D01*
X2804Y154D01*
X2804Y156D01*
X2784Y156D01*
G37*
D02*
G36*
X2884Y156D02*
X2884Y152D01*
X2882Y152D01*
X2882Y150D01*
X2880Y150D01*
X2880Y146D01*
X2878Y146D01*
X2878Y144D01*
X2876Y144D01*
X2876Y142D01*
X2872Y142D01*
X2872Y140D01*
X2870Y140D01*
X2870Y138D01*
X2866Y138D01*
X2866Y136D01*
X2862Y136D01*
X2862Y134D01*
X2856Y134D01*
X2856Y132D01*
X2932Y132D01*
X2932Y134D01*
X2926Y134D01*
X2926Y136D01*
X2922Y136D01*
X2922Y138D01*
X2918Y138D01*
X2918Y140D01*
X2916Y140D01*
X2916Y142D01*
X2914Y142D01*
X2914Y144D01*
X2912Y144D01*
X2912Y146D01*
X2910Y146D01*
X2910Y148D01*
X2908Y148D01*
X2908Y150D01*
X2906Y150D01*
X2906Y154D01*
X2904Y154D01*
X2904Y156D01*
X2884Y156D01*
G37*
D02*
G36*
X40Y132D02*
X40Y130D01*
X3292Y130D01*
X3292Y132D01*
X40Y132D01*
G37*
D02*
G36*
X40Y132D02*
X40Y130D01*
X3292Y130D01*
X3292Y132D01*
X40Y132D01*
G37*
D02*
G36*
X40Y132D02*
X40Y130D01*
X3292Y130D01*
X3292Y132D01*
X40Y132D01*
G37*
D02*
G36*
X40Y132D02*
X40Y130D01*
X3292Y130D01*
X3292Y132D01*
X40Y132D01*
G37*
D02*
G36*
X40Y132D02*
X40Y130D01*
X3292Y130D01*
X3292Y132D01*
X40Y132D01*
G37*
D02*
G36*
X40Y132D02*
X40Y130D01*
X3292Y130D01*
X3292Y132D01*
X40Y132D01*
G37*
D02*
G36*
X40Y132D02*
X40Y130D01*
X3292Y130D01*
X3292Y132D01*
X40Y132D01*
G37*
D02*
G36*
X40Y132D02*
X40Y130D01*
X3292Y130D01*
X3292Y132D01*
X40Y132D01*
G37*
D02*
G36*
X40Y132D02*
X40Y130D01*
X3292Y130D01*
X3292Y132D01*
X40Y132D01*
G37*
D02*
G36*
X40Y132D02*
X40Y130D01*
X3292Y130D01*
X3292Y132D01*
X40Y132D01*
G37*
D02*
G36*
X40Y132D02*
X40Y130D01*
X3292Y130D01*
X3292Y132D01*
X40Y132D01*
G37*
D02*
G36*
X40Y132D02*
X40Y130D01*
X3292Y130D01*
X3292Y132D01*
X40Y132D01*
G37*
D02*
G36*
X40Y132D02*
X40Y130D01*
X3292Y130D01*
X3292Y132D01*
X40Y132D01*
G37*
D02*
G36*
X40Y132D02*
X40Y130D01*
X3292Y130D01*
X3292Y132D01*
X40Y132D01*
G37*
D02*
G36*
X40Y132D02*
X40Y130D01*
X3292Y130D01*
X3292Y132D01*
X40Y132D01*
G37*
D02*
G36*
X40Y132D02*
X40Y130D01*
X3292Y130D01*
X3292Y132D01*
X40Y132D01*
G37*
D02*
G36*
X40Y132D02*
X40Y130D01*
X3292Y130D01*
X3292Y132D01*
X40Y132D01*
G37*
D02*
G36*
X40Y132D02*
X40Y130D01*
X3292Y130D01*
X3292Y132D01*
X40Y132D01*
G37*
D02*
G36*
X40Y132D02*
X40Y130D01*
X3292Y130D01*
X3292Y132D01*
X40Y132D01*
G37*
D02*
G36*
X40Y132D02*
X40Y130D01*
X3292Y130D01*
X3292Y132D01*
X40Y132D01*
G37*
D02*
G36*
X40Y132D02*
X40Y130D01*
X3292Y130D01*
X3292Y132D01*
X40Y132D01*
G37*
D02*
G36*
X40Y132D02*
X40Y130D01*
X3292Y130D01*
X3292Y132D01*
X40Y132D01*
G37*
D02*
G36*
X40Y132D02*
X40Y130D01*
X3292Y130D01*
X3292Y132D01*
X40Y132D01*
G37*
D02*
G36*
X40Y132D02*
X40Y130D01*
X3292Y130D01*
X3292Y132D01*
X40Y132D01*
G37*
D02*
G36*
X40Y132D02*
X40Y130D01*
X3292Y130D01*
X3292Y132D01*
X40Y132D01*
G37*
D02*
G36*
X40Y130D02*
X40Y40D01*
X3292Y40D01*
X3292Y130D01*
X40Y130D01*
G37*
D02*
G36*
X3084Y1956D02*
X3084Y1952D01*
X3082Y1952D01*
X3082Y1950D01*
X3080Y1950D01*
X3080Y1946D01*
X3078Y1946D01*
X3078Y1944D01*
X3076Y1944D01*
X3076Y1942D01*
X3072Y1942D01*
X3072Y1940D01*
X3070Y1940D01*
X3070Y1938D01*
X3066Y1938D01*
X3066Y1918D01*
X3068Y1918D01*
X3068Y1916D01*
X3072Y1916D01*
X3072Y1914D01*
X3074Y1914D01*
X3074Y1912D01*
X3076Y1912D01*
X3076Y1910D01*
X3078Y1910D01*
X3078Y1908D01*
X3080Y1908D01*
X3080Y1906D01*
X3082Y1906D01*
X3082Y1904D01*
X3084Y1904D01*
X3084Y1900D01*
X3104Y1900D01*
X3104Y1902D01*
X3106Y1902D01*
X3106Y1904D01*
X3108Y1904D01*
X3108Y1908D01*
X3110Y1908D01*
X3110Y1910D01*
X3112Y1910D01*
X3112Y1912D01*
X3114Y1912D01*
X3114Y1914D01*
X3118Y1914D01*
X3118Y1916D01*
X3120Y1916D01*
X3120Y1918D01*
X3122Y1918D01*
X3122Y1938D01*
X3118Y1938D01*
X3118Y1940D01*
X3116Y1940D01*
X3116Y1942D01*
X3114Y1942D01*
X3114Y1944D01*
X3112Y1944D01*
X3112Y1946D01*
X3110Y1946D01*
X3110Y1948D01*
X3108Y1948D01*
X3108Y1950D01*
X3106Y1950D01*
X3106Y1954D01*
X3104Y1954D01*
X3104Y1956D01*
X3084Y1956D01*
G37*
D02*
G36*
X3084Y1856D02*
X3084Y1852D01*
X3082Y1852D01*
X3082Y1850D01*
X3080Y1850D01*
X3080Y1846D01*
X3078Y1846D01*
X3078Y1844D01*
X3076Y1844D01*
X3076Y1842D01*
X3072Y1842D01*
X3072Y1840D01*
X3070Y1840D01*
X3070Y1838D01*
X3066Y1838D01*
X3066Y1818D01*
X3068Y1818D01*
X3068Y1816D01*
X3072Y1816D01*
X3072Y1814D01*
X3074Y1814D01*
X3074Y1812D01*
X3076Y1812D01*
X3076Y1810D01*
X3078Y1810D01*
X3078Y1808D01*
X3080Y1808D01*
X3080Y1806D01*
X3082Y1806D01*
X3082Y1804D01*
X3084Y1804D01*
X3084Y1800D01*
X3104Y1800D01*
X3104Y1802D01*
X3106Y1802D01*
X3106Y1804D01*
X3108Y1804D01*
X3108Y1808D01*
X3110Y1808D01*
X3110Y1810D01*
X3112Y1810D01*
X3112Y1812D01*
X3114Y1812D01*
X3114Y1814D01*
X3118Y1814D01*
X3118Y1816D01*
X3120Y1816D01*
X3120Y1818D01*
X3122Y1818D01*
X3122Y1838D01*
X3118Y1838D01*
X3118Y1840D01*
X3116Y1840D01*
X3116Y1842D01*
X3114Y1842D01*
X3114Y1844D01*
X3112Y1844D01*
X3112Y1846D01*
X3110Y1846D01*
X3110Y1848D01*
X3108Y1848D01*
X3108Y1850D01*
X3106Y1850D01*
X3106Y1854D01*
X3104Y1854D01*
X3104Y1856D01*
X3084Y1856D01*
G37*
D02*
G36*
X3084Y1756D02*
X3084Y1752D01*
X3082Y1752D01*
X3082Y1750D01*
X3080Y1750D01*
X3080Y1746D01*
X3078Y1746D01*
X3078Y1744D01*
X3076Y1744D01*
X3076Y1742D01*
X3072Y1742D01*
X3072Y1740D01*
X3070Y1740D01*
X3070Y1738D01*
X3066Y1738D01*
X3066Y1718D01*
X3068Y1718D01*
X3068Y1716D01*
X3072Y1716D01*
X3072Y1714D01*
X3074Y1714D01*
X3074Y1712D01*
X3076Y1712D01*
X3076Y1710D01*
X3078Y1710D01*
X3078Y1708D01*
X3080Y1708D01*
X3080Y1706D01*
X3082Y1706D01*
X3082Y1704D01*
X3084Y1704D01*
X3084Y1700D01*
X3104Y1700D01*
X3104Y1702D01*
X3106Y1702D01*
X3106Y1704D01*
X3108Y1704D01*
X3108Y1708D01*
X3110Y1708D01*
X3110Y1710D01*
X3112Y1710D01*
X3112Y1712D01*
X3114Y1712D01*
X3114Y1714D01*
X3118Y1714D01*
X3118Y1716D01*
X3120Y1716D01*
X3120Y1718D01*
X3122Y1718D01*
X3122Y1738D01*
X3118Y1738D01*
X3118Y1740D01*
X3116Y1740D01*
X3116Y1742D01*
X3114Y1742D01*
X3114Y1744D01*
X3112Y1744D01*
X3112Y1746D01*
X3110Y1746D01*
X3110Y1748D01*
X3108Y1748D01*
X3108Y1750D01*
X3106Y1750D01*
X3106Y1754D01*
X3104Y1754D01*
X3104Y1756D01*
X3084Y1756D01*
G37*
D02*
G36*
X3084Y1656D02*
X3084Y1652D01*
X3082Y1652D01*
X3082Y1650D01*
X3080Y1650D01*
X3080Y1646D01*
X3078Y1646D01*
X3078Y1644D01*
X3076Y1644D01*
X3076Y1642D01*
X3072Y1642D01*
X3072Y1640D01*
X3070Y1640D01*
X3070Y1638D01*
X3066Y1638D01*
X3066Y1618D01*
X3068Y1618D01*
X3068Y1616D01*
X3072Y1616D01*
X3072Y1614D01*
X3074Y1614D01*
X3074Y1612D01*
X3076Y1612D01*
X3076Y1610D01*
X3078Y1610D01*
X3078Y1608D01*
X3080Y1608D01*
X3080Y1606D01*
X3082Y1606D01*
X3082Y1604D01*
X3084Y1604D01*
X3084Y1600D01*
X3104Y1600D01*
X3104Y1602D01*
X3106Y1602D01*
X3106Y1604D01*
X3108Y1604D01*
X3108Y1608D01*
X3110Y1608D01*
X3110Y1610D01*
X3112Y1610D01*
X3112Y1612D01*
X3114Y1612D01*
X3114Y1614D01*
X3118Y1614D01*
X3118Y1616D01*
X3120Y1616D01*
X3120Y1618D01*
X3122Y1618D01*
X3122Y1638D01*
X3118Y1638D01*
X3118Y1640D01*
X3116Y1640D01*
X3116Y1642D01*
X3114Y1642D01*
X3114Y1644D01*
X3112Y1644D01*
X3112Y1646D01*
X3110Y1646D01*
X3110Y1648D01*
X3108Y1648D01*
X3108Y1650D01*
X3106Y1650D01*
X3106Y1654D01*
X3104Y1654D01*
X3104Y1656D01*
X3084Y1656D01*
G37*
D02*
G36*
X3084Y1556D02*
X3084Y1552D01*
X3082Y1552D01*
X3082Y1550D01*
X3080Y1550D01*
X3080Y1546D01*
X3078Y1546D01*
X3078Y1544D01*
X3076Y1544D01*
X3076Y1542D01*
X3072Y1542D01*
X3072Y1540D01*
X3070Y1540D01*
X3070Y1538D01*
X3066Y1538D01*
X3066Y1518D01*
X3068Y1518D01*
X3068Y1516D01*
X3072Y1516D01*
X3072Y1514D01*
X3074Y1514D01*
X3074Y1512D01*
X3076Y1512D01*
X3076Y1510D01*
X3078Y1510D01*
X3078Y1508D01*
X3080Y1508D01*
X3080Y1506D01*
X3082Y1506D01*
X3082Y1504D01*
X3084Y1504D01*
X3084Y1500D01*
X3104Y1500D01*
X3104Y1502D01*
X3106Y1502D01*
X3106Y1504D01*
X3108Y1504D01*
X3108Y1508D01*
X3110Y1508D01*
X3110Y1510D01*
X3112Y1510D01*
X3112Y1512D01*
X3114Y1512D01*
X3114Y1514D01*
X3118Y1514D01*
X3118Y1516D01*
X3120Y1516D01*
X3120Y1518D01*
X3122Y1518D01*
X3122Y1538D01*
X3118Y1538D01*
X3118Y1540D01*
X3116Y1540D01*
X3116Y1542D01*
X3114Y1542D01*
X3114Y1544D01*
X3112Y1544D01*
X3112Y1546D01*
X3110Y1546D01*
X3110Y1548D01*
X3108Y1548D01*
X3108Y1550D01*
X3106Y1550D01*
X3106Y1554D01*
X3104Y1554D01*
X3104Y1556D01*
X3084Y1556D01*
G37*
D02*
G36*
X3084Y1456D02*
X3084Y1452D01*
X3082Y1452D01*
X3082Y1450D01*
X3080Y1450D01*
X3080Y1446D01*
X3078Y1446D01*
X3078Y1444D01*
X3076Y1444D01*
X3076Y1442D01*
X3072Y1442D01*
X3072Y1440D01*
X3070Y1440D01*
X3070Y1438D01*
X3066Y1438D01*
X3066Y1418D01*
X3068Y1418D01*
X3068Y1416D01*
X3072Y1416D01*
X3072Y1414D01*
X3074Y1414D01*
X3074Y1412D01*
X3076Y1412D01*
X3076Y1410D01*
X3078Y1410D01*
X3078Y1408D01*
X3080Y1408D01*
X3080Y1406D01*
X3082Y1406D01*
X3082Y1404D01*
X3084Y1404D01*
X3084Y1400D01*
X3104Y1400D01*
X3104Y1402D01*
X3106Y1402D01*
X3106Y1404D01*
X3108Y1404D01*
X3108Y1408D01*
X3110Y1408D01*
X3110Y1410D01*
X3112Y1410D01*
X3112Y1412D01*
X3114Y1412D01*
X3114Y1414D01*
X3118Y1414D01*
X3118Y1416D01*
X3120Y1416D01*
X3120Y1418D01*
X3122Y1418D01*
X3122Y1438D01*
X3118Y1438D01*
X3118Y1440D01*
X3116Y1440D01*
X3116Y1442D01*
X3114Y1442D01*
X3114Y1444D01*
X3112Y1444D01*
X3112Y1446D01*
X3110Y1446D01*
X3110Y1448D01*
X3108Y1448D01*
X3108Y1450D01*
X3106Y1450D01*
X3106Y1454D01*
X3104Y1454D01*
X3104Y1456D01*
X3084Y1456D01*
G37*
D02*
G36*
X3084Y1356D02*
X3084Y1352D01*
X3082Y1352D01*
X3082Y1350D01*
X3080Y1350D01*
X3080Y1346D01*
X3078Y1346D01*
X3078Y1344D01*
X3076Y1344D01*
X3076Y1342D01*
X3072Y1342D01*
X3072Y1340D01*
X3070Y1340D01*
X3070Y1338D01*
X3066Y1338D01*
X3066Y1318D01*
X3068Y1318D01*
X3068Y1316D01*
X3072Y1316D01*
X3072Y1314D01*
X3074Y1314D01*
X3074Y1312D01*
X3076Y1312D01*
X3076Y1310D01*
X3078Y1310D01*
X3078Y1308D01*
X3080Y1308D01*
X3080Y1306D01*
X3082Y1306D01*
X3082Y1304D01*
X3084Y1304D01*
X3084Y1300D01*
X3104Y1300D01*
X3104Y1302D01*
X3106Y1302D01*
X3106Y1304D01*
X3108Y1304D01*
X3108Y1308D01*
X3110Y1308D01*
X3110Y1310D01*
X3112Y1310D01*
X3112Y1312D01*
X3114Y1312D01*
X3114Y1314D01*
X3118Y1314D01*
X3118Y1316D01*
X3120Y1316D01*
X3120Y1318D01*
X3122Y1318D01*
X3122Y1338D01*
X3118Y1338D01*
X3118Y1340D01*
X3116Y1340D01*
X3116Y1342D01*
X3114Y1342D01*
X3114Y1344D01*
X3112Y1344D01*
X3112Y1346D01*
X3110Y1346D01*
X3110Y1348D01*
X3108Y1348D01*
X3108Y1350D01*
X3106Y1350D01*
X3106Y1354D01*
X3104Y1354D01*
X3104Y1356D01*
X3084Y1356D01*
G37*
D02*
G36*
X3084Y1256D02*
X3084Y1252D01*
X3082Y1252D01*
X3082Y1250D01*
X3080Y1250D01*
X3080Y1246D01*
X3078Y1246D01*
X3078Y1244D01*
X3076Y1244D01*
X3076Y1242D01*
X3072Y1242D01*
X3072Y1240D01*
X3070Y1240D01*
X3070Y1238D01*
X3066Y1238D01*
X3066Y1218D01*
X3068Y1218D01*
X3068Y1216D01*
X3072Y1216D01*
X3072Y1214D01*
X3074Y1214D01*
X3074Y1212D01*
X3076Y1212D01*
X3076Y1210D01*
X3078Y1210D01*
X3078Y1208D01*
X3080Y1208D01*
X3080Y1206D01*
X3082Y1206D01*
X3082Y1204D01*
X3084Y1204D01*
X3084Y1200D01*
X3104Y1200D01*
X3104Y1202D01*
X3106Y1202D01*
X3106Y1204D01*
X3108Y1204D01*
X3108Y1208D01*
X3110Y1208D01*
X3110Y1210D01*
X3112Y1210D01*
X3112Y1212D01*
X3114Y1212D01*
X3114Y1214D01*
X3118Y1214D01*
X3118Y1216D01*
X3120Y1216D01*
X3120Y1218D01*
X3122Y1218D01*
X3122Y1238D01*
X3118Y1238D01*
X3118Y1240D01*
X3116Y1240D01*
X3116Y1242D01*
X3114Y1242D01*
X3114Y1244D01*
X3112Y1244D01*
X3112Y1246D01*
X3110Y1246D01*
X3110Y1248D01*
X3108Y1248D01*
X3108Y1250D01*
X3106Y1250D01*
X3106Y1254D01*
X3104Y1254D01*
X3104Y1256D01*
X3084Y1256D01*
G37*
D02*
G36*
X3084Y1156D02*
X3084Y1152D01*
X3082Y1152D01*
X3082Y1150D01*
X3080Y1150D01*
X3080Y1146D01*
X3078Y1146D01*
X3078Y1144D01*
X3076Y1144D01*
X3076Y1142D01*
X3072Y1142D01*
X3072Y1140D01*
X3070Y1140D01*
X3070Y1138D01*
X3066Y1138D01*
X3066Y1118D01*
X3068Y1118D01*
X3068Y1116D01*
X3072Y1116D01*
X3072Y1114D01*
X3074Y1114D01*
X3074Y1112D01*
X3076Y1112D01*
X3076Y1110D01*
X3078Y1110D01*
X3078Y1108D01*
X3080Y1108D01*
X3080Y1106D01*
X3082Y1106D01*
X3082Y1104D01*
X3084Y1104D01*
X3084Y1100D01*
X3104Y1100D01*
X3104Y1102D01*
X3106Y1102D01*
X3106Y1104D01*
X3108Y1104D01*
X3108Y1108D01*
X3110Y1108D01*
X3110Y1110D01*
X3112Y1110D01*
X3112Y1112D01*
X3114Y1112D01*
X3114Y1114D01*
X3118Y1114D01*
X3118Y1116D01*
X3120Y1116D01*
X3120Y1118D01*
X3122Y1118D01*
X3122Y1138D01*
X3118Y1138D01*
X3118Y1140D01*
X3116Y1140D01*
X3116Y1142D01*
X3114Y1142D01*
X3114Y1144D01*
X3112Y1144D01*
X3112Y1146D01*
X3110Y1146D01*
X3110Y1148D01*
X3108Y1148D01*
X3108Y1150D01*
X3106Y1150D01*
X3106Y1154D01*
X3104Y1154D01*
X3104Y1156D01*
X3084Y1156D01*
G37*
D02*
G36*
X3084Y1056D02*
X3084Y1052D01*
X3082Y1052D01*
X3082Y1050D01*
X3080Y1050D01*
X3080Y1046D01*
X3078Y1046D01*
X3078Y1044D01*
X3076Y1044D01*
X3076Y1042D01*
X3072Y1042D01*
X3072Y1040D01*
X3070Y1040D01*
X3070Y1038D01*
X3066Y1038D01*
X3066Y1018D01*
X3068Y1018D01*
X3068Y1016D01*
X3072Y1016D01*
X3072Y1014D01*
X3074Y1014D01*
X3074Y1012D01*
X3076Y1012D01*
X3076Y1010D01*
X3078Y1010D01*
X3078Y1008D01*
X3080Y1008D01*
X3080Y1006D01*
X3082Y1006D01*
X3082Y1004D01*
X3084Y1004D01*
X3084Y1000D01*
X3104Y1000D01*
X3104Y1002D01*
X3106Y1002D01*
X3106Y1004D01*
X3108Y1004D01*
X3108Y1008D01*
X3110Y1008D01*
X3110Y1010D01*
X3112Y1010D01*
X3112Y1012D01*
X3114Y1012D01*
X3114Y1014D01*
X3118Y1014D01*
X3118Y1016D01*
X3120Y1016D01*
X3120Y1018D01*
X3122Y1018D01*
X3122Y1038D01*
X3118Y1038D01*
X3118Y1040D01*
X3116Y1040D01*
X3116Y1042D01*
X3114Y1042D01*
X3114Y1044D01*
X3112Y1044D01*
X3112Y1046D01*
X3110Y1046D01*
X3110Y1048D01*
X3108Y1048D01*
X3108Y1050D01*
X3106Y1050D01*
X3106Y1054D01*
X3104Y1054D01*
X3104Y1056D01*
X3084Y1056D01*
G37*
D02*
G36*
X3084Y956D02*
X3084Y952D01*
X3082Y952D01*
X3082Y950D01*
X3080Y950D01*
X3080Y946D01*
X3078Y946D01*
X3078Y944D01*
X3076Y944D01*
X3076Y942D01*
X3072Y942D01*
X3072Y940D01*
X3070Y940D01*
X3070Y938D01*
X3066Y938D01*
X3066Y918D01*
X3068Y918D01*
X3068Y916D01*
X3072Y916D01*
X3072Y914D01*
X3074Y914D01*
X3074Y912D01*
X3076Y912D01*
X3076Y910D01*
X3078Y910D01*
X3078Y908D01*
X3080Y908D01*
X3080Y906D01*
X3082Y906D01*
X3082Y904D01*
X3084Y904D01*
X3084Y900D01*
X3104Y900D01*
X3104Y902D01*
X3106Y902D01*
X3106Y904D01*
X3108Y904D01*
X3108Y908D01*
X3110Y908D01*
X3110Y910D01*
X3112Y910D01*
X3112Y912D01*
X3114Y912D01*
X3114Y914D01*
X3118Y914D01*
X3118Y916D01*
X3120Y916D01*
X3120Y918D01*
X3122Y918D01*
X3122Y938D01*
X3118Y938D01*
X3118Y940D01*
X3116Y940D01*
X3116Y942D01*
X3114Y942D01*
X3114Y944D01*
X3112Y944D01*
X3112Y946D01*
X3110Y946D01*
X3110Y948D01*
X3108Y948D01*
X3108Y950D01*
X3106Y950D01*
X3106Y954D01*
X3104Y954D01*
X3104Y956D01*
X3084Y956D01*
G37*
D02*
G36*
X3084Y856D02*
X3084Y852D01*
X3082Y852D01*
X3082Y850D01*
X3080Y850D01*
X3080Y846D01*
X3078Y846D01*
X3078Y844D01*
X3076Y844D01*
X3076Y842D01*
X3072Y842D01*
X3072Y840D01*
X3070Y840D01*
X3070Y838D01*
X3066Y838D01*
X3066Y818D01*
X3068Y818D01*
X3068Y816D01*
X3072Y816D01*
X3072Y814D01*
X3074Y814D01*
X3074Y812D01*
X3076Y812D01*
X3076Y810D01*
X3078Y810D01*
X3078Y808D01*
X3080Y808D01*
X3080Y806D01*
X3082Y806D01*
X3082Y804D01*
X3084Y804D01*
X3084Y800D01*
X3104Y800D01*
X3104Y802D01*
X3106Y802D01*
X3106Y804D01*
X3108Y804D01*
X3108Y808D01*
X3110Y808D01*
X3110Y810D01*
X3112Y810D01*
X3112Y812D01*
X3114Y812D01*
X3114Y814D01*
X3118Y814D01*
X3118Y816D01*
X3120Y816D01*
X3120Y818D01*
X3122Y818D01*
X3122Y838D01*
X3118Y838D01*
X3118Y840D01*
X3116Y840D01*
X3116Y842D01*
X3114Y842D01*
X3114Y844D01*
X3112Y844D01*
X3112Y846D01*
X3110Y846D01*
X3110Y848D01*
X3108Y848D01*
X3108Y850D01*
X3106Y850D01*
X3106Y854D01*
X3104Y854D01*
X3104Y856D01*
X3084Y856D01*
G37*
D02*
G36*
X3084Y756D02*
X3084Y752D01*
X3082Y752D01*
X3082Y750D01*
X3080Y750D01*
X3080Y746D01*
X3078Y746D01*
X3078Y744D01*
X3076Y744D01*
X3076Y742D01*
X3072Y742D01*
X3072Y740D01*
X3070Y740D01*
X3070Y738D01*
X3066Y738D01*
X3066Y718D01*
X3068Y718D01*
X3068Y716D01*
X3072Y716D01*
X3072Y714D01*
X3074Y714D01*
X3074Y712D01*
X3076Y712D01*
X3076Y710D01*
X3078Y710D01*
X3078Y708D01*
X3080Y708D01*
X3080Y706D01*
X3082Y706D01*
X3082Y704D01*
X3084Y704D01*
X3084Y700D01*
X3104Y700D01*
X3104Y702D01*
X3106Y702D01*
X3106Y704D01*
X3108Y704D01*
X3108Y708D01*
X3110Y708D01*
X3110Y710D01*
X3112Y710D01*
X3112Y712D01*
X3114Y712D01*
X3114Y714D01*
X3118Y714D01*
X3118Y716D01*
X3120Y716D01*
X3120Y718D01*
X3122Y718D01*
X3122Y738D01*
X3118Y738D01*
X3118Y740D01*
X3116Y740D01*
X3116Y742D01*
X3114Y742D01*
X3114Y744D01*
X3112Y744D01*
X3112Y746D01*
X3110Y746D01*
X3110Y748D01*
X3108Y748D01*
X3108Y750D01*
X3106Y750D01*
X3106Y754D01*
X3104Y754D01*
X3104Y756D01*
X3084Y756D01*
G37*
D02*
G36*
X3084Y656D02*
X3084Y652D01*
X3082Y652D01*
X3082Y650D01*
X3080Y650D01*
X3080Y646D01*
X3078Y646D01*
X3078Y644D01*
X3076Y644D01*
X3076Y642D01*
X3072Y642D01*
X3072Y640D01*
X3070Y640D01*
X3070Y638D01*
X3066Y638D01*
X3066Y618D01*
X3068Y618D01*
X3068Y616D01*
X3072Y616D01*
X3072Y614D01*
X3074Y614D01*
X3074Y612D01*
X3076Y612D01*
X3076Y610D01*
X3078Y610D01*
X3078Y608D01*
X3080Y608D01*
X3080Y606D01*
X3082Y606D01*
X3082Y604D01*
X3084Y604D01*
X3084Y600D01*
X3104Y600D01*
X3104Y602D01*
X3106Y602D01*
X3106Y604D01*
X3108Y604D01*
X3108Y608D01*
X3110Y608D01*
X3110Y610D01*
X3112Y610D01*
X3112Y612D01*
X3114Y612D01*
X3114Y614D01*
X3118Y614D01*
X3118Y616D01*
X3120Y616D01*
X3120Y618D01*
X3122Y618D01*
X3122Y638D01*
X3118Y638D01*
X3118Y640D01*
X3116Y640D01*
X3116Y642D01*
X3114Y642D01*
X3114Y644D01*
X3112Y644D01*
X3112Y646D01*
X3110Y646D01*
X3110Y648D01*
X3108Y648D01*
X3108Y650D01*
X3106Y650D01*
X3106Y654D01*
X3104Y654D01*
X3104Y656D01*
X3084Y656D01*
G37*
D02*
G36*
X3084Y556D02*
X3084Y552D01*
X3082Y552D01*
X3082Y550D01*
X3080Y550D01*
X3080Y546D01*
X3078Y546D01*
X3078Y544D01*
X3076Y544D01*
X3076Y542D01*
X3072Y542D01*
X3072Y540D01*
X3070Y540D01*
X3070Y538D01*
X3066Y538D01*
X3066Y518D01*
X3068Y518D01*
X3068Y516D01*
X3072Y516D01*
X3072Y514D01*
X3074Y514D01*
X3074Y512D01*
X3076Y512D01*
X3076Y510D01*
X3078Y510D01*
X3078Y508D01*
X3080Y508D01*
X3080Y506D01*
X3082Y506D01*
X3082Y504D01*
X3084Y504D01*
X3084Y500D01*
X3104Y500D01*
X3104Y502D01*
X3106Y502D01*
X3106Y504D01*
X3108Y504D01*
X3108Y508D01*
X3110Y508D01*
X3110Y510D01*
X3112Y510D01*
X3112Y512D01*
X3114Y512D01*
X3114Y514D01*
X3118Y514D01*
X3118Y516D01*
X3120Y516D01*
X3120Y518D01*
X3122Y518D01*
X3122Y538D01*
X3118Y538D01*
X3118Y540D01*
X3116Y540D01*
X3116Y542D01*
X3114Y542D01*
X3114Y544D01*
X3112Y544D01*
X3112Y546D01*
X3110Y546D01*
X3110Y548D01*
X3108Y548D01*
X3108Y550D01*
X3106Y550D01*
X3106Y554D01*
X3104Y554D01*
X3104Y556D01*
X3084Y556D01*
G37*
D02*
G36*
X3084Y456D02*
X3084Y452D01*
X3082Y452D01*
X3082Y450D01*
X3080Y450D01*
X3080Y446D01*
X3078Y446D01*
X3078Y444D01*
X3076Y444D01*
X3076Y442D01*
X3072Y442D01*
X3072Y440D01*
X3070Y440D01*
X3070Y438D01*
X3066Y438D01*
X3066Y418D01*
X3068Y418D01*
X3068Y416D01*
X3072Y416D01*
X3072Y414D01*
X3074Y414D01*
X3074Y412D01*
X3076Y412D01*
X3076Y410D01*
X3078Y410D01*
X3078Y408D01*
X3080Y408D01*
X3080Y406D01*
X3082Y406D01*
X3082Y404D01*
X3084Y404D01*
X3084Y400D01*
X3104Y400D01*
X3104Y402D01*
X3106Y402D01*
X3106Y404D01*
X3108Y404D01*
X3108Y408D01*
X3110Y408D01*
X3110Y410D01*
X3112Y410D01*
X3112Y412D01*
X3114Y412D01*
X3114Y414D01*
X3118Y414D01*
X3118Y416D01*
X3120Y416D01*
X3120Y418D01*
X3122Y418D01*
X3122Y438D01*
X3118Y438D01*
X3118Y440D01*
X3116Y440D01*
X3116Y442D01*
X3114Y442D01*
X3114Y444D01*
X3112Y444D01*
X3112Y446D01*
X3110Y446D01*
X3110Y448D01*
X3108Y448D01*
X3108Y450D01*
X3106Y450D01*
X3106Y454D01*
X3104Y454D01*
X3104Y456D01*
X3084Y456D01*
G37*
D02*
G36*
X1023Y228D02*
X1064Y228D01*
X1064Y198D01*
X1023Y198D01*
X1023Y228D01*
G37*
D02*
G36*
X1023Y160D02*
X1064Y160D01*
X1064Y132D01*
X1023Y132D01*
X1023Y160D01*
G37*
D02*
G36*
X363Y2128D02*
X404Y2128D01*
X404Y2098D01*
X363Y2098D01*
X363Y2128D01*
G37*
D02*
G36*
X363Y2060D02*
X404Y2060D01*
X404Y2032D01*
X363Y2032D01*
X363Y2060D01*
G37*
D02*
G36*
X3021Y360D02*
X3062Y360D01*
X3062Y332D01*
X3021Y332D01*
X3021Y360D01*
G37*
D02*
G36*
X2994Y400D02*
X3022Y400D01*
X3022Y357D01*
X2994Y357D01*
X2994Y400D01*
G37*
D02*
G36*
X3121Y360D02*
X3162Y360D01*
X3162Y332D01*
X3121Y332D01*
X3121Y360D01*
G37*
D02*
G36*
X3160Y400D02*
X3190Y400D01*
X3190Y357D01*
X3160Y357D01*
X3160Y400D01*
G37*
D02*
G36*
X923Y228D02*
X964Y228D01*
X964Y198D01*
X923Y198D01*
X923Y228D01*
G37*
D02*
G36*
X923Y160D02*
X964Y160D01*
X964Y132D01*
X923Y132D01*
X923Y160D01*
G37*
D02*
G36*
X1021Y860D02*
X1066Y860D01*
X1066Y828D01*
X1021Y828D01*
X1021Y860D01*
G37*
D02*
G36*
X992Y901D02*
X1024Y901D01*
X1024Y856D01*
X992Y856D01*
X992Y901D01*
G37*
D02*
G36*
X1062Y901D02*
X1094Y901D01*
X1094Y856D01*
X1062Y856D01*
X1062Y901D01*
G37*
D02*
G36*
X1819Y1260D02*
X1864Y1260D01*
X1864Y1228D01*
X1819Y1228D01*
X1819Y1260D01*
G37*
D02*
G36*
X1790Y1301D02*
X1822Y1301D01*
X1822Y1256D01*
X1790Y1256D01*
X1790Y1301D01*
G37*
D02*
G36*
X1860Y1301D02*
X1894Y1301D01*
X1894Y1256D01*
X1860Y1256D01*
X1860Y1301D01*
G37*
D02*
G36*
X1819Y1432D02*
X1864Y1432D01*
X1864Y1398D01*
X1819Y1398D01*
X1819Y1432D01*
G37*
D02*
G36*
X1790Y1401D02*
X1822Y1401D01*
X1822Y1356D01*
X1790Y1356D01*
X1790Y1401D01*
G37*
D02*
G36*
X1860Y1401D02*
X1894Y1401D01*
X1894Y1356D01*
X1860Y1356D01*
X1860Y1401D01*
G37*
D02*
G36*
X2994Y800D02*
X3022Y800D01*
X3022Y757D01*
X2994Y757D01*
X2994Y800D01*
G37*
D02*
G36*
X1321Y228D02*
X1362Y228D01*
X1362Y198D01*
X1321Y198D01*
X1321Y228D01*
G37*
D02*
G36*
X1321Y160D02*
X1362Y160D01*
X1362Y132D01*
X1321Y132D01*
X1321Y160D01*
G37*
D02*
G36*
X1294Y200D02*
X1322Y200D01*
X1322Y157D01*
X1294Y157D01*
X1294Y200D01*
G37*
D02*
G36*
X1021Y1030D02*
X1066Y1030D01*
X1066Y998D01*
X1021Y998D01*
X1021Y1030D01*
G37*
D02*
G36*
X992Y1001D02*
X1024Y1001D01*
X1024Y956D01*
X992Y956D01*
X992Y1001D01*
G37*
D02*
G36*
X1062Y1001D02*
X1094Y1001D01*
X1094Y956D01*
X1062Y956D01*
X1062Y1001D01*
G37*
D02*
G04 End of Copper0*
M02*