; NON-PLATED HOLES START AT T1
; THROUGH (PLATED) HOLES START AT T100
M48
INCH
T100C0.038194
T101C0.038000
T102C0.040000
%
T100
X017444Y001777
X031444Y008777
X017444Y020777
X030444Y019777
X026444Y001777
X026444Y020777
X031444Y011777
X008844Y020777
X030444Y003777
X031444Y007777
X030444Y018777
X000844Y020777
X031444Y010777
X029444Y001777
X031444Y006777
X012444Y020777
X030444Y017777
X021444Y020777
X003844Y020777
X030444Y020777
X006444Y001777
X031444Y005777
X030444Y016777
X015444Y001777
X015444Y020777
X024444Y001777
X024444Y020777
X006844Y020777
X031444Y004777
X009444Y001777
X030444Y015777
X018444Y001777
X018444Y020777
X031444Y019777
X027444Y001777
X027444Y020777
X009844Y020777
X031444Y003777
X030444Y014777
X010444Y001777
X031444Y018777
X001844Y020777
X004444Y001777
X030444Y013777
X013444Y001777
X013444Y020777
X022444Y001777
X031444Y017777
X030444Y009777
X022444Y020777
X004844Y020777
X031444Y020777
X030444Y012777
X007444Y001777
X031444Y016777
X030444Y008777
X016444Y001777
X016444Y020777
X025444Y001777
X025444Y020777
X030444Y011777
X007844Y020777
X031444Y015777
X030444Y007777
X019444Y001777
X030444Y010777
X028444Y001777
X031444Y014777
X030444Y006777
X011444Y001777
X011444Y020777
X020444Y001777
X020444Y020777
X002844Y020777
X031444Y013777
X005444Y001777
X030444Y005777
X014444Y001777
X014444Y020777
X031444Y009777
X023444Y001777
X023444Y020777
X005844Y020777
X031444Y012777
X030444Y004777
X008444Y001777
T101
X010444Y009777
X010444Y008777
T102
X018444Y012777
X018444Y013777
T00
M30
